<svg viewBox="0 0 1457 400" xmlns="http://www.w3.org/2000/svg"><g><g><g><g><g><line x1="72.34375" y1="377" x2="67.34375" y2="377" style="visibility: inherit;" fill="rgb(0, 0, 0)" stroke="rgb(204, 204, 204)" stroke-width="1px"></line><line x1="72.34375" y1="350.07142857142856" x2="67.34375" y2="350.07142857142856" style="visibility: inherit;" fill="rgb(0, 0, 0)" stroke="rgb(204, 204, 204)" stroke-width="1px"></line><line x1="72.34375" y1="323.1428571428571" x2="67.34375" y2="323.1428571428571" style="visibility: inherit;" fill="rgb(0, 0, 0)" stroke="rgb(204, 204, 204)" stroke-width="1px"></line><line x1="72.34375" y1="296.2142857142856" x2="67.34375" y2="296.2142857142856" style="visibility: inherit;" fill="rgb(0, 0, 0)" stroke="rgb(204, 204, 204)" stroke-width="1px"></line><line x1="72.34375" y1="269.28571428571416" x2="67.34375" y2="269.28571428571416" style="visibility: inherit;" fill="rgb(0, 0, 0)" stroke="rgb(204, 204, 204)" stroke-width="1px"></line><line x1="72.34375" y1="242.35714285714275" x2="67.34375" y2="242.35714285714275" style="visibility: inherit;" fill="rgb(0, 0, 0)" stroke="rgb(204, 204, 204)" stroke-width="1px"></line><line x1="72.34375" y1="215.42857142857125" x2="67.34375" y2="215.42857142857125" style="visibility: inherit;" fill="rgb(0, 0, 0)" stroke="rgb(204, 204, 204)" stroke-width="1px"></line><line x1="72.34375" y1="188.49999999999983" x2="67.34375" y2="188.49999999999983" style="visibility: inherit;" fill="rgb(0, 0, 0)" stroke="rgb(204, 204, 204)" stroke-width="1px"></line><line x1="72.34375" y1="161.57142857142838" x2="67.34375" y2="161.57142857142838" style="visibility: inherit;" fill="rgb(0, 0, 0)" stroke="rgb(204, 204, 204)" stroke-width="1px"></line><line x1="72.34375" y1="134.6428571428569" x2="67.34375" y2="134.6428571428569" style="visibility: inherit;" fill="rgb(0, 0, 0)" stroke="rgb(204, 204, 204)" stroke-width="1px"></line><line x1="72.34375" y1="107.71428571428545" x2="67.34375" y2="107.71428571428545" style="visibility: inherit;" fill="rgb(0, 0, 0)" stroke="rgb(204, 204, 204)" stroke-width="1px"></line><line x1="72.34375" y1="80.785714285714" x2="67.34375" y2="80.785714285714" style="visibility: inherit;" fill="rgb(0, 0, 0)" stroke="rgb(204, 204, 204)" stroke-width="1px"></line><line x1="72.34375" y1="53.85714285714254" x2="67.34375" y2="53.85714285714254" style="visibility: inherit;" fill="rgb(0, 0, 0)" stroke="rgb(204, 204, 204)" stroke-width="1px"></line><line x1="72.34375" y1="26.92857142857146" x2="67.34375" y2="26.92857142857146" style="visibility: inherit;" fill="rgb(0, 0, 0)" stroke="rgb(204, 204, 204)" stroke-width="1px"></line><line x1="72.34375" y1="0" x2="67.34375" y2="0" style="visibility: inherit;" fill="rgb(0, 0, 0)" stroke="rgb(204, 204, 204)" stroke-width="1px"></line></g><g transform="translate(62.34375, 0)"><text x="0" y="377" dx="0em" dy="0.3em" style="text-anchor: end; visibility: hidden; font-family: Roboto, sans-serif; font-size: 12px; font-weight: 200;" fill="rgb(33, 33, 33)" stroke="none" stroke-width="1px">-0.114</text><text x="0" y="350.07142857142856" dx="0em" dy="0.3em" style="text-anchor: end; visibility: inherit; font-family: Roboto, sans-serif; font-size: 12px; font-weight: 200;" fill="rgb(33, 33, 33)" stroke="none" stroke-width="1px">-0.113</text><text x="0" y="323.1428571428571" dx="0em" dy="0.3em" style="text-anchor: end; visibility: inherit; font-family: Roboto, sans-serif; font-size: 12px; font-weight: 200;" fill="rgb(33, 33, 33)" stroke="none" stroke-width="1px">-0.112</text><text x="0" y="296.2142857142856" dx="0em" dy="0.3em" style="text-anchor: end; visibility: inherit; font-family: Roboto, sans-serif; font-size: 12px; font-weight: 200;" fill="rgb(33, 33, 33)" stroke="none" stroke-width="1px">-0.111</text><text x="0" y="269.28571428571416" dx="0em" dy="0.3em" style="text-anchor: end; visibility: inherit; font-family: Roboto, sans-serif; font-size: 12px; font-weight: 200;" fill="rgb(33, 33, 33)" stroke="none" stroke-width="1px">-0.11</text><text x="0" y="242.35714285714275" dx="0em" dy="0.3em" style="text-anchor: end; visibility: inherit; font-family: Roboto, sans-serif; font-size: 12px; font-weight: 200;" fill="rgb(33, 33, 33)" stroke="none" stroke-width="1px">-0.109</text><text x="0" y="215.42857142857125" dx="0em" dy="0.3em" style="text-anchor: end; visibility: inherit; font-family: Roboto, sans-serif; font-size: 12px; font-weight: 200;" fill="rgb(33, 33, 33)" stroke="none" stroke-width="1px">-0.108</text><text x="0" y="188.49999999999983" dx="0em" dy="0.3em" style="text-anchor: end; visibility: inherit; font-family: Roboto, sans-serif; font-size: 12px; font-weight: 200;" fill="rgb(33, 33, 33)" stroke="none" stroke-width="1px">-0.107</text><text x="0" y="161.57142857142838" dx="0em" dy="0.3em" style="text-anchor: end; visibility: inherit; font-family: Roboto, sans-serif; font-size: 12px; font-weight: 200;" fill="rgb(33, 33, 33)" stroke="none" stroke-width="1px">-0.106</text><text x="0" y="134.6428571428569" dx="0em" dy="0.3em" style="text-anchor: end; visibility: inherit; font-family: Roboto, sans-serif; font-size: 12px; font-weight: 200;" fill="rgb(33, 33, 33)" stroke="none" stroke-width="1px">-0.105</text><text x="0" y="107.71428571428545" dx="0em" dy="0.3em" style="text-anchor: end; visibility: inherit; font-family: Roboto, sans-serif; font-size: 12px; font-weight: 200;" fill="rgb(33, 33, 33)" stroke="none" stroke-width="1px">-0.104</text><text x="0" y="80.785714285714" dx="0em" dy="0.3em" style="text-anchor: end; visibility: inherit; font-family: Roboto, sans-serif; font-size: 12px; font-weight: 200;" fill="rgb(33, 33, 33)" stroke="none" stroke-width="1px">-0.103</text><text x="0" y="53.85714285714254" dx="0em" dy="0.3em" style="text-anchor: end; visibility: inherit; font-family: Roboto, sans-serif; font-size: 12px; font-weight: 200;" fill="rgb(33, 33, 33)" stroke="none" stroke-width="1px">-0.102</text><text x="0" y="26.92857142857146" dx="0em" dy="0.3em" style="text-anchor: end; visibility: inherit; font-family: Roboto, sans-serif; font-size: 12px; font-weight: 200;" fill="rgb(33, 33, 33)" stroke="none" stroke-width="1px">-0.101</text><text x="0" y="0" dx="0em" dy="0.3em" style="text-anchor: end; visibility: hidden; font-family: Roboto, sans-serif; font-size: 12px; font-weight: 200;" fill="rgb(33, 33, 33)" stroke="none" stroke-width="1px">-0.1</text></g><line x1="72.34375" y1="0" x2="72.34375" y2="377" fill="rgb(0, 0, 0)" stroke="rgb(204, 204, 204)" stroke-width="1px"></line></g></g><g transform="translate(72, 0)" clip-path="url(#clip_0)"><clipPath id="clip_0"><rect width="1384" height="377"></rect></clipPath><g><g><g><line x1="0" y1="0" x2="0" y2="377" fill="rgb(0, 0, 0)" stroke="rgb(66, 66, 66)" stroke-width="1px" opacity="0.25"></line><line x1="138.46562500000002" y1="0" x2="138.46562500000002" y2="377" fill="rgb(0, 0, 0)" stroke="rgb(66, 66, 66)" stroke-width="1px" opacity="0.25"></line><line x1="276.93125000000003" y1="0" x2="276.93125000000003" y2="377" fill="rgb(0, 0, 0)" stroke="rgb(66, 66, 66)" stroke-width="1px" opacity="0.25"></line><line x1="415.39687499999997" y1="0" x2="415.39687499999997" y2="377" fill="rgb(0, 0, 0)" stroke="rgb(66, 66, 66)" stroke-width="1px" opacity="0.25"></line><line x1="553.8625000000001" y1="0" x2="553.8625000000001" y2="377" fill="rgb(0, 0, 0)" stroke="rgb(66, 66, 66)" stroke-width="1px" opacity="0.25"></line><line x1="692.328125" y1="0" x2="692.328125" y2="377" fill="rgb(0, 0, 0)" stroke="rgb(66, 66, 66)" stroke-width="1px" opacity="0.25"></line><line x1="830.7937499999999" y1="0" x2="830.7937499999999" y2="377" fill="rgb(0, 0, 0)" stroke="rgb(66, 66, 66)" stroke-width="1px" opacity="0.25"></line><line x1="969.259375" y1="0" x2="969.259375" y2="377" fill="rgb(0, 0, 0)" stroke="rgb(66, 66, 66)" stroke-width="1px" opacity="0.25"></line><line x1="1107.7250000000001" y1="0" x2="1107.7250000000001" y2="377" fill="rgb(0, 0, 0)" stroke="rgb(66, 66, 66)" stroke-width="1px" opacity="0.25"></line><line x1="1246.190625" y1="0" x2="1246.190625" y2="377" fill="rgb(0, 0, 0)" stroke="rgb(66, 66, 66)" stroke-width="1px" opacity="0.25"></line><line x1="1384.65625" y1="0" x2="1384.65625" y2="377" fill="rgb(0, 0, 0)" stroke="rgb(66, 66, 66)" stroke-width="1px" opacity="0.25"></line></g><g><line x1="0" y1="377" x2="1384.65625" y2="377" fill="rgb(0, 0, 0)" stroke="rgb(66, 66, 66)" stroke-width="1px" opacity="0.25"></line><line x1="0" y1="350.07142857142856" x2="1384.65625" y2="350.07142857142856" fill="rgb(0, 0, 0)" stroke="rgb(66, 66, 66)" stroke-width="1px" opacity="0.25"></line><line x1="0" y1="323.1428571428571" x2="1384.65625" y2="323.1428571428571" fill="rgb(0, 0, 0)" stroke="rgb(66, 66, 66)" stroke-width="1px" opacity="0.25"></line><line x1="0" y1="296.2142857142856" x2="1384.65625" y2="296.2142857142856" fill="rgb(0, 0, 0)" stroke="rgb(66, 66, 66)" stroke-width="1px" opacity="0.25"></line><line x1="0" y1="269.28571428571416" x2="1384.65625" y2="269.28571428571416" fill="rgb(0, 0, 0)" stroke="rgb(66, 66, 66)" stroke-width="1px" opacity="0.25"></line><line x1="0" y1="242.35714285714275" x2="1384.65625" y2="242.35714285714275" fill="rgb(0, 0, 0)" stroke="rgb(66, 66, 66)" stroke-width="1px" opacity="0.25"></line><line x1="0" y1="215.42857142857125" x2="1384.65625" y2="215.42857142857125" fill="rgb(0, 0, 0)" stroke="rgb(66, 66, 66)" stroke-width="1px" opacity="0.25"></line><line x1="0" y1="188.49999999999983" x2="1384.65625" y2="188.49999999999983" fill="rgb(0, 0, 0)" stroke="rgb(66, 66, 66)" stroke-width="1px" opacity="0.25"></line><line x1="0" y1="161.57142857142838" x2="1384.65625" y2="161.57142857142838" fill="rgb(0, 0, 0)" stroke="rgb(66, 66, 66)" stroke-width="1px" opacity="0.25"></line><line x1="0" y1="134.6428571428569" x2="1384.65625" y2="134.6428571428569" fill="rgb(0, 0, 0)" stroke="rgb(66, 66, 66)" stroke-width="1px" opacity="0.25"></line><line x1="0" y1="107.71428571428545" x2="1384.65625" y2="107.71428571428545" fill="rgb(0, 0, 0)" stroke="rgb(66, 66, 66)" stroke-width="1px" opacity="0.25"></line><line x1="0" y1="80.785714285714" x2="1384.65625" y2="80.785714285714" fill="rgb(0, 0, 0)" stroke="rgb(66, 66, 66)" stroke-width="1px" opacity="0.25"></line><line x1="0" y1="53.85714285714254" x2="1384.65625" y2="53.85714285714254" fill="rgb(0, 0, 0)" stroke="rgb(66, 66, 66)" stroke-width="1px" opacity="0.25"></line><line x1="0" y1="26.92857142857146" x2="1384.65625" y2="26.92857142857146" fill="rgb(0, 0, 0)" stroke="rgb(66, 66, 66)" stroke-width="1px" opacity="0.25"></line><line x1="0" y1="0" x2="1384.65625" y2="0" fill="rgb(0, 0, 0)" stroke="rgb(66, 66, 66)" stroke-width="1px" opacity="0.25"></line></g></g></g><g><g><line x1="0" y1="-2692.857142857143" x2="1384.65625" y2="-2692.857142857143" fill="rgb(0, 0, 0)" stroke="rgb(153, 153, 153)" stroke-width="1.5px"></line></g></g><g><g><line x1="138.46562500000002" y1="0" x2="138.46562500000002" y2="377" fill="rgb(0, 0, 0)" stroke="rgb(153, 153, 153)" stroke-width="1.5px"></line></g></g><g><g><g><g><g><path stroke="rgb(255, 112, 67)" stroke-width="2px" d="M141.2349375,201.7871744930743L144.00424999999998,103.36485439046929L146.7735625,133.663700087806L149.542875,188.6212418130673L152.3121875,178.5921930952014L155.0815,193.25735353773666L157.85081250000002,215.24472041286245L160.620125,227.32816590870692L163.38943749999999,237.85976488835846L166.15875,241.21624998893893L168.9280625,237.82446949411423L171.697375,244.402542303111L174.4666875,241.34162071564714L177.236,237.80879825481082L180.0053125,225.8441673638447L182.77462500000001,231.22053688658644L185.5439375,225.15154458694687L188.31325,232.5932052283421L191.08256250000002,246.14706358063293L193.851875,250.2480453103493L196.6211875,244.52929066473274L199.39049999999997,242.2367262048499L202.1598125,236.60170365723175L204.929125,226.63891932826238L207.69843749999998,228.15775792317308L210.46775,228.40420092522638L213.2370625,218.74970878548984L216.006375,219.8522286152141L218.7756875,221.6853423152125L221.54500000000002,222.16422744037337L224.3143125,215.56775956279867L227.083625,210.0137192842708L229.85293750000002,211.91222981439012L232.62225,206.6445759822979L235.39156250000002,198.1400596395304L238.16087499999998,195.80341670072664L240.9301875,191.10645759044525L243.69949999999997,189.54642548849299L246.46881249999998,184.19090914314515L249.238125,182.12408938269905L252.00743749999998,177.6285789226872L254.77675,175.88953158369276L257.5460625,179.36403051662626L260.315375,184.83608684609828L263.08468750000003,185.03590814441802L265.854,182.92042497753843L268.6233125,184.07390779702763L271.392625,178.71711227273465L274.1619375,182.43159606496255L276.93125000000003,179.6434652291754L279.7005625,174.55336231190526L282.469875,173.2631200165996L285.23918749999996,178.07800794396394L288.00849999999997,181.44251214898514L290.7778125,179.83497213901197L293.547125,180.06344341288118L296.3164375,180.57568815844257L299.08575,178.94865576520817L301.8550625,178.7784845888329L304.624375,179.80281437515842L307.3936875,184.32792067080675L310.163,183.89894410596764L312.9323125,182.3979032223178L315.70162500000004,183.76002431771042L318.4709375,184.36807516983143L321.24025,184.80955485213187L324.0095625,178.47237830821976L326.77887499999997,179.14736797464107L329.5481875,180.89803285371158L332.3175,178.21604108000992L335.0868125,176.9543149713883L337.856125,180.36942486126046L340.6254375,181.33574042694576L343.39475,185.2420062974841L346.1640625,185.77413083275346L348.933375,186.00121360497823L351.7026875,185.4416799939018L354.472,183.2857676126287L357.2413125,183.7308188749893L360.010625,186.46532532490903L362.7799375,183.70195483279602L365.54925000000003,184.0595597714485L368.31856250000004,185.79324941718752L371.087875,186.03551363001165L373.8571875,185.03805931118504L376.6265,184.54415893600188L379.39581250000003,185.055869895639L382.16512500000005,184.5862358276941L384.93443750000006,185.95470960639568L387.70375,186.37961513476978L390.47306249999997,185.19500447831592L393.242375,187.57287735995655L396.0116875,188.6149178269749L398.78099999999995,189.72240992031405L401.55031249999996,190.38472703368217L404.319625,190.38382052835595L407.0889375,190.2573025646336L409.85825,192.88265744273207L412.6275625,193.71066763633158L415.39687499999997,193.1947934485428L418.1661875,193.49851646303094L420.9355,194.07983345959477L423.7048125,194.66730202030053L426.474125,193.9898266508324L429.24343749999997,194.24208755729467L432.01275,191.74545338967368L434.7820625,191.38296223229324L437.551375,192.6138967872535L440.3206875,192.85917068474564L443.09000000000003,192.43340072288504L445.8593125,193.65872216755642L448.628625,194.52549803473934L451.3979375,194.0848557956561L454.16725,193.44646443533412L456.93656250000004,194.31489401512047L459.70587500000005,195.1087245621133L462.4751875,194.09053726144202L465.2445,192.9580776520122L468.01381250000003,192.61881801601598L470.78312500000004,195.28364451127288L473.55243750000005,196.0052795233107L476.32174999999995,196.16918882761289L479.09106249999996,196.8931163878471L481.860375,198.832908875014L484.6296875,200.0694693299136L487.39899999999994,201.86198132914282L490.16831249999996,200.68711779762938L492.93762499999997,201.27793532358447L495.7069375,201.66122992653396L498.47625,203.13459534181754L501.2455625,204.68856631268997L504.01487499999996,204.37489723554293L506.7841875,204.7000415520335L509.5535,204.70276101830248L512.3228124999999,204.7228891365458L515.092125,204.50256008778715L517.8614375,205.58407847533377L520.63075,204.3368610494351L523.4000625,202.60682531772105L526.1693750000001,202.0429518069417L528.9386875,202.09907581928388L531.708,201.48392691844003L534.4773125,198.7889226522359L537.246625,197.4850338193738L540.0159375000001,198.3243276004839L542.78525,199.18918078312655L545.5545625,200.2962159104162L548.323875,201.04630351547283L551.0931875,201.24249183510724L553.8625000000001,201.44091853082023L556.6318125,201.500083549205L559.401125,201.46164542017556L562.1704375,201.70560496223018L564.93975,201.54170325233056L567.7090625,201.63445124719743L570.4783749999999,201.12475536378693L573.2476875,200.65186003142273L576.0169999999999,201.27326913976685L578.7863125,199.2239122765119L581.555625,199.04713282549972L584.3249375,199.56764448480928L587.09425,199.73303535631285L589.8635625,200.46708651848604L592.632875,198.99989021821054L595.4021875,197.4868745948672L598.1715,196.63527061380805L600.9408125,196.46920403830956L603.710125,197.0167777111763L606.4794375,198.5313049248608L609.24875,197.9594824440908L612.0180625,199.53578271982644L614.787375,199.74996003416524L617.5566875000001,199.81781684279366L620.326,198.75267225545244L623.0953125,197.35415745165207L625.864625,197.8251799471125L628.6339375,198.37640136030234L631.4032500000001,197.41062060433123L634.1725625,195.27395871047594L636.941875,195.19355588623807L639.7111875,195.90186972403492L642.4805,196.26878696107494L645.2498125000001,195.3889309024382L648.019125,195.29817397214302L650.7884375,194.72609255827567L653.5577499999999,194.8339005229507L656.3270625,194.4719354673177L659.096375,193.84681432012258L661.8656874999999,193.27653084679068L664.635,192.21502308686587L667.4043125,190.76369067422394L670.173625,190.80928504619504L672.9429375,190.49273019454188L675.71225,190.7181393648399L678.4815625,191.18666600567798L681.250875,190.32518497915657L684.0201875,189.8351102662577L686.7895,189.60286091382022L689.5588125,188.26708456100184L692.328125,188.29952204008447L695.0974375,188.72008330620312L697.86675,188.46697218532768L700.6360625,188.8118879094894L703.405375,188.94252031968168L706.1746875,190.5668455193149L708.944,191.21909762761902L711.7133125,191.8012172061963L714.482625,190.43517203018163L717.2519375,191.7603614948722L720.02125,192.13859960613328L722.7905625000001,192.3165850470171L725.559875,193.7504369162802L728.3291875,193.9077280355244L731.0985000000001,193.58740640282312L733.8678125,193.86943559333795L736.6371250000001,194.01759920695983L739.4064375,195.31023141120053L742.17575,193.86290462574513L744.9450625000001,193.9388497068911L747.714375,194.73555017583593L750.4836875000001,194.8476343775082L753.253,195.21802263425127L756.0223125000001,195.846871429913L758.7916250000001,195.04208355477047L761.5609375,196.10219280401424L764.3302500000001,196.93468494242973L767.0995625,197.68570504877556L769.8688750000001,197.26392258602422L772.6381875000001,198.3181599259413L775.4075,198.74670212610974L778.1768125000001,198.7483446687641L780.9461249999999,198.29685004247978L783.7154374999999,197.69394593555072L786.48475,198.1296835847658L789.2540624999999,198.24119982588076L792.023375,198.36144097019738L794.7926874999999,198.5342296835239L797.5619999999999,197.19856313462694L800.3313125,197.64637943020517L803.1006249999999,197.3414642899452L805.8699375,196.43694525556884L808.63925,196.57039995809666L811.4085624999999,195.345410724275L814.177875,194.31374729253804L816.9471874999999,195.6222368711435L819.7165,195.89157515130313L822.4858125,195.99105713320506L825.255125,196.4349425132583L828.0244375,195.29998627323155L830.7937499999999,195.28679986066808L833.5630625,194.48555562583923L836.332375,194.46876317779552L839.1016875,194.78959542742194L841.871,195.50770166821633L844.6403124999999,196.19478195261868L847.409625,196.00852031931544L850.1789375,195.34399374983457L852.94825,195.63875264335522L855.7175625,195.51435001279248L858.4868749999999,195.54888062069742L861.2561875,196.169069654003L864.0255,196.64391315755935L866.7948125,197.12187188403843L869.564125,196.98512894062353L872.3334375000001,197.4113776900715L875.10275,196.716665841032L877.8720625,196.56333684307265L880.641375,195.6815191793036L883.4106875,196.0766579010975L886.1800000000001,196.24482100160313L888.9493125,195.822365165949L891.718625,195.90427762526573L894.4879375,195.39307024945197L897.25725,196.3205050923004L900.0265625000001,196.29096634503452L902.795875,196.04745929411342L905.5651875,195.7605561004062L908.3345,195.33506765186613L911.1038125,196.07529259125172L913.8731250000001,195.91871922083305L916.6424375,196.54264569897603L919.4117500000001,197.73724098424404L922.1810625,198.5153365059374L924.950375,197.59796266859476L927.7196875000001,197.2841584066416L930.489,197.29410441302662L933.2583125000001,196.97718721540866L936.0276250000001,197.1557331274725L938.7969375,197.41836181328944L941.5662500000001,197.5640979086001L944.3355625,196.44833949222743L947.1048750000001,196.83395099607435L949.8741875000001,195.97146146056477L952.6434999999999,195.7762855295853L955.4128125,196.43147509675094L958.1821249999999,196.80595718999174L960.9514374999999,197.6319349137264L963.72075,197.3947598414715L966.4900624999999,197.1189602341939L969.259375,196.7833232349158L972.0286874999999,196.64474993986403L974.7979999999999,196.3115284511594L977.5673125,196.57738411940304L980.3366249999999,196.98013222112348L983.1059375,197.62830390937563L985.8752499999999,197.5458930917666L988.6445625,197.77480745747556L991.413875,197.43060748731094L994.1831874999999,196.16578224752143L996.9525,196.3916416917853L999.7218124999999,196.90987046180186L1002.491125,196.6811952950866L1005.2604375,197.46682794034643L1008.0297499999999,197.2200147169362L1010.7990625,198.37623523332002L1013.568375,198.23944901615258L1016.3376875,197.10819991954847L1019.107,196.83853851888156L1021.8763125,196.6119994636667L1024.6456249999999,196.99594380468827L1027.4149375,197.66421328640996L1030.18425,197.887543031943L1032.9535625,198.17313524504792L1035.722875,198.44719177442389L1038.4921875,198.27582124861817L1041.2615,197.8187776409141L1044.0308125,197.95272637455773L1046.800125,197.13474621782294L1049.5694375,196.04851412589835L1052.3387500000001,195.62306410896102L1055.1080625,196.39722692755183L1057.877375,196.52271850798223L1060.6466875,196.75949229197755L1063.416,196.53290461637235L1066.1853125,196.7648056768772L1068.954625,196.8255547269417L1071.7239375,197.51400957397396L1074.49325,197.66585129868395L1077.2625625,197.94032784675585L1080.0318750000001,198.64937144692155L1082.8011875,199.65593609040832L1085.5705,199.99357596180366L1088.3398125,200.87804031817822L1091.109125,201.37385681499126L1093.8784375,200.79545671363877L1096.64775,200.73355724441555L1099.4170625000002,200.6307617233386L1102.186375,201.1556338654468L1104.9556875,201.43151985102674L1107.7250000000001,202.2765535962552L1110.4943125,201.61729391543915L1113.263625,202.09018303836825L1116.0329375000001,202.4637912199351L1118.80225,202.42750328323282L1121.5715625,202.96865501983402L1124.340875,203.18267365552742L1127.1101875,203.7456842762579L1129.8795,203.97452970910774L1132.6488124999998,204.8103640222573L1135.418125,204.24053364278686L1138.1874375,204.94519956448397L1140.9567499999998,205.45282744990442L1143.7260625,205.07793743739228L1146.495375,205.40539696323722L1149.2646875,205.90207764244016L1152.0339999999999,205.68038625119365L1154.8033125,206.07913667013182L1157.572625,206.87888986040187L1160.3419374999999,206.3448269975416L1163.11125,206.25035005005614L1165.8805625,206.91892958863116L1168.649875,207.07764357099728L1171.4191875,207.10825565585847L1174.1885,207.82152629582237L1176.9578125,207.4754366802022L1179.727125,207.7963194510356L1182.4964375,207.54113564990615L1185.26575,208.09602428465405L1188.0350624999999,208.34027242454206L1190.804375,208.2329009415495L1193.5736875,207.35323391740175L1196.343,207.29118631502152L1199.1123125,206.80787931602268L1201.881625,206.9582438476558L1204.6509375,206.95443132082136L1207.42025,206.87107510818782L1210.1895625,206.74307751676074L1212.958875,207.02281545869073L1215.7281875,207.28876598074007L1218.4975,206.7229553376141L1221.2668125,207.5449981326772L1224.036125,207.21048083116474L1226.8054375,208.33116601400053L1229.57475,207.7859010361742L1232.3440625,208.96265992214657L1235.1133750000001,208.56669639781921L1237.8826875,208.95846994109445L1240.652,208.25824500753282L1243.4213125,208.52677073909504L1246.190625,208.83444676457242" style="fill: none;" fill="none"></path></g></g></g></g><g opacity="0.2"><g><g><g><path stroke="rgb(255, 112, 67)" stroke-width="2px" d="M141.2349375,201.7871744930743L144.00424999999998,5.0409566078865735L146.7735625,194.170525244304L149.542875,353.16434151359954L152.3121875,138.57618847063597L155.0815,266.36347142713396L157.85081250000002,346.7079557478427L160.620125,311.5746237337588L163.38943749999999,321.7343024909495L166.15875,271.2739761386598L168.9280625,204.092653947217L171.697375,316.3286343216895L174.4666875,204.84844031078464L177.236,192.20231068985788L180.0053125,59.59019352282783L182.77462500000001,311.2239163901123L185.5439375,128.86893823742855L188.31325,357.96891174146094L191.08256250000002,487.81188545482485L193.851875,327.3921669593878L196.6211875,131.3475643949848L199.39049999999997,194.6189410984515L202.1598125,114.04693839805452L204.929125,0.22454900400964828L207.69843749999998,264.15770681841025L210.46775,234.48581908430359L213.2370625,-28.90643083623493L216.006375,249.2071009107997L218.7756875,272.27493662919306L221.54500000000002,235.84551225815488L224.3143125,20.711636117526314L227.083625,40.56592519794175L229.85293750000002,271.6724342533519L232.62225,35.73587451662323L235.39156250000002,-86.00852830069425L238.16087499999998,115.47645202704823L240.9301875,25.107917189597917L243.69949999999997,132.90889422808362L246.46881249999998,-15.398781001568008L249.238125,103.11000549367482L252.00743749999998,1.4470088694775312L254.77675,106.06613936168792L257.5460625,322.19796649047294L260.315375,415.02967870661183L263.08468750000003,193.63302811980236L265.854,89.8814368460858L268.6233125,235.90570230569145L271.392625,-67.1014299350127L274.1619375,356.4262408230985L276.93125000000003,46.38650342822062L279.7005625,-73.56664357440832L282.469875,109.14345585874135L285.23918749999996,421.9286619552543L288.00849999999997,355.02902918628274L290.7778125,95.37337741681492L293.547125,192.28376788752405L296.3164375,208.45863936202852L299.08575,88.84777309639098L301.8550625,169.19426375201758L304.624375,238.45976665616024L307.3936875,447.7138776864323L310.163,158.52658099361818L312.9323125,92.20617711544024L315.70162500000004,266.88351343785L318.4709375,222.04473689198483L321.24025,212.57864811590727L324.0095625,-226.0685619499004L326.77887499999997,222.86733420831806L329.5481875,295.9264151751994L332.3175,-0.5087664084776662L335.0868125,91.69797248073971L337.856125,414.31341714092656L340.6254375,248.43004739710253L343.39475,460.0973780666078L346.1640625,223.70999487383014L348.933375,202.4009123444556L351.7026875,144.51413729361113L354.472,23.593736227069446L357.2413125,217.10814982652653L360.010625,394.0707016204084L362.7799375,-28.645607296909784L365.54925000000003,211.86900745545103L368.31856250000004,322.21221146838997L371.087875,205.32153408442213L373.8571875,104.7162772289343L376.6265,144.31831900562545L379.39581250000003,227.2018201649188L382.16512500000005,145.47537235277025L384.93443750000006,301.1735828859464L387.70375,222.54331111907948L390.47306249999997,83.29022537384698L393.242375,394.2976180996212L396.0116875,280.1570239875997L398.78099999999995,288.0234619336468L401.55031249999996,249.77489369256145L404.319625,190.30170962214459L407.0889375,178.68242221219185L409.85825,435.4537669037069L412.6275625,270.96580309527246L415.39687499999997,144.5953938577855L418.1661875,222.38641572850076L420.9355,249.89587568810998L423.7048125,251.6044705041816L426.474125,127.71810452852918L429.24343749999997,219.14598420262325L432.01275,-56.976862038885L434.7820625,154.94447063122465L437.551375,317.45639517903317L440.3206875,217.95522442885792L443.09000000000003,148.4874829649924L445.8593125,321.2281041911669L448.628625,285.54202690720547L451.3979375,147.42091532264425L454.16725,125.27077719569193L456.93656250000004,287.8318569489887L459.70587500000005,281.30003299031927L462.4751875,82.6327494212558L465.2445,67.98389628529536L468.01381250000003,154.87786031195085L470.78312500000004,494.098134019545L473.55243750000005,277.5642373732157L476.32174999999995,214.83938630138113L479.09106249999996,279.99330705830016L481.860375,423.2183340404714L484.6296875,344.20083963445245L487.39899999999994,412.3758995107241L490.16831249999996,61.67457486901948L492.93762499999997,271.7051375125135L495.7069375,247.6883053779601L498.47625,381.3553534448146L501.2455625,394.0239540168216L504.01487499999996,165.88240670306328L506.7841875,244.88565613116523L509.5535,205.04124909639347L512.3228124999999,207.24580990416652L515.092125,176.69334177459976L517.8614375,343.0337546127182L520.63075,44.741108162062375L523.4000625,-20.27798688837478L526.1693750000001,128.90705860086834L528.9386875,209.42729786038387L531.708,120.6285194626875L534.4773125,-157.7815485852107L537.246625,23.84011415498583L540.0159375000001,310.8236525739941L542.78525,315.8625627202646L545.5545625,350.5978378866399L548.323875,303.5328321158885L551.0931875,228.2174269003526L553.8625000000001,228.8945649351391L556.6318125,209.73687533821365L559.401125,196.07734595026275L562.1704375,236.08827878321907L564.93975,178.30141921128532L567.7090625,214.86506738833006L570.4783749999999,127.97952996832969L573.2476875,132.3832344795975L576.0169999999999,291.51287962283396L578.7863125,-100.12871218579176L581.555625,173.07391358273355L584.3249375,276.48703615580274L587.09425,224.31470421808092L589.8635625,310.19165707486L592.632875,-21.56023553439567L595.4021875,-31.245215450014566L598.1715,67.17092937656795L600.9408125,171.08242554324L603.710125,281.18828013539303L606.4794375,432.6204207326683L609.24875,109.09430065325314L612.0180625,445.83354060138964L614.787375,233.39577732341616L617.5566875000001,210.5347947350569L620.326,29.633004963397855L623.0953125,-25.871849272932504L625.864625,273.4035000205039L628.6339375,287.2853313173565L631.4032500000001,40.82654810377514L634.1725625,-152.93564785804088L636.941875,182.0231704839637L639.7111875,312.51880494611595L642.4805,256.9842569530009L645.2498125000001,49.06175040772969L648.019125,180.1289896879876L650.7884375,98.63206659044525L653.5577499999999,213.03228044084128L656.3270625,133.07040418897344L659.096375,87.28664389678394L661.8656874999999,95.59166665588094L664.635,9.508863836526704L667.4043125,-60.23896198187569L670.173625,198.7323289471012L672.9429375,135.22300092237322L675.71225,230.25987584676048L678.4815625,273.76243333731367L681.250875,37.78414183429295L684.0201875,102.65557063477365L686.7895,148.0972508234636L689.5588125,-51.547117850610334L692.328125,194.14965936115797L695.0974375,264.91309191499425L697.86675,142.4038742269787L700.6360625,251.86409024255602L703.405375,212.92935545955373L706.1746875,490.1512719690799L708.944,312.0493225753306L711.7133125,300.11303424835194L714.482625,-64.84791455524328L717.2519375,440.4846517103058L720.02125,263.4368306824138L722.7905625000001,226.01126102464525L725.559875,466.35593920946116L728.3291875,223.9393189549445L731.0985000000001,132.16955981084263L733.8678125,248.17283526062954L736.6371250000001,222.66529628208696L739.4064375,446.2843640574386L742.17575,-88.31119888595188L744.9450625000001,208.80633720329817L747.714375,351.34258940815914L750.4836875000001,216.96991335068418L753.253,268.61919377531314L756.0223125000001,320.9716945886611L758.7916250000001,34.26603355578L761.5609375,408.7321946663515L764.3302500000001,364.5753713590757L767.0995625,349.51923223478445L769.8688750000001,111.65618970990168L772.6381875000001,413.1322877747671L775.4075,286.4083623247486L778.1768125000001,199.0856445261409L780.9461249999999,105.22307742919227L783.7154374999999,72.9297124913759L786.48475,288.645827025175L789.2540624999999,221.49480049099228L792.023375,223.52942473122036L794.7926874999999,234.83752959540902L797.5619999999999,-84.48170742818306L800.3313125,292.43980635489726L803.1006249999999,132.5571837169782L805.8699375,3.5454345600944235L808.63925,225.13489393251268L811.4085624999999,-67.81147186245249L816.9471874999999,478.76813017896234L819.7165,254.38484943338793L822.4858125,217.67373563987857L825.255125,293.5290455818175L828.0244375,-53.84236499667185L830.7937499999999,192.38187766500866L833.5630625,17.350222596100256L836.332375,190.74330393757126L839.1016875,266.2166077111448L841.871,355.9374976371015L844.6403124999999,350.22606402635563L847.409625,154.10762833697441L850.1789375,45.33959786806771L852.94825,262.40296629922716L855.7175625,167.24049480898026L858.4868749999999,203.423541252102L861.2561875,338.08051496744145L864.0255,305.66315853169976L866.7948125,307.22408709781496L869.564125,165.38002043962467L872.3334375000001,296.2566579026834L875.10275,35.08301313434312L877.8720625,160.7718704002243L880.641375,-10.835572864328267L883.4106875,288.9182873070239L886.1800000000001,235.88483642254545L888.9493125,95.91709417956201L891.718625,215.33796052847578L894.4879375,73.72000781553118L897.25725,417.7661189011164L900.0265625000001,189.21547989760114L902.795875,137.53470001476137L905.5651875,126.60238168069279L908.3345,92.44834174002906L911.1038125,375.62847105520103L913.8731250000001,157.82095300299767L916.6424375,348.82925365652346L919.4117500000001,490.2132677180426L924.950375,-28.388194526944996L927.7196875000001,119.7453308318341L930.489,199.75917115807522L933.2583125000001,118.19282887237398L936.0276250000001,241.6755202625478L938.7969375,263.1007695836679L941.5662500000001,234.12126802972375L944.3355625,-84.26883529339531L947.1048750000001,294.1393726638384L949.8741875000001,-22.313614296061782L952.6434999999999,146.23416821871473L955.4128125,363.2285187286989L958.1821249999999,292.4197430057184L960.9514374999999,409.13707305278086L963.72075,136.48598875318243L966.4900624999999,126.08635233981254L969.259375,110.09064657347528L972.0286874999999,160.74960008263577L974.7979999999999,109.74936900394289L977.5673125,265.8362066107136L980.3366249999999,302.19861939549435L983.1059375,367.4422233232429L985.8752499999999,175.8944192102976L988.6445625,258.0851329224449L991.413875,106.4936893326894L994.1831874999999,-138.927818728345L996.9525,256.3949963876178L999.7218124999999,334.96608127440714L1002.491125,135.5945741491657L1005.2604375,407.90999861700186L1008.0297499999999,130.9270365961959L1010.7990625,509.77663823536454L1013.568375,161.2995364836283L1016.3376875,-109.21680746333959L1019.107,123.62197116017329L1021.8763125,134.9389038980006L1024.6456249999999,301.8001612808022L1027.4149375,380.5650581206593L1030.18425,259.17336898190626L1032.9535625,276.7518723649637L1035.722875,274.0503423980303L1038.4921875,150.87642595171917L1041.2615,71.07485585979039L1044.0308125,235.19505847777626L1046.800125,-30.88146692940185L1049.5694375,-107.52667092851246L1052.3387500000001,76.41411434326837L1055.1080625,413.8702177575655L1057.877375,231.865144414561L1060.6466875,263.61238498772883L1063.416,132.3936674211705L1066.1853125,262.57410666772284L1068.954625,214.10847849079525L1071.7239375,393.8692655946526L1074.49325,241.08124385986997L1077.2625625,276.615842857531L1080.0318750000001,402.3935807602745L1082.8011875,489.6093609077589L1085.5705,297.4949678140026L1088.3398125,456.9159327873161L1091.109125,345.2563724347522L1093.8784375,32.537776657513064L1096.64775,182.68305403845636L1099.4170625000002,170.58184498122748L1102.186375,354.9557979617799L1104.9556875,282.4675192790371L1107.7250000000001,451.0843197149889L1110.4943125,7.043479489428495L1113.263625,341.9914636228765L1116.0329375000001,313.256133028439L1118.80225,191.64093817983343L1121.5715625,364.2054032002176L1124.340875,267.0997963419981L1127.1101875,372.28431201406875L1129.8795,272.6400895842483L1132.6488124999998,456.18843574609065L1135.418125,32.46554860046918L1138.1874375,417.8578084068638L1140.9567499999998,359.18475070169984L1143.7260625,91.28386495368807L1146.495375,305.0301598651067L1149.2646875,357.35497325658787L1152.0339999999999,137.92613595724094L1154.8033125,328.22339151586795L1157.572625,452.41130962967867L1160.3419374999999,42.0124926737375L1163.11125,177.11427084037226L1165.8805625,413.56625801750585L1168.649875,256.2431168343338L1171.4191875,216.61218383482512L1174.1885,429.7569795378616L1176.9578125,99.55096798283698L1179.727125,308.08079210775225L1182.4964375,127.61417637978269L1185.26575,382.2750573711735L1188.0350624999999,285.17687395215023L1190.804375,174.38204394919518L1193.5736875,-70.57961214865969L1196.343,187.64472029038828L1199.1123125,53.44599347029397L1201.881625,254.77407840745775L1204.6509375,205.73945364781773L1207.42025,180.25037295051973L1210.1895625,165.7786791878086L1212.958875,296.74018461789393L1215.7281875,292.764631978103L1218.4975,24.489364134413695L1221.2668125,472.8610789137226L1224.036125,99.01808542864649L1226.8054375,571.5496840221541L1229.57475,30.695359302418442L1232.3440625,591.9424733945301L1235.1133750000001,79.43244459373595L1237.8826875,336.98987130607867L1240.652,-21.045610627957895L1243.4213125,296.6416735734257L1246.190625,310.00266032559523" style="fill: none;" fill="none"></path></g></g></g></g></g></g><g transform="translate(72, 377)" clip-path="url(#clip_1)"><clipPath id="clip_1"><rect width="1384" height="23"></rect></clipPath><g><g><line x1="0" y1="0" x2="0" y2="5" style="visibility: inherit;" fill="rgb(0, 0, 0)" stroke="rgb(204, 204, 204)" stroke-width="1px"></line><line x1="138.46562500000002" y1="0" x2="138.46562500000002" y2="5" style="visibility: inherit;" fill="rgb(0, 0, 0)" stroke="rgb(204, 204, 204)" stroke-width="1px"></line><line x1="276.93125000000003" y1="0" x2="276.93125000000003" y2="5" style="visibility: inherit;" fill="rgb(0, 0, 0)" stroke="rgb(204, 204, 204)" stroke-width="1px"></line><line x1="415.39687499999997" y1="0" x2="415.39687499999997" y2="5" style="visibility: inherit;" fill="rgb(0, 0, 0)" stroke="rgb(204, 204, 204)" stroke-width="1px"></line><line x1="553.8625000000001" y1="0" x2="553.8625000000001" y2="5" style="visibility: inherit;" fill="rgb(0, 0, 0)" stroke="rgb(204, 204, 204)" stroke-width="1px"></line><line x1="692.328125" y1="0" x2="692.328125" y2="5" style="visibility: inherit;" fill="rgb(0, 0, 0)" stroke="rgb(204, 204, 204)" stroke-width="1px"></line><line x1="830.7937499999999" y1="0" x2="830.7937499999999" y2="5" style="visibility: inherit;" fill="rgb(0, 0, 0)" stroke="rgb(204, 204, 204)" stroke-width="1px"></line><line x1="969.259375" y1="0" x2="969.259375" y2="5" style="visibility: inherit;" fill="rgb(0, 0, 0)" stroke="rgb(204, 204, 204)" stroke-width="1px"></line><line x1="1107.7250000000001" y1="0" x2="1107.7250000000001" y2="5" style="visibility: inherit;" fill="rgb(0, 0, 0)" stroke="rgb(204, 204, 204)" stroke-width="1px"></line><line x1="1246.190625" y1="0" x2="1246.190625" y2="5" style="visibility: inherit;" fill="rgb(0, 0, 0)" stroke="rgb(204, 204, 204)" stroke-width="1px"></line><line x1="1384.65625" y1="0" x2="1384.65625" y2="5" style="visibility: inherit;" fill="rgb(0, 0, 0)" stroke="rgb(204, 204, 204)" stroke-width="1px"></line></g><g transform="translate(0, 8)"><text x="0" y="0" dx="0em" dy="0.95em" style="text-anchor: middle; visibility: hidden; font-family: Roboto, sans-serif; font-size: 12px; font-weight: 200;" fill="rgb(33, 33, 33)" stroke="none" stroke-width="1px">-50</text><text x="138.46562500000002" y="0" dx="0em" dy="0.95em" style="text-anchor: middle; visibility: inherit; font-family: Roboto, sans-serif; font-size: 12px; font-weight: 200;" fill="rgb(33, 33, 33)" stroke="none" stroke-width="1px">0</text><text x="276.93125000000003" y="0" dx="0em" dy="0.95em" style="text-anchor: middle; visibility: inherit; font-family: Roboto, sans-serif; font-size: 12px; font-weight: 200;" fill="rgb(33, 33, 33)" stroke="none" stroke-width="1px">50</text><text x="415.39687499999997" y="0" dx="0em" dy="0.95em" style="text-anchor: middle; visibility: inherit; font-family: Roboto, sans-serif; font-size: 12px; font-weight: 200;" fill="rgb(33, 33, 33)" stroke="none" stroke-width="1px">100</text><text x="553.8625000000001" y="0" dx="0em" dy="0.95em" style="text-anchor: middle; visibility: inherit; font-family: Roboto, sans-serif; font-size: 12px; font-weight: 200;" fill="rgb(33, 33, 33)" stroke="none" stroke-width="1px">150</text><text x="692.328125" y="0" dx="0em" dy="0.95em" style="text-anchor: middle; visibility: inherit; font-family: Roboto, sans-serif; font-size: 12px; font-weight: 200;" fill="rgb(33, 33, 33)" stroke="none" stroke-width="1px">200</text><text x="830.7937499999999" y="0" dx="0em" dy="0.95em" style="text-anchor: middle; visibility: inherit; font-family: Roboto, sans-serif; font-size: 12px; font-weight: 200;" fill="rgb(33, 33, 33)" stroke="none" stroke-width="1px">250</text><text x="969.259375" y="0" dx="0em" dy="0.95em" style="text-anchor: middle; visibility: inherit; font-family: Roboto, sans-serif; font-size: 12px; font-weight: 200;" fill="rgb(33, 33, 33)" stroke="none" stroke-width="1px">300</text><text x="1107.7250000000001" y="0" dx="0em" dy="0.95em" style="text-anchor: middle; visibility: inherit; font-family: Roboto, sans-serif; font-size: 12px; font-weight: 200;" fill="rgb(33, 33, 33)" stroke="none" stroke-width="1px">350</text><text x="1246.190625" y="0" dx="0em" dy="0.95em" style="text-anchor: middle; visibility: inherit; font-family: Roboto, sans-serif; font-size: 12px; font-weight: 200;" fill="rgb(33, 33, 33)" stroke="none" stroke-width="1px">400</text><text x="1384.65625" y="0" dx="0em" dy="0.95em" style="text-anchor: middle; visibility: hidden; font-family: Roboto, sans-serif; font-size: 12px; font-weight: 200;" fill="rgb(33, 33, 33)" stroke="none" stroke-width="1px">450</text></g><line x1="0" y1="0" x2="1384.65625" y2="0" fill="rgb(0, 0, 0)" stroke="rgb(204, 204, 204)" stroke-width="1px"></line></g></g></g></g></svg>