<svg viewBox="0 0 1457 400" xmlns="http://www.w3.org/2000/svg"><g><g><g><g><g><line x1="72.34375" y1="377" x2="67.34375" y2="377" style="visibility: inherit;" fill="rgb(0, 0, 0)" stroke="rgb(204, 204, 204)" stroke-width="1px"></line><line x1="72.34375" y1="323.14285714285717" x2="67.34375" y2="323.14285714285717" style="visibility: inherit;" fill="rgb(0, 0, 0)" stroke="rgb(204, 204, 204)" stroke-width="1px"></line><line x1="72.34375" y1="269.2857142857143" x2="67.34375" y2="269.2857142857143" style="visibility: inherit;" fill="rgb(0, 0, 0)" stroke="rgb(204, 204, 204)" stroke-width="1px"></line><line x1="72.34375" y1="215.42857142857142" x2="67.34375" y2="215.42857142857142" style="visibility: inherit;" fill="rgb(0, 0, 0)" stroke="rgb(204, 204, 204)" stroke-width="1px"></line><line x1="72.34375" y1="161.57142857142858" x2="67.34375" y2="161.57142857142858" style="visibility: inherit;" fill="rgb(0, 0, 0)" stroke="rgb(204, 204, 204)" stroke-width="1px"></line><line x1="72.34375" y1="107.71428571428571" x2="67.34375" y2="107.71428571428571" style="visibility: inherit;" fill="rgb(0, 0, 0)" stroke="rgb(204, 204, 204)" stroke-width="1px"></line><line x1="72.34375" y1="53.857142857142875" x2="67.34375" y2="53.857142857142875" style="visibility: inherit;" fill="rgb(0, 0, 0)" stroke="rgb(204, 204, 204)" stroke-width="1px"></line><line x1="72.34375" y1="0" x2="67.34375" y2="0" style="visibility: inherit;" fill="rgb(0, 0, 0)" stroke="rgb(204, 204, 204)" stroke-width="1px"></line></g><g transform="translate(62.34375, 0)"><text x="0" y="377" dx="0em" dy="0.3em" style="text-anchor: end; visibility: hidden; font-family: Roboto, sans-serif; font-size: 12px; font-weight: 200;" fill="rgb(33, 33, 33)" stroke="none" stroke-width="1px">0.0255</text><text x="0" y="323.14285714285717" dx="0em" dy="0.3em" style="text-anchor: end; visibility: inherit; font-family: Roboto, sans-serif; font-size: 12px; font-weight: 200;" fill="rgb(33, 33, 33)" stroke="none" stroke-width="1px">0.026</text><text x="0" y="269.2857142857143" dx="0em" dy="0.3em" style="text-anchor: end; visibility: inherit; font-family: Roboto, sans-serif; font-size: 12px; font-weight: 200;" fill="rgb(33, 33, 33)" stroke="none" stroke-width="1px">0.0265</text><text x="0" y="215.42857142857142" dx="0em" dy="0.3em" style="text-anchor: end; visibility: inherit; font-family: Roboto, sans-serif; font-size: 12px; font-weight: 200;" fill="rgb(33, 33, 33)" stroke="none" stroke-width="1px">0.027</text><text x="0" y="161.57142857142858" dx="0em" dy="0.3em" style="text-anchor: end; visibility: inherit; font-family: Roboto, sans-serif; font-size: 12px; font-weight: 200;" fill="rgb(33, 33, 33)" stroke="none" stroke-width="1px">0.0275</text><text x="0" y="107.71428571428571" dx="0em" dy="0.3em" style="text-anchor: end; visibility: inherit; font-family: Roboto, sans-serif; font-size: 12px; font-weight: 200;" fill="rgb(33, 33, 33)" stroke="none" stroke-width="1px">0.028</text><text x="0" y="53.857142857142875" dx="0em" dy="0.3em" style="text-anchor: end; visibility: inherit; font-family: Roboto, sans-serif; font-size: 12px; font-weight: 200;" fill="rgb(33, 33, 33)" stroke="none" stroke-width="1px">0.0285</text><text x="0" y="0" dx="0em" dy="0.3em" style="text-anchor: end; visibility: hidden; font-family: Roboto, sans-serif; font-size: 12px; font-weight: 200;" fill="rgb(33, 33, 33)" stroke="none" stroke-width="1px">0.029</text></g><line x1="72.34375" y1="0" x2="72.34375" y2="377" fill="rgb(0, 0, 0)" stroke="rgb(204, 204, 204)" stroke-width="1px"></line></g></g><g transform="translate(72, 0)" clip-path="url(#clip_0)"><clipPath id="clip_0"><rect width="1384" height="377"></rect></clipPath><g><g><g><line x1="0" y1="0" x2="0" y2="377" fill="rgb(0, 0, 0)" stroke="rgb(66, 66, 66)" stroke-width="1px" opacity="0.25"></line><line x1="138.46562500000002" y1="0" x2="138.46562500000002" y2="377" fill="rgb(0, 0, 0)" stroke="rgb(66, 66, 66)" stroke-width="1px" opacity="0.25"></line><line x1="276.93125000000003" y1="0" x2="276.93125000000003" y2="377" fill="rgb(0, 0, 0)" stroke="rgb(66, 66, 66)" stroke-width="1px" opacity="0.25"></line><line x1="415.39687499999997" y1="0" x2="415.39687499999997" y2="377" fill="rgb(0, 0, 0)" stroke="rgb(66, 66, 66)" stroke-width="1px" opacity="0.25"></line><line x1="553.8625000000001" y1="0" x2="553.8625000000001" y2="377" fill="rgb(0, 0, 0)" stroke="rgb(66, 66, 66)" stroke-width="1px" opacity="0.25"></line><line x1="692.328125" y1="0" x2="692.328125" y2="377" fill="rgb(0, 0, 0)" stroke="rgb(66, 66, 66)" stroke-width="1px" opacity="0.25"></line><line x1="830.7937499999999" y1="0" x2="830.7937499999999" y2="377" fill="rgb(0, 0, 0)" stroke="rgb(66, 66, 66)" stroke-width="1px" opacity="0.25"></line><line x1="969.259375" y1="0" x2="969.259375" y2="377" fill="rgb(0, 0, 0)" stroke="rgb(66, 66, 66)" stroke-width="1px" opacity="0.25"></line><line x1="1107.7250000000001" y1="0" x2="1107.7250000000001" y2="377" fill="rgb(0, 0, 0)" stroke="rgb(66, 66, 66)" stroke-width="1px" opacity="0.25"></line><line x1="1246.190625" y1="0" x2="1246.190625" y2="377" fill="rgb(0, 0, 0)" stroke="rgb(66, 66, 66)" stroke-width="1px" opacity="0.25"></line><line x1="1384.65625" y1="0" x2="1384.65625" y2="377" fill="rgb(0, 0, 0)" stroke="rgb(66, 66, 66)" stroke-width="1px" opacity="0.25"></line></g><g><line x1="0" y1="377" x2="1384.65625" y2="377" fill="rgb(0, 0, 0)" stroke="rgb(66, 66, 66)" stroke-width="1px" opacity="0.25"></line><line x1="0" y1="323.14285714285717" x2="1384.65625" y2="323.14285714285717" fill="rgb(0, 0, 0)" stroke="rgb(66, 66, 66)" stroke-width="1px" opacity="0.25"></line><line x1="0" y1="269.2857142857143" x2="1384.65625" y2="269.2857142857143" fill="rgb(0, 0, 0)" stroke="rgb(66, 66, 66)" stroke-width="1px" opacity="0.25"></line><line x1="0" y1="215.42857142857142" x2="1384.65625" y2="215.42857142857142" fill="rgb(0, 0, 0)" stroke="rgb(66, 66, 66)" stroke-width="1px" opacity="0.25"></line><line x1="0" y1="161.57142857142858" x2="1384.65625" y2="161.57142857142858" fill="rgb(0, 0, 0)" stroke="rgb(66, 66, 66)" stroke-width="1px" opacity="0.25"></line><line x1="0" y1="107.71428571428571" x2="1384.65625" y2="107.71428571428571" fill="rgb(0, 0, 0)" stroke="rgb(66, 66, 66)" stroke-width="1px" opacity="0.25"></line><line x1="0" y1="53.857142857142875" x2="1384.65625" y2="53.857142857142875" fill="rgb(0, 0, 0)" stroke="rgb(66, 66, 66)" stroke-width="1px" opacity="0.25"></line><line x1="0" y1="0" x2="1384.65625" y2="0" fill="rgb(0, 0, 0)" stroke="rgb(66, 66, 66)" stroke-width="1px" opacity="0.25"></line></g></g></g><g><g><line x1="0" y1="3123.7142857142826" x2="1384.65625" y2="3123.7142857142826" fill="rgb(0, 0, 0)" stroke="rgb(153, 153, 153)" stroke-width="1.5px"></line></g></g><g><g><line x1="138.46562500000002" y1="0" x2="138.46562500000002" y2="377" fill="rgb(0, 0, 0)" stroke="rgb(153, 153, 153)" stroke-width="1.5px"></line></g></g><g><g><g><g><g><path stroke="rgb(255, 112, 67)" stroke-width="2px" d="M141.2349375,-124.798155312027L144.00424999999998,183.00925135155254L146.7735625,175.4532915494191L149.542875,160.99473040311756L152.3121875,311.4850865071338L155.0815,410.2686935281496L202.1598125,386.1501639186752L204.929125,371.5228599733349L207.69843749999998,363.7891915064446L210.46775,349.6597549602592L213.2370625,327.9126474664699L216.006375,317.52849191643253L218.7756875,315.25654960738643L221.54500000000002,299.8099438336397L224.3143125,286.46001354100946L227.083625,278.17505620012975L229.85293750000002,267.2238138063479L232.62225,273.37708626667614L235.39156250000002,278.80161610950717L238.16087499999998,278.6095347481755L240.9301875,272.7491102208536L243.69949999999997,276.93981056510523L246.46881249999998,288.8920947586341L249.238125,291.22935604193736L252.00743749999998,295.5811072358358L254.77675,295.74041970311384L257.5460625,281.140992898228L260.315375,261.2459359268336L263.08468750000003,261.78980754453465L265.854,266.27937647689276L268.6233125,261.56758525666356L271.392625,260.38920771075806L274.1619375,250.59457896724476L276.93125000000003,258.81717846062935L279.7005625,270.3082625839198L282.469875,272.61273984062433L285.23918749999996,254.5148057278997L288.00849999999997,239.71630218032692L290.7778125,245.6527970845265L293.547125,243.84910195365651L296.3164375,242.32256624853042L299.08575,241.9710688319695L301.8550625,243.08177510519715L304.624375,238.26826167177757L307.3936875,222.57833229393117L310.163,221.87094676349483L312.9323125,224.33545148655958L315.70162500000004,218.76780284393254L318.4709375,215.03213612743653L321.24025,211.62060806537625L324.0095625,214.67164473001628L326.77887499999997,208.84880255622204L329.5481875,205.48958835819167L332.3175,211.12521926453203L335.0868125,217.82849476648067L337.856125,209.54268174172668L340.6254375,205.61774948508048L343.39475,192.3853555726326L346.1640625,186.34724175700674L348.933375,187.7241426029444L351.7026875,188.4565824623905L354.472,190.60400459227782L357.2413125,193.10015677588652L360.010625,181.83129973891195L362.7799375,185.92681445610944L365.54925000000003,184.5559485352454L368.31856250000004,179.30192076137834L371.087875,179.03169154915565L373.8571875,176.40736527969355L376.6265,178.40471341075187L379.39581250000003,178.42084202861005L382.16512500000005,179.55320756353586L384.93443750000006,174.71742821188764L387.70375,175.25080133181802L390.47306249999997,176.45818509238092L393.242375,169.92458356050014L396.0116875,167.58376837214522L398.78099999999995,165.34360209800371L401.55031249999996,161.27414463559467L404.319625,162.3575564384549L407.0889375,163.1282120135136L409.85825,153.244120204254L412.6275625,150.99521091023283L415.39687499999997,152.44556224746407L418.1661875,153.12764795449817L420.9355,151.27558838157756L423.7048125,148.9965546797191L426.474125,151.52697260687236L429.24343749999997,151.88280906949294L432.01275,156.27185803545322L434.7820625,158.43777295470676L437.551375,152.20282187314905L440.3206875,150.0365799212032L443.09000000000003,152.9269416623323L445.8593125,150.02641967875525L448.628625,146.2896656524329L451.3979375,148.5018694040601L454.16725,150.984643661445L456.93656250000004,149.83275374975386L459.70587500000005,147.880042520144L462.4751875,150.19670076191835L465.2445,152.50781166744503L468.01381250000003,154.0373033390678L470.78312500000004,144.45962479611535L473.55243750000005,145.46380149939256L476.32174999999995,144.0639077838476L479.09106249999996,141.55287667082462L481.860375,133.83659494058853L484.6296875,129.21658551016375L487.39899999999994,121.82084338925546L490.16831249999996,124.50115662604235L492.93762499999997,122.10356079331783L495.7069375,121.01725884700772L498.47625,115.35308741886016L501.2455625,110.09474358697928L504.01487499999996,111.53256697469533L506.7841875,112.05825622784968L509.5535,110.75922833221574L512.3228124999999,111.98839017783618L515.092125,111.18959791682013L517.8614375,108.27907179182048L520.63075,111.83057524432184L523.4000625,115.08874790903076L526.1693750000001,116.17234574501528L528.9386875,116.5934224253634L531.708,117.91169915945186L534.4773125,118.44722389971572L537.246625,120.91031947363525L540.0159375000001,117.03455494662882L542.78525,115.51563594105379L545.5545625,112.01349300367839L548.323875,110.79440736490236L551.0931875,109.87705484448837L553.8625000000001,108.89867624535995L556.6318125,109.22255682742195L559.401125,108.29339437112327L562.1704375,108.12244273211326L564.93975,107.68681126793894L567.7090625,108.62685939050655L570.4783749999999,110.54382923759297L573.2476875,111.38911862566589L576.0169999999999,110.23226416786292L578.7863125,111.04054193314929L581.555625,111.11225183955023L584.3249375,109.61320518805196L587.09425,108.37874660826235L589.8635625,107.60081629837535L592.632875,110.52631832112463L595.4021875,114.7525259715719L598.1715,117.45009207946536L600.9408125,118.54109034873811L603.710125,115.81669278196678L606.4794375,110.23189144071766L609.24875,110.84934601011811L612.0180625,105.29767435530624L614.787375,104.34200213887756L617.5566875000001,105.6385658536934L620.326,108.21535319553257L623.0953125,110.90344264650665L625.864625,108.69532425015008L628.6339375,106.93070463101645L631.4032500000001,107.72298706133918L634.1725625,111.22893651716784L636.941875,111.10441090331453L639.7111875,109.17418371564794L642.4805,107.29262422071248L645.2498125000001,107.93020157424544L648.019125,107.72293619103829L650.7884375,109.29030539055793L653.5577499999999,109.93928083156294L656.3270625,111.22112224381551L659.096375,113.44295145446273L661.8656874999999,115.33273518510505L664.635,117.25734323602754L667.4043125,119.35503185107896L670.173625,119.78154242174911L672.9429375,120.9702213177401L675.71225,121.22822733366387L678.4815625,119.63068475042589L681.250875,121.16572545759409L684.0201875,122.55619057889346L686.7895,121.74898660242798L689.5588125,124.74884477959561L692.328125,124.35270452252507L695.0974375,123.4216726941851L697.86675,123.35234045844459L700.6360625,122.34060148846875L703.405375,122.22098360731124L706.1746875,116.75979992463152L708.944,114.56579434391772L711.7133125,113.76688485921228L714.482625,117.39288409844404L717.2519375,112.98751821779412L720.02125,110.93717945370838L722.7905625000001,110.61702951415589L725.559875,106.51721158456925L728.3291875,106.1598920225662L731.0985000000001,106.45198665301449L733.8678125,106.5430872466198L736.6371250000001,105.34853348372872L739.4064375,100.9585074522654L742.17575,103.67580443123924L744.9450625000001,104.28010342526146L747.714375,101.31966353038717L750.4836875000001,100.23966454245165L753.253,98.99468615374252L756.0223125000001,98.37150189102368L758.7916250000001,99.29049422557462L761.5609375,96.0150147715227L764.3302500000001,93.82172804392435L767.0995625,91.56950762641524L769.8688750000001,93.16450792577L772.6381875000001,89.28971304974327L775.4075,88.1973845992891L778.1768125000001,88.09434842291068L780.9461249999999,89.10543958837627L783.7154374999999,91.26129847877874L786.48475,89.45490709093175L789.2540624999999,89.59821626916401L792.023375,89.0409224615009L794.7926874999999,88.5987604042036L797.5619999999999,90.91627083050167L800.3313125,89.67722403573785L803.1006249999999,91.10836142722992L805.8699375,92.70030526173333L808.63925,91.89657507798624L811.4085624999999,92.6488353966069L814.177875,94.24418035013576L816.9471874999999,90.00230991996469L819.7165,89.57497477345785L822.4858125,88.95066133260984L825.255125,87.87354570508532L828.0244375,90.391993577218L830.7937499999999,90.18475997748516L833.5630625,91.059924926291L836.332375,90.98055716185422L839.1016875,90.84717466082458L841.871,88.09024323897795L844.6403124999999,86.12246608902703L847.409625,86.32806271711776L850.1789375,88.81291277083984L852.94825,88.67619895828142L855.7175625,89.22299607802114L858.4868749999999,89.67950142476572L861.2561875,87.30359366191989L864.0255,86.05207692347196L866.7948125,82.92538480822526L869.564125,83.75836638399613L872.3334375000001,82.80025980660193L875.10275,85.64496781826222L877.8720625,86.47590438954353L880.641375,87.75097998983861L883.4106875,86.63752072704783L886.1800000000001,85.9066839211182L888.9493125,87.51691375271682L891.718625,87.11100280637608L894.4879375,88.6932309609691L897.25725,86.17886956217714L900.0265625000001,87.63643591856173L902.795875,88.26979631100474L905.5651875,88.82013176714678L908.3345,89.62915964908387L911.1038125,87.31003674226659L913.8731250000001,87.5419019426707L916.6424375,85.52773995703697L919.4117500000001,81.51691673967375L922.1810625,79.24857260372603L924.950375,79.81998692536737L927.7196875000001,81.08287884289015L930.489,80.10336503610387L933.2583125000001,81.26605076881769L936.0276250000001,81.23722129713197L938.7969375,80.35188874751172L941.5662500000001,80.7294094887746L944.3355625,82.9809825284381L947.1048750000001,82.02856441732352L949.8741875000001,84.53722407120759L952.6434999999999,86.17351205107724L955.4128125,83.8931480884183L958.1821249999999,82.76856369844481L960.9514374999999,79.54125479359335L963.72075,80.69587425679792L966.4900624999999,81.11537236386472L969.259375,82.1353510431551L972.0286874999999,81.8380818758278L974.7979999999999,82.5130679612532L977.5673125,82.40622630585797L980.3366249999999,81.12982005798888L983.1059375,78.36271336421963L985.8752499999999,79.48692109170898L988.6445625,78.53523210323505L991.413875,79.35729881881335L994.1831874999999,82.13813649152182L996.9525,82.14200332707448L999.7218124999999,80.56312597206684L1002.491125,81.50367143456081L1005.2604375,79.17753041131921L1008.0297499999999,80.7601256603424L1010.7990625,76.86086216707511L1013.568375,78.188981202073L1016.3376875,80.10797763369376L1019.107,80.88294504195879L1021.8763125,81.92723581308982L1024.6456249999999,81.04001232475954L1027.4149375,78.9915033607943L1030.18425,78.04332410735691L1032.9535625,77.5595371961555L1035.722875,76.77474295875675L1038.4921875,77.3915298851622L1041.2615,78.01730776610867L1044.0308125,77.80002504133219L1046.800125,80.37183734080057L1049.5694375,81.55694556119761L1052.3387500000001,82.54749150000036L1055.1080625,80.18179593324318L1057.877375,79.61593291736706L1060.6466875,79.55290805520629L1063.416,78.81118393948593L1066.1853125,78.67103428223915L1068.954625,78.53812306579452L1071.7239375,76.89231592434162L1074.49325,76.54080320551378L1077.2625625,75.12021944302913L1080.0318750000001,73.07201480835255L1082.8011875,70.25676420788228L1085.5705,70.00698076818213L1088.3398125,67.02503973858622L1091.109125,65.34786468821382L1093.8784375,67.37150176870597L1096.64775,67.90341234374404L1099.4170625000002,67.83334895594963L1102.186375,66.14268648900126L1104.9556875,65.58411102953745L1107.7250000000001,62.85298513629607L1110.4943125,64.3996467512067L1113.263625,62.5394067738645L1116.0329375000001,61.89319411327818L1118.80225,61.704127051698975L1121.5715625,59.821132004686554L1124.340875,59.060173865250235L1127.1101875,57.4983330224211L1129.8795,57.6822817594522L1132.6488124999998,55.13034702495543L1135.418125,56.954440250257306L1138.1874375,54.54142052600914L1140.9567499999998,53.41846283760842L1143.7260625,54.42686059471325L1146.495375,53.62909525618214L1149.2646875,51.98378162987061L1152.0339999999999,52.91314737685574L1154.8033125,52.11269947463509L1157.572625,49.83530865440723L1160.3419374999999,50.6163188692055L1163.11125,51.15467955602449L1165.8805625,49.042995339539445L1168.649875,48.51659234638866L1171.4191875,48.471720790672855L1174.1885,45.993213275077196L1176.9578125,47.225846194541035L1179.727125,46.35571257124695L1182.4964375,47.95375374793587L1185.26575,46.771247935837486L1188.0350624999999,45.10023341569392L1190.804375,46.200581894292114L1193.5736875,47.181897440408775L1196.343,47.227495946395216L1199.1123125,49.098440831497264L1201.881625,48.68722154372483L1204.6509375,48.63005223318366L1207.42025,49.743572364645566L1210.1895625,50.04773816273271L1212.958875,49.621196473023375L1215.7281875,49.03154115504176L1218.4975,51.35862149862957L1221.2668125,48.49985223571533L1224.036125,49.58603033048399L1226.8054375,46.39791923366532L1229.57475,48.35428324302684L1232.3440625,44.21315029649575L1235.1133750000001,44.869259598616594L1237.8826875,43.7182144190288L1240.652,44.39455507334272L1243.4213125,44.208941075946846L1246.190625,43.21545334464468" style="fill: none;" fill="none"></path></g></g></g></g><g opacity="0.2"><g><g><g><path stroke="rgb(255, 112, 67)" stroke-width="2px" d="M144.00424999999998,490.50885060855296L146.7735625,160.36403226852417L149.542875,117.70574051141743L152.3121875,911.9431115133416L177.236,816.7084119660508L180.0053125,165.53014404858862L182.77462500000001,-105.87179613113378L196.6211875,568.284824967384L199.39049999999997,193.55703778352057L202.1598125,552.6637019302161L204.929125,39.10255426594203L207.69843749999998,180.48355882508415L210.46775,0.9793819572245867L213.2370625,-229.94214301875624L216.006375,41.04769596883243L218.7756875,252.55632554633272L221.54500000000002,-141.48464219059233L224.3143125,-107.88976779154342L227.083625,25.409920351846008L229.85293750000002,-77.49299125160468L235.39156250000002,460.0432567809307L238.16087499999998,272.0063381407941L240.9301875,65.6317189846721L243.69949999999997,429.0847064639839L252.00743749999998,466.12867122037045L254.77675,302.1368740371294L257.5460625,-319.0300342781199L260.315375,-575.6816007750369L263.08468750000003,285.1893629857471L265.854,463.73069972651325L268.6233125,49.84306698186067L271.392625,206.31451899238994L274.1619375,-208.20751685329813L290.7778125,557.5615667317592L293.547125,147.3742174761636L296.3164375,159.22884797198432L299.08575,222.50604304671285L301.8550625,305.63792846884036L304.624375,-37.371509364672875L307.3936875,-690.66144478321L310.163,180.03173220157623L312.9323125,372.4179836767059L315.70162500000004,-120.99815697755102L346.1640625,-244.11790238107915L348.933375,287.1625933774879L351.7026875,242.03149383408677L354.472,349.6671488753385L357.2413125,380.30308053748934L362.7799375,500.6412432108604L365.54925000000003,77.94941157954091L368.31856250000004,-234.1221411866797L371.087875,157.5194506219455L373.8571875,-34.92117252945883L376.6265,341.0792328928197L379.39581250000003,179.74924024513788L382.16512500000005,273.85597830159315L384.93443750000006,-232.43180401836085L387.70375,220.6461705778326L390.47306249999997,280.3219944749559L393.242375,-398.0860503145621L401.55031249999996,-203.63528020892787L404.319625,260.49258394752223L407.0889375,233.63397903527527L409.85825,-760.0019846132816L412.6275625,-58.83287271431496L415.39687499999997,289.0800476585115L418.1661875,218.0026236900261L420.9355,-26.552749586956626L426.474125,399.05649364846073L429.24343749999997,187.01197201439314L432.01275,593.522311265979L434.7820625,376.16080146602206L437.551375,-480.15156872783325L454.16725,416.12739429729305L456.93656250000004,25.791324619736127L459.70587500000005,-64.13842477117245L465.2445,407.5537232926912L468.01381250000003,324.1856922507285L470.78312500000004,-929.5124066216596L473.55243750000005,258.9555307669298L476.32174999999995,-15.391909705740861L501.2455625,-530.5803956219123L504.01487499999996,287.97776725462495L506.7841875,177.02985389743532L509.5535,-50.9289163053034L512.3228124999999,266.05534814085274L515.092125,10.368628105947092L517.8614375,-261.61835933583086L523.4000625,534.8472472258974L526.1693750000001,256.71786543301164L528.9386875,171.57422798871994L531.708,291.1864986887999L534.4773125,189.30140078919274L537.246625,448.9321740056785L553.8625000000001,-26.46647718548758L556.6318125,154.3123242557049L559.401125,-21.860935381480434L562.1704375,84.02920828121056L564.93975,45.91687018104976L567.7090625,242.72588634916707L570.4783749999999,385.64354282191806L573.2476875,233.41769613112717L576.0169999999999,-57.763496203081736L578.7863125,229.1068849265575L581.555625,121.64818862506327L584.3249375,-111.91066360047859L598.1715,527.5451912922515L600.9408125,285.3231855247701L603.710125,-302.9701257944103L606.4794375,-752.9689781921243L609.24875,206.80607104727198L612.0180625,-762.153979446206L614.787375,-45.78768307822069L617.5566875000001,310.4116011389663L620.326,517.3479940720964L628.6339375,-177.6925671866959L631.4032500000001,236.17740981067925L634.1725625,682.5899385426721L636.941875,90.70649152142667L639.7111875,-208.61881551146473L642.4805,-204.0576137091429L645.2498125000001,213.96447340079715L648.019125,73.08043800081533L650.7884375,372.5654492931705L653.5577499999999,219.4887159637042L656.3270625,328.66483495490877L659.096375,492.1831370975287L667.4043125,482.1426346344605L670.173625,193.897312185594L672.9429375,328.51074843321516L675.71225,166.48816897187913L678.4815625,-161.92919500384983L681.250875,392.9728849104471L684.0201875,369.9064536264963L686.7895,-22.507577125515102L689.5588125,663.3184897559025L692.328125,52.90834546940678L695.0974375,-45.25319545609591L697.86675,110.73472983922285L700.6360625,-62.609998830726944L703.405375,100.25664573056363L706.1746875,-890.4803645951398L720.02125,-275.5535591414993L722.7905625000001,50.00899087956985L725.559875,-672.9447049243103L728.3291875,37.936873678650315L731.0985000000001,162.45764275533813L733.8678125,124.08407984886856L736.6371250000001,-125.6205519948684L742.17575,633.4461691634991L744.9450625000001,222.58148123962536L747.714375,-480.61262449196346L756.0223125000001,-25.626224121876934L758.7916250000001,282.88167656319473L761.5609375,-560.9599176815572L775.4075,-135.24694693088506L778.1768125000001,66.93563604780616L780.9461249999999,297.53775250485955L783.7154374999999,537.3920824357439L786.48475,-285.7882748246189L789.2540624999999,119.48134691374649L792.023375,-27.607680486781053L808.63925,-80.13292673655894L811.4085624999999,254.25228045242167L814.177875,438.21332970687297L828.0244375,643.2344753273892L830.7937499999999,44.5318971872331L833.5630625,284.5373041374342L836.332375,73.37256036485952L839.1016875,61.15217501350821L841.871,-527.8269015806056L844.6403124999999,-355.01846623420664L847.409625,132.57850062421392L850.1789375,649.7211567504062L852.94825,57.709906194891346L855.7175625,213.49739863191328L858.4868749999999,193.78495743019238L861.2561875,-456.3508188639363L866.7948125,-637.3370753356381L869.564125,276.28364355223516L872.3334375000001,-139.38059876220535L875.10275,747.502898475953L877.8720625,280.4407695020948L880.641375,386.3670271933077L900.0265625000001,436.770774900913L902.795875,240.46113549385748L905.5651875,221.47879956875525L908.3345,285.2589828073978L911.1038125,-475.22962790727564L913.8731250000001,143.95983671290534L916.6424375,-406.0845050982062L922.1810625,-477.8270290919707L924.950375,220.5823691274438L927.7196875000001,393.13459550482867L930.489,-162.66411548427146L933.2583125000001,370.3051123746802L936.0276250000001,74.04869523218711L938.7969375,-141.06632136021312L941.5662500000001,175.42859799947058L944.3355625,649.46133637854L963.72075,377.2129234969614L966.4900624999999,189.1577472090721L969.259375,345.58867125426L972.0286874999999,4.835357035909536L974.7979999999999,257.8566611324037L977.5673125,54.57260028379315L980.3366249999999,-252.33304133585486L983.1059375,-646.5890881759773L985.8752499999999,374.84564892734784L988.6445625,-172.19902154803242L991.413875,296.54561988796496L994.1831874999999,818.873046708958L996.9525,83.16929313540467L999.7218124999999,-340.050003945827L1002.491125,332.7541467845439L1005.2604375,-543.9132936852313L1016.3376875,599.7429526788844L1019.107,291.2966464757919L1021.8763125,366.225430952651L1024.6456249999999,-161.14291234953035L1035.722875,-139.72408330014747L1038.4921875,247.98870347227364L1041.2615,251.55335872088156L1044.0308125,17.38799144966276L1046.800125,797.2778608202927L1049.5694375,412.76557950888343L1052.3387500000001,360.09346954311627L1055.1080625,-584.374648707253L1057.877375,-79.74911486676734L1060.6466875,61.757887525217996L1063.416,-131.14559709174264L1066.1853125,38.89911190526837L1068.954625,40.725277947528156L1071.7239375,-392.51084684474074L1093.8784375,656.051344049828L1096.64775,223.01384641442976L1099.4170625000002,47.3526034482889L1102.186375,-429.2620873366078L1116.0329375000001,-129.73915631430458L1118.80225,5.504068464040923L1121.5715625,-501.2192891665862L1127.1101875,-410.0426026242114L1129.8795,112.87649236406607L1132.6488124999998,-712.366778458867L1140.9567499999998,-286.66223431485L1143.7260625,360.5158030433313L1146.495375,-189.0793203796656L1149.2646875,-449.72188829524123L1152.0339999999999,336.9497943648269L1154.8033125,-193.07854777148756L1157.572625,-649.3469961541032L1160.3419374999999,290.934904290097L1163.11125,217.18163144162722L1165.8805625,-603.6450943265636L1168.649875,-114.54939528448213L1171.4191875,34.54075056314481L1174.1885,-725.1988953266816L1190.804375,393.1059049155029L1193.5736875,357.2308308822767L1196.343,61.665596118995225L1199.1123125,642.7824480703895L1201.881625,-82.08027540785906L1204.6509375,30.411312035152033L1207.42025,405.3581909920486L1210.1895625,147.39307702439174L1212.958875,-87.1789743346825L1232.3440625,-1303.5313556790338L1235.1133750000001,258.84397854549536L1237.8826875,-332.4427844711708L1240.652,265.8769849666527L1243.4213125,-16.699036904743597" style="fill: none;" fill="none"></path></g></g></g></g></g><g><g opacity="0.520716"><span fill="rgb(0, 0, 0)" stroke="none" stroke-width="1px">Alt + Scroll to Zoom</span></g></g></g><g transform="translate(72, 377)" clip-path="url(#clip_1)"><clipPath id="clip_1"><rect width="1384" height="23"></rect></clipPath><g><g><line x1="0" y1="0" x2="0" y2="5" style="visibility: inherit;" fill="rgb(0, 0, 0)" stroke="rgb(204, 204, 204)" stroke-width="1px"></line><line x1="138.46562500000002" y1="0" x2="138.46562500000002" y2="5" style="visibility: inherit;" fill="rgb(0, 0, 0)" stroke="rgb(204, 204, 204)" stroke-width="1px"></line><line x1="276.93125000000003" y1="0" x2="276.93125000000003" y2="5" style="visibility: inherit;" fill="rgb(0, 0, 0)" stroke="rgb(204, 204, 204)" stroke-width="1px"></line><line x1="415.39687499999997" y1="0" x2="415.39687499999997" y2="5" style="visibility: inherit;" fill="rgb(0, 0, 0)" stroke="rgb(204, 204, 204)" stroke-width="1px"></line><line x1="553.8625000000001" y1="0" x2="553.8625000000001" y2="5" style="visibility: inherit;" fill="rgb(0, 0, 0)" stroke="rgb(204, 204, 204)" stroke-width="1px"></line><line x1="692.328125" y1="0" x2="692.328125" y2="5" style="visibility: inherit;" fill="rgb(0, 0, 0)" stroke="rgb(204, 204, 204)" stroke-width="1px"></line><line x1="830.7937499999999" y1="0" x2="830.7937499999999" y2="5" style="visibility: inherit;" fill="rgb(0, 0, 0)" stroke="rgb(204, 204, 204)" stroke-width="1px"></line><line x1="969.259375" y1="0" x2="969.259375" y2="5" style="visibility: inherit;" fill="rgb(0, 0, 0)" stroke="rgb(204, 204, 204)" stroke-width="1px"></line><line x1="1107.7250000000001" y1="0" x2="1107.7250000000001" y2="5" style="visibility: inherit;" fill="rgb(0, 0, 0)" stroke="rgb(204, 204, 204)" stroke-width="1px"></line><line x1="1246.190625" y1="0" x2="1246.190625" y2="5" style="visibility: inherit;" fill="rgb(0, 0, 0)" stroke="rgb(204, 204, 204)" stroke-width="1px"></line><line x1="1384.65625" y1="0" x2="1384.65625" y2="5" style="visibility: inherit;" fill="rgb(0, 0, 0)" stroke="rgb(204, 204, 204)" stroke-width="1px"></line></g><g transform="translate(0, 8)"><text x="0" y="0" dx="0em" dy="0.95em" style="text-anchor: middle; visibility: hidden; font-family: Roboto, sans-serif; font-size: 12px; font-weight: 200;" fill="rgb(33, 33, 33)" stroke="none" stroke-width="1px">-50</text><text x="138.46562500000002" y="0" dx="0em" dy="0.95em" style="text-anchor: middle; visibility: inherit; font-family: Roboto, sans-serif; font-size: 12px; font-weight: 200;" fill="rgb(33, 33, 33)" stroke="none" stroke-width="1px">0</text><text x="276.93125000000003" y="0" dx="0em" dy="0.95em" style="text-anchor: middle; visibility: inherit; font-family: Roboto, sans-serif; font-size: 12px; font-weight: 200;" fill="rgb(33, 33, 33)" stroke="none" stroke-width="1px">50</text><text x="415.39687499999997" y="0" dx="0em" dy="0.95em" style="text-anchor: middle; visibility: inherit; font-family: Roboto, sans-serif; font-size: 12px; font-weight: 200;" fill="rgb(33, 33, 33)" stroke="none" stroke-width="1px">100</text><text x="553.8625000000001" y="0" dx="0em" dy="0.95em" style="text-anchor: middle; visibility: inherit; font-family: Roboto, sans-serif; font-size: 12px; font-weight: 200;" fill="rgb(33, 33, 33)" stroke="none" stroke-width="1px">150</text><text x="692.328125" y="0" dx="0em" dy="0.95em" style="text-anchor: middle; visibility: inherit; font-family: Roboto, sans-serif; font-size: 12px; font-weight: 200;" fill="rgb(33, 33, 33)" stroke="none" stroke-width="1px">200</text><text x="830.7937499999999" y="0" dx="0em" dy="0.95em" style="text-anchor: middle; visibility: inherit; font-family: Roboto, sans-serif; font-size: 12px; font-weight: 200;" fill="rgb(33, 33, 33)" stroke="none" stroke-width="1px">250</text><text x="969.259375" y="0" dx="0em" dy="0.95em" style="text-anchor: middle; visibility: inherit; font-family: Roboto, sans-serif; font-size: 12px; font-weight: 200;" fill="rgb(33, 33, 33)" stroke="none" stroke-width="1px">300</text><text x="1107.7250000000001" y="0" dx="0em" dy="0.95em" style="text-anchor: middle; visibility: inherit; font-family: Roboto, sans-serif; font-size: 12px; font-weight: 200;" fill="rgb(33, 33, 33)" stroke="none" stroke-width="1px">350</text><text x="1246.190625" y="0" dx="0em" dy="0.95em" style="text-anchor: middle; visibility: inherit; font-family: Roboto, sans-serif; font-size: 12px; font-weight: 200;" fill="rgb(33, 33, 33)" stroke="none" stroke-width="1px">400</text><text x="1384.65625" y="0" dx="0em" dy="0.95em" style="text-anchor: middle; visibility: hidden; font-family: Roboto, sans-serif; font-size: 12px; font-weight: 200;" fill="rgb(33, 33, 33)" stroke="none" stroke-width="1px">450</text></g><line x1="0" y1="0" x2="1384.65625" y2="0" fill="rgb(0, 0, 0)" stroke="rgb(204, 204, 204)" stroke-width="1px"></line></g></g></g></g></svg>