<svg viewBox="0 0 1457 400" xmlns="http://www.w3.org/2000/svg"><g><g><g><g><g><line x1="72.34375" y1="377" x2="67.34375" y2="377" style="visibility: inherit;" fill="rgb(0, 0, 0)" stroke="rgb(204, 204, 204)" stroke-width="1px"></line><line x1="72.34375" y1="339.3" x2="67.34375" y2="339.3" style="visibility: inherit;" fill="rgb(0, 0, 0)" stroke="rgb(204, 204, 204)" stroke-width="1px"></line><line x1="72.34375" y1="301.6" x2="67.34375" y2="301.6" style="visibility: inherit;" fill="rgb(0, 0, 0)" stroke="rgb(204, 204, 204)" stroke-width="1px"></line><line x1="72.34375" y1="263.9" x2="67.34375" y2="263.9" style="visibility: inherit;" fill="rgb(0, 0, 0)" stroke="rgb(204, 204, 204)" stroke-width="1px"></line><line x1="72.34375" y1="226.2" x2="67.34375" y2="226.2" style="visibility: inherit;" fill="rgb(0, 0, 0)" stroke="rgb(204, 204, 204)" stroke-width="1px"></line><line x1="72.34375" y1="188.5" x2="67.34375" y2="188.5" style="visibility: inherit;" fill="rgb(0, 0, 0)" stroke="rgb(204, 204, 204)" stroke-width="1px"></line><line x1="72.34375" y1="150.8" x2="67.34375" y2="150.8" style="visibility: inherit;" fill="rgb(0, 0, 0)" stroke="rgb(204, 204, 204)" stroke-width="1px"></line><line x1="72.34375" y1="113.10000000000002" x2="67.34375" y2="113.10000000000002" style="visibility: inherit;" fill="rgb(0, 0, 0)" stroke="rgb(204, 204, 204)" stroke-width="1px"></line><line x1="72.34375" y1="75.39999999999998" x2="67.34375" y2="75.39999999999998" style="visibility: inherit;" fill="rgb(0, 0, 0)" stroke="rgb(204, 204, 204)" stroke-width="1px"></line><line x1="72.34375" y1="37.69999999999999" x2="67.34375" y2="37.69999999999999" style="visibility: inherit;" fill="rgb(0, 0, 0)" stroke="rgb(204, 204, 204)" stroke-width="1px"></line><line x1="72.34375" y1="0" x2="67.34375" y2="0" style="visibility: inherit;" fill="rgb(0, 0, 0)" stroke="rgb(204, 204, 204)" stroke-width="1px"></line></g><g transform="translate(62.34375, 0)"><text x="0" y="377" dx="0em" dy="0.3em" style="text-anchor: end; visibility: hidden; font-family: Roboto, sans-serif; font-size: 12px; font-weight: 200;" fill="rgb(33, 33, 33)" stroke="none" stroke-width="1px">-0.108</text><text x="0" y="339.3" dx="0em" dy="0.3em" style="text-anchor: end; visibility: inherit; font-family: Roboto, sans-serif; font-size: 12px; font-weight: 200;" fill="rgb(33, 33, 33)" stroke="none" stroke-width="1px">-0.107</text><text x="0" y="301.6" dx="0em" dy="0.3em" style="text-anchor: end; visibility: inherit; font-family: Roboto, sans-serif; font-size: 12px; font-weight: 200;" fill="rgb(33, 33, 33)" stroke="none" stroke-width="1px">-0.107</text><text x="0" y="263.9" dx="0em" dy="0.3em" style="text-anchor: end; visibility: inherit; font-family: Roboto, sans-serif; font-size: 12px; font-weight: 200;" fill="rgb(33, 33, 33)" stroke="none" stroke-width="1px">-0.106</text><text x="0" y="226.2" dx="0em" dy="0.3em" style="text-anchor: end; visibility: inherit; font-family: Roboto, sans-serif; font-size: 12px; font-weight: 200;" fill="rgb(33, 33, 33)" stroke="none" stroke-width="1px">-0.106</text><text x="0" y="188.5" dx="0em" dy="0.3em" style="text-anchor: end; visibility: inherit; font-family: Roboto, sans-serif; font-size: 12px; font-weight: 200;" fill="rgb(33, 33, 33)" stroke="none" stroke-width="1px">-0.105</text><text x="0" y="150.8" dx="0em" dy="0.3em" style="text-anchor: end; visibility: inherit; font-family: Roboto, sans-serif; font-size: 12px; font-weight: 200;" fill="rgb(33, 33, 33)" stroke="none" stroke-width="1px">-0.105</text><text x="0" y="113.10000000000002" dx="0em" dy="0.3em" style="text-anchor: end; visibility: inherit; font-family: Roboto, sans-serif; font-size: 12px; font-weight: 200;" fill="rgb(33, 33, 33)" stroke="none" stroke-width="1px">-0.104</text><text x="0" y="75.39999999999998" dx="0em" dy="0.3em" style="text-anchor: end; visibility: inherit; font-family: Roboto, sans-serif; font-size: 12px; font-weight: 200;" fill="rgb(33, 33, 33)" stroke="none" stroke-width="1px">-0.104</text><text x="0" y="37.69999999999999" dx="0em" dy="0.3em" style="text-anchor: end; visibility: inherit; font-family: Roboto, sans-serif; font-size: 12px; font-weight: 200;" fill="rgb(33, 33, 33)" stroke="none" stroke-width="1px">-0.103</text><text x="0" y="0" dx="0em" dy="0.3em" style="text-anchor: end; visibility: hidden; font-family: Roboto, sans-serif; font-size: 12px; font-weight: 200;" fill="rgb(33, 33, 33)" stroke="none" stroke-width="1px">-0.103</text></g><line x1="72.34375" y1="0" x2="72.34375" y2="377" fill="rgb(0, 0, 0)" stroke="rgb(204, 204, 204)" stroke-width="1px"></line></g></g><g transform="translate(72, 0)" clip-path="url(#clip_0)"><clipPath id="clip_0"><rect width="1384" height="377"></rect></clipPath><g><g><g><line x1="0" y1="0" x2="0" y2="377" fill="rgb(0, 0, 0)" stroke="rgb(66, 66, 66)" stroke-width="1px" opacity="0.25"></line><line x1="138.46562500000002" y1="0" x2="138.46562500000002" y2="377" fill="rgb(0, 0, 0)" stroke="rgb(66, 66, 66)" stroke-width="1px" opacity="0.25"></line><line x1="276.93125000000003" y1="0" x2="276.93125000000003" y2="377" fill="rgb(0, 0, 0)" stroke="rgb(66, 66, 66)" stroke-width="1px" opacity="0.25"></line><line x1="415.39687499999997" y1="0" x2="415.39687499999997" y2="377" fill="rgb(0, 0, 0)" stroke="rgb(66, 66, 66)" stroke-width="1px" opacity="0.25"></line><line x1="553.8625000000001" y1="0" x2="553.8625000000001" y2="377" fill="rgb(0, 0, 0)" stroke="rgb(66, 66, 66)" stroke-width="1px" opacity="0.25"></line><line x1="692.328125" y1="0" x2="692.328125" y2="377" fill="rgb(0, 0, 0)" stroke="rgb(66, 66, 66)" stroke-width="1px" opacity="0.25"></line><line x1="830.7937499999999" y1="0" x2="830.7937499999999" y2="377" fill="rgb(0, 0, 0)" stroke="rgb(66, 66, 66)" stroke-width="1px" opacity="0.25"></line><line x1="969.259375" y1="0" x2="969.259375" y2="377" fill="rgb(0, 0, 0)" stroke="rgb(66, 66, 66)" stroke-width="1px" opacity="0.25"></line><line x1="1107.7250000000001" y1="0" x2="1107.7250000000001" y2="377" fill="rgb(0, 0, 0)" stroke="rgb(66, 66, 66)" stroke-width="1px" opacity="0.25"></line><line x1="1246.190625" y1="0" x2="1246.190625" y2="377" fill="rgb(0, 0, 0)" stroke="rgb(66, 66, 66)" stroke-width="1px" opacity="0.25"></line><line x1="1384.65625" y1="0" x2="1384.65625" y2="377" fill="rgb(0, 0, 0)" stroke="rgb(66, 66, 66)" stroke-width="1px" opacity="0.25"></line></g><g><line x1="0" y1="377" x2="1384.65625" y2="377" fill="rgb(0, 0, 0)" stroke="rgb(66, 66, 66)" stroke-width="1px" opacity="0.25"></line><line x1="0" y1="339.3" x2="1384.65625" y2="339.3" fill="rgb(0, 0, 0)" stroke="rgb(66, 66, 66)" stroke-width="1px" opacity="0.25"></line><line x1="0" y1="301.6" x2="1384.65625" y2="301.6" fill="rgb(0, 0, 0)" stroke="rgb(66, 66, 66)" stroke-width="1px" opacity="0.25"></line><line x1="0" y1="263.9" x2="1384.65625" y2="263.9" fill="rgb(0, 0, 0)" stroke="rgb(66, 66, 66)" stroke-width="1px" opacity="0.25"></line><line x1="0" y1="226.2" x2="1384.65625" y2="226.2" fill="rgb(0, 0, 0)" stroke="rgb(66, 66, 66)" stroke-width="1px" opacity="0.25"></line><line x1="0" y1="188.5" x2="1384.65625" y2="188.5" fill="rgb(0, 0, 0)" stroke="rgb(66, 66, 66)" stroke-width="1px" opacity="0.25"></line><line x1="0" y1="150.8" x2="1384.65625" y2="150.8" fill="rgb(0, 0, 0)" stroke="rgb(66, 66, 66)" stroke-width="1px" opacity="0.25"></line><line x1="0" y1="113.10000000000002" x2="1384.65625" y2="113.10000000000002" fill="rgb(0, 0, 0)" stroke="rgb(66, 66, 66)" stroke-width="1px" opacity="0.25"></line><line x1="0" y1="75.39999999999998" x2="1384.65625" y2="75.39999999999998" fill="rgb(0, 0, 0)" stroke="rgb(66, 66, 66)" stroke-width="1px" opacity="0.25"></line><line x1="0" y1="37.69999999999999" x2="1384.65625" y2="37.69999999999999" fill="rgb(0, 0, 0)" stroke="rgb(66, 66, 66)" stroke-width="1px" opacity="0.25"></line><line x1="0" y1="0" x2="1384.65625" y2="0" fill="rgb(0, 0, 0)" stroke="rgb(66, 66, 66)" stroke-width="1px" opacity="0.25"></line></g></g></g><g><g><line x1="0" y1="-7766.1999999999925" x2="1384.65625" y2="-7766.1999999999925" fill="rgb(0, 0, 0)" stroke="rgb(153, 153, 153)" stroke-width="1.5px"></line></g></g><g><g><line x1="138.46562500000002" y1="0" x2="138.46562500000002" y2="377" fill="rgb(0, 0, 0)" stroke="rgb(153, 153, 153)" stroke-width="1.5px"></line></g></g><g><g><g><g><g><path stroke="rgb(255, 112, 67)" stroke-width="2px" d="M157.85081250000002,391.9756735697045L160.620125,365.9677130965108L163.38943749999999,340.5114448679467L166.15875,332.22160198497534L168.9280625,356.5884270873468L171.697375,353.37956530461184L174.4666875,334.72030364041274L177.236,313.3183050549669L180.0053125,317.09920202334246L182.77462500000001,304.86542839364125L185.5439375,284.8124158037418L188.31325,265.7534640205318L191.08256250000002,256.68155138471224L193.851875,271.60457692523556L196.6211875,276.9610618181558L199.39049999999997,283.02965158706394L202.1598125,277.5264813229187L204.929125,281.52225182305364L207.69843749999998,274.29555407056984L210.46775,272.98618066446465L213.2370625,280.0095550085267L216.006375,276.81610117217247L218.7756875,277.889243345195L221.54500000000002,275.00124889068303L224.3143125,267.2636799383515L227.083625,264.95195562549856L229.85293750000002,265.15079590221063L232.62225,260.94952744797814L235.39156250000002,269.9779559252755L238.16087499999998,269.5701797145503L240.9301875,269.4589682130617L243.69949999999997,262.88037711430985L246.46881249999998,276.11082813361423L249.238125,279.67035310948705L252.00743749999998,276.54879261219793L254.77675,280.9568022464462L257.5460625,283.822376135937L260.315375,282.9252599195384L263.08468750000003,280.27179962278655L265.854,278.79702441722253L268.6233125,284.38301072867523L271.392625,283.14209656462486L274.1619375,284.18775969470425L276.93125000000003,281.3615414363438L279.7005625,285.4446176051444L282.469875,281.8699124359241L285.23918749999996,278.06918111101464L288.00849999999997,276.2990943085051L290.7778125,281.5002583527266L293.547125,282.1983203233556L296.3164375,278.3147071827367L299.08575,279.8082453443423L301.8550625,280.7704766881269L304.624375,282.8593700846752L307.3936875,280.5677428184764L310.163,278.7080686417691L312.9323125,282.8100360681846L315.70162500000004,280.32598452914505L318.4709375,283.28575965529785L321.24025,281.5397069102691L324.0095625,277.7867064635208L326.77887499999997,272.9533410638017L329.5481875,274.0997809086881L332.3175,270.65646181967054L335.0868125,270.85157548876197L337.856125,278.5236899360241L340.6254375,283.21297849149124L343.39475,278.5616763484438L346.1640625,281.0651572557834L348.933375,277.98563951178517L351.7026875,280.40977869110253L354.472,284.0932048621583L357.2413125,281.4019627966844L360.010625,278.4522145044401L362.7799375,282.40768935118274L365.54925000000003,282.19302347775056L368.31856250000004,280.4200611786427L371.087875,284.83995159281676L373.8571875,279.2571980032889L376.6265,278.5071100776264L379.39581250000003,279.38638989652515L382.16512500000005,274.7651102510883L384.93443750000006,268.4960661525898L387.70375,265.6312251231374L390.47306249999997,262.36442017650523L393.242375,261.60427607583904L396.0116875,261.97804541107337L398.78099999999995,263.9281941637943L401.55031249999996,265.8026227706708L404.319625,262.9298670109503L407.0889375,258.80343527391426L409.85825,259.81106268013235L412.6275625,260.2858941642986L415.39687499999997,265.0466307060441L418.1661875,261.7064621522717L420.9355,260.5156794012974L423.7048125,259.1206429286723L426.474125,255.85872160295528L429.24343749999997,255.48630082026745L432.01275,253.98056716483728L434.7820625,251.65153776054638L437.551375,250.00356829992947L440.3206875,248.92336497542672L443.09000000000003,249.92421452988452L445.8593125,248.09127477297838L448.628625,247.29508752220613L451.3979375,242.93634676804544L454.16725,242.92103958339874L456.93656250000004,243.5072513736794L459.70587500000005,243.67292621486249L462.4751875,241.78166622877748L465.2445,237.53801013078436L468.01381250000003,236.2992171944746L470.78312500000004,240.5238141390564L473.55243750000005,243.16793413195063L476.32174999999995,241.91513579061913L479.09106249999996,243.31075875695296L481.860375,242.36294549961343L484.6296875,242.83307499963428L487.39899999999994,242.68853769681652L490.16831249999996,244.6156408132683L492.93762499999997,245.06653302247858L495.7069375,244.167738557932L498.47625,242.46996190717164L501.2455625,243.79946296667293L504.01487499999996,243.6573152277488L506.7841875,241.0399888013009L509.5535,242.97004881180092L512.3228124999999,242.11983601541837L515.092125,241.15679166037353L517.8614375,240.59791315461518L520.63075,239.47922860473633L523.4000625,239.29256473452085L526.1693750000001,239.61613929979316L528.9386875,238.44298199544846L531.708,235.92184238651225L534.4773125,233.73816530024425L537.246625,234.20710616310865L540.0159375000001,234.26058587392495L542.78525,233.67928016664828L545.5545625,230.75116677992162L548.323875,227.71081373615672L551.0931875,228.574939379715L553.8625000000001,227.86237823613806L556.6318125,228.38948983686817L559.401125,229.87155710584864L562.1704375,230.39066120269482L564.93975,230.22888537342064L567.7090625,230.7640191152308L570.4783749999999,231.2268751501455L573.2476875,230.28625099057305L576.0169999999999,230.46834812641617L578.7863125,232.73820448926563L581.555625,234.16405522547765L584.3249375,233.90793657726493L587.09425,232.20956953824123L589.8635625,233.0036836322457L592.632875,233.04738395059715L595.4021875,234.19129948083696L598.1715,234.71538747144032L600.9408125,232.35607406390275L603.710125,234.64878388304905L606.4794375,233.15413199619846L609.24875,233.76746170732278L612.0180625,232.13993151397364L614.787375,232.99234414559908L617.5566875000001,232.9303398314675L620.326,232.18683289741438L623.0953125,232.8277167935949L625.864625,232.79877837895205L628.6339375,232.40033275414507L631.4032500000001,232.7612668529618L634.1725625,231.3252154372851L636.941875,230.45005630701888L639.7111875,229.71730060965393L642.4805,229.46656196703884L645.2498125000001,227.39907959064686L648.019125,227.2848389078999L650.7884375,231.00147019498002L653.5577499999999,230.07719314874856L656.3270625,229.79040013442295L659.096375,230.4077716798823L661.8656874999999,230.86339973842766L664.635,231.67506219776553L667.4043125,231.07880348150303L670.173625,230.1805473812235L672.9429375,229.4303522496982L675.71225,227.65122157649424L678.4815625,228.09241283503326L681.250875,228.66831964405068L684.0201875,229.0673012463211L686.7895,227.54046401608596L689.5588125,228.98985564729932L692.328125,229.62709746373255L695.0974375,227.78915556922811L697.86675,227.42829444583535L700.6360625,226.19655988695072L703.405375,225.75716292579628L706.1746875,225.24233187469582L708.944,224.1956411409743L711.7133125,224.26766074283483L714.482625,225.0609915669364L717.2519375,224.60599927393335L720.02125,226.4194474542006L722.7905625000001,225.63893042555438L725.559875,225.9869611956996L728.3291875,225.77452170256268L731.0985000000001,226.94896607577536L733.8678125,228.03705900691912L736.6371250000001,228.30573307648788L739.4064375,228.61177506738403L742.17575,229.75448441822968L744.9450625000001,229.89151896996412L747.714375,229.13219319978938L750.4836875000001,228.2130883624784L753.253,228.38940881896417L756.0223125000001,225.98699482654087L758.7916250000001,227.323548644767L761.5609375,226.47675030334554L764.3302500000001,225.51913592577205L767.0995625,225.71662336473707L769.8688750000001,224.41216982794506L772.6381875000001,224.74341986179815L775.4075,225.0457567633114L778.1768125000001,225.64627360053495L780.9461249999999,225.35035551420467L783.7154374999999,225.87690946854568L786.48475,226.39239187057706L789.2540624999999,225.54660359008813L792.023375,226.46611304236555L794.7926874999999,227.8478997284869L797.5619999999999,228.52203634949288L800.3313125,225.55761937208192L803.1006249999999,225.3564052988385L805.8699375,226.67456430008224L808.63925,226.19131998973123L811.4085624999999,225.54499822575832L814.177875,226.2001194171111L816.9471874999999,224.96484428797163L819.7165,227.05067274096714L822.4858125,227.36646757564057L825.255125,226.85665697722365L828.0244375,226.23955616221622L830.7937499999999,227.48987198915205L833.5630625,229.03096957698762L836.332375,229.14320797193463L839.1016875,228.34583302762562L841.871,229.30551617898055L844.6403124999999,228.09066202073714L847.409625,228.2391707204262L850.1789375,228.0767271098242L852.94825,225.940866164262L855.7175625,225.6644842648545L858.4868749999999,224.11820603566204L861.2561875,224.0247942844279L864.0255,222.77445603759048L866.7948125,222.80543081414217L869.564125,224.09605908547456L872.3334375000001,222.37701456424614L875.10275,220.97270084128428L877.8720625,218.7530550533369L880.641375,218.0522815470036L883.4106875,218.72683121976743L886.1800000000001,217.819358429174L888.9493125,217.31962187996933L891.718625,216.84570901384555L894.4879375,216.6607417218778L897.25725,215.25894735547973L900.0265625000001,216.08150872403925L902.795875,215.68313529954952L905.5651875,216.990580168195L908.3345,215.26066281708998L911.1038125,213.84551240543152L913.8731250000001,213.85096812685123L916.6424375,213.19827515994433L919.4117500000001,213.74280070706047L922.1810625,213.66756229144414L924.950375,214.12770454587996L927.7196875000001,215.49950945987624L930.489,214.93677487224625L933.2583125000001,214.90876052521057L936.0276250000001,212.97796829392345L938.7969375,213.0069614019111L941.5662500000001,211.32189531866766L944.3355625,211.0262844064919L947.1048750000001,211.02019790562653L949.8741875000001,210.7886983936476L952.6434999999999,210.5331137962855L955.4128125,210.47801106535007L958.1821249999999,208.49085858230256L960.9514374999999,210.06916509461232L963.72075,210.4251876601666L966.4900624999999,210.11341687979112L969.259375,209.9199044448216L972.0286874999999,209.58501319202372L974.7979999999999,209.21817051757475L977.5673125,206.91933085448724L980.3366249999999,206.44711533474694L983.1059375,207.0872103795745L985.8752499999999,207.1787234673304L988.6445625,205.24599175916728L991.413875,204.21657257370228L994.1831874999999,205.02007004914404L996.9525,204.8204453426331L999.7218124999999,205.09184258521745L1002.491125,204.20722278791206L1005.2604375,202.6002685256249L1008.0297499999999,202.61312356942582L1010.7990625,202.98639636550823L1013.568375,203.4885431931242L1016.3376875,203.11959327765908L1019.107,204.80385461598803L1021.8763125,205.0452368268323L1024.6456249999999,205.56129377069465L1027.4149375,206.50605053671643L1030.18425,206.58753806027482L1032.9535625,205.74136651762473L1035.722875,205.0691374598208L1038.4921875,204.63145311435056L1041.2615,204.53740815203577L1044.0308125,204.92126174438752L1046.800125,203.811383224215L1049.5694375,202.88611439348693L1052.3387500000001,203.61425043079956L1055.1080625,203.73103584716867L1057.877375,203.17723085491144L1060.6466875,203.20549133616169L1063.416,205.46595183955165L1066.1853125,205.26196445353267L1068.954625,205.33586184432383L1071.7239375,206.11189414546544L1074.49325,206.12689209686621L1077.2625625,206.73833227823079L1080.0318750000001,206.8313994120682L1082.8011875,205.9952550997267L1085.5705,205.5916651418255L1088.3398125,206.64763572343875L1091.109125,207.12436289121464L1093.8784375,206.17680332940304L1096.64775,205.95636483667909L1099.4170625000002,204.7244601401367L1102.186375,205.8348086417589L1104.9556875,205.86561331318077L1107.7250000000001,205.78106179239313L1110.4943125,205.95356077999094L1113.263625,205.0263183454847L1116.0329375000001,206.72083988105115L1118.80225,206.77654124867638L1121.5715625,207.01630580847933L1124.340875,208.34857336395004L1127.1101875,207.06877168568198L1129.8795,207.33503223097767L1132.6488124999998,209.37825229563603L1135.418125,210.83807205426956L1138.1874375,210.54214075946078L1140.9567499999998,211.92235969407687L1143.7260625,211.15853434049123L1146.495375,211.45249790626113L1149.2646875,211.2105999774976L1152.0339999999999,210.3480706090324L1154.8033125,209.06572288261336L1157.572625,209.35737983174587L1160.3419374999999,209.98534442967133L1163.11125,208.97876267052754L1165.8805625,207.7463207456686L1168.649875,207.83555728991763L1171.4191875,208.7109904887772L1174.1885,207.89814211604556L1176.9578125,208.01095585323606L1179.727125,207.6802055017577L1182.4964375,206.69931789084333L1185.26575,208.61594883314268L1188.0350624999999,208.55755201240743L1190.804375,209.0815504003115L1193.5736875,208.411710723424L1196.343,208.64703931229084L1199.1123125,208.32619212744535L1201.881625,208.37841176719712L1204.6509375,206.7250203458017L1207.42025,205.98552529916284L1210.1895625,204.70904733790815L1212.958875,203.63061019124805L1215.7281875,203.45620125429969L1218.4975,204.0910430338314L1221.2668125,204.37757864670309L1224.036125,204.66982851067448L1226.8054375,204.80543564481235L1229.57475,204.18259845801336L1232.3440625,204.557591132388L1235.1133750000001,204.60915464739656L1237.8826875,204.36162279473834L1240.652,204.74626968181943L1243.4213125,204.4221838155788L1246.190625,204.7090883969438" style="fill: none;" fill="none"></path></g></g></g></g><g opacity="0.2"><g><g><g><path stroke="rgb(255, 112, 67)" stroke-width="2px" d="M141.2349375,1112.0188415527339L144.00424999999998,165.345199453831L146.7735625,572.2621024131774L149.542875,97.13013325929676L152.3121875,536.5147516608238L155.0815,210.25788937807104L157.85081250000002,53.42300986051598L160.620125,184.63875805139568L163.38943749999999,137.77558957338363L166.15875,257.98506592512155L168.9280625,598.9205152273177L171.697375,318.29316620826734L174.4666875,112.25926284790073L177.236,37.032136368751914L180.0053125,369.6364805579186L182.77462500000001,122.82004808187514L185.5439375,-33.32216436862899L188.31325,-55.348190617560874L191.08256250000002,94.9296653747562L193.851875,552.3236275196075L199.39049999999997,409.07749389410026L202.1598125,157.83934001922637L204.929125,372.33018581867225L207.69843749999998,103.00628696680103L210.46775,240.67400698661825L213.2370625,460.17250423431403L216.006375,191.78957645893124L218.7756875,307.5054243683816L221.54500000000002,192.49404077529934L224.3143125,38.700042712688834L227.083625,194.423733699322L229.85293750000002,271.409773874283L232.62225,124.63963334560424L235.39156250000002,571.6312304615974L238.16087499999998,255.55202369689962L240.9301875,265.52856420278573L243.69949999999997,24.042241322994617L246.46881249999998,769.1840351104735L249.238125,415.75024281740195L252.00743749999998,154.21309028863936L254.77675,457.940015244484L257.5460625,401.62387942075736L260.315375,245.18617396354696L263.08468750000003,166.10921179056194L265.854,213.9363840699198L268.6233125,535.3895187854766L271.392625,226.19765852689764L274.1619375,333.1689358234407L276.93125000000003,146.28421519994765L279.7005625,484.4765231490135L282.469875,104.22196542024646L285.23918749999996,85.58062617778812L288.00849999999997,184.9741369962695L290.7778125,554.7740847349166L293.547125,319.53580980300916L296.3164375,66.91850130558052L299.08575,362.5165597081185L301.8550625,334.9643648147584L304.624375,402.4772137880326L307.3936875,147.18249146938354L310.163,168.71528034210232L312.9323125,529.281352508068L315.70162500000004,128.736649501324L318.4709375,466.6823387622833L321.24025,171.7129052162173L324.0095625,38.2096142053608L326.77887499999997,-40.11007691621734L329.5481875,349.42723070383084L332.3175,41.197688925266654L335.0868125,284.0356395125391L337.856125,804.083669233322L346.1640625,459.541632282734L348.933375,55.585838901997L351.7026875,457.72541766166694L354.472,556.9307342648506L357.2413125,79.56796144247089L360.010625,54.50554792881051L362.7799375,586.3609388947486L365.54925000000003,265.4993519663813L368.31856250000004,140.9108490228656L371.087875,636.6958693146704L373.8571875,-170.30395860671942L376.6265,217.4160108447077L379.39581250000003,351.80634264945996L382.16512500000005,-110.0924834132189L384.93443750000006,-259.32712550163205L387.70375,21.80469636917157L390.47306249999997,-18.65874524116469L393.242375,195.51975433826473L396.0116875,294.81326942443866L398.78099999999995,437.02349220514304L401.55031249999996,433.883176791668L404.319625,2.716746973991821L407.0889375,-118.71571089029257L409.85825,352.9113516688348L412.6275625,304.5886949181558L415.39687499999997,713.5453984618185L418.1661875,-55.98580385446502L420.9355,146.18084882497817L423.7048125,123.91438339948684L426.474125,-63.22762961387588L429.24343749999997,218.7198877811434L432.01275,103.97478495836292L434.7820625,17.53184502124829L437.551375,82.86501173973117L440.3206875,138.39859669208556L443.09000000000003,353.22706853151334L445.8593125,57.26217185258904L448.628625,163.6907756805423L451.3979375,-218.65358049869474L454.16725,241.28634040355703L456.93656250000004,306.6335514664651L459.70587500000005,261.66131352186227L462.4751875,34.751334834099204L465.2445,-230.7766586065286L468.01381250000003,98.48962579965625L470.78312500000004,714.2397508502005L473.55243750000005,542.0055285573005L476.32174999999995,99.21431397199665L479.09106249999996,403.5153717279435L481.860375,132.7246815443042L484.6296875,297.63056491613406L487.39899999999994,225.7139713048937L490.16831249999996,472.63489370346065L492.93762499999997,298.81422226429004L495.7069375,136.23801474571258L498.47625,37.104043412208945L501.2455625,405.78549956083305L504.01487499999996,226.21338819265387L506.7841875,-82.44366343021346L509.5535,483.2018584489822L512.3228124999999,135.55152719020873L515.092125,119.60445498228103L517.8614375,169.57030003070858L520.63075,96.33072917461429L523.4000625,215.24419342279455L526.1693750000001,281.58462052345294L528.9386875,85.26153867244754L531.708,-95.45771474838202L534.4773125,-55.17965848445846L537.246625,296.6581345081331L540.0159375000001,241.42903094291708L542.78525,155.25798951387435L545.5545625,-166.79736669063513L548.323875,-187.70096893310492L551.0931875,347.3879918932916L553.8625000000001,129.2748287796977L556.6318125,301.7725229740144L559.401125,437.4751583218575L562.1704375,303.5510987520219L564.93975,207.29003851413748L567.7090625,307.10150902271283L570.4783749999999,297.65022699832934L573.2476875,94.49485247135196L576.0169999999999,256.91207801103616L578.7863125,564.2995208978652L581.555625,443.65635519027717L584.3249375,196.05961893796947L587.09425,-20.21485860347701L589.8635625,351.70634691715253L592.632875,239.6167487382891L595.4021875,407.12420647144324L598.1715,314.38940023183835L600.9408125,-128.31473941802923L603.710125,587.0777622342109L606.4794375,2.1369964361195066L609.24875,329.0831551432611L612.0180625,-22.16252828836394L614.787375,366.9006422638894L617.5566875000001,223.13767676353476L620.326,114.13558726310764L623.0953125,335.1233467936517L625.864625,228.15544013977072L628.6339375,168.13328270912197L631.4032500000001,291.280274140835L634.1725625,-2.706617069243916L636.941875,87.09460650682483L639.7111875,109.07625262737308L642.4805,187.97569428682354L645.2498125000001,-116.43996531963293L648.019125,208.1905618786814L650.7884375,855.2938431978222L653.5577499999999,74.05583714246784L656.3270625,181.14059274196651L659.096375,335.6469199538232L661.8656874999999,308.90873526334775L664.635,371.3779792666436L667.4043125,127.95803104639083L670.173625,74.0884200215343L672.9429375,98.44805454015766L675.71225,-84.4475104928012L678.4815625,305.8504388213159L681.250875,330.64320092201245L684.0201875,300.04225974082965L686.7895,-45.322775793075095L689.5588125,489.20160238742824L692.328125,344.55440496206296L695.0974375,-105.1904454350466L697.86675,161.75602679252654L700.6360625,1.029740321636627L703.405375,145.0747162580493L706.1746875,130.28883044719726L708.944,30.295345234871295L711.7133125,237.66795550584814L714.482625,373.3166605710984L717.2519375,139.20867447853118L720.02125,568.256093609333L722.7905625000001,77.87814592123065L725.559875,292.15495591163653L728.3291875,185.21345262527493L731.0985000000001,452.13464503288276L733.8678125,437.5442564964295L736.6371250000001,280.25434021949786L739.4064375,288.0320981621744L742.17575,452.53968392610557L744.9450625000001,256.7182660579684L747.714375,79.87188105583225L750.4836875000001,46.80756186246911L753.253,263.3314669609072L756.0223125000001,-252.03193123340543L758.7916250000001,494.3328440666198L761.5609375,56.631299901008994L764.3302500000001,32.68232201337853L767.0995625,265.64260427951837L769.8688750000001,-40.348268997668754L772.6381875000001,292.23978375196475L775.4075,286.89113562107104L778.1768125000001,348.9637673377992L780.9461249999999,164.3480509996417L783.7154374999999,334.84133635759366L786.48475,333.47397898435605L789.2540624999999,49.18105607032815L792.023375,418.93100594282157L794.7926874999999,518.1644112348556L797.5619999999999,370.69149171113975L800.3313125,-401.94800491332927L803.1006249999999,182.60513697862652L805.8699375,507.7760905504226L808.63925,122.75825296640426L811.4085624999999,86.69967954158817L814.177875,367.44949524402625L816.9471874999999,-42.33807171583129L819.7165,680.038401532173L822.4858125,296.1957946896555L825.255125,115.34227733612094L828.0244375,90.77534829378162L830.7937499999999,502.9302299499511L833.5630625,569.7296262264251L836.332375,254.043661105633L839.1016875,50.82592968940774L841.871,443.70522950887687L844.6403124999999,-44.25821448564483L847.409625,261.64726917743707L850.1789375,191.40813206434277L852.94825,-257.84123386144574L855.7175625,162.84923856258422L858.4868749999999,-128.508551371097L861.2561875,202.65034888982794L864.0255,-64.29050559997512L866.7948125,229.94075720310232L869.564125,522.3962530970573L877.8720625,-299.37710161209037L880.641375,53.93478577137032L883.4106875,377.21874122619636L886.1800000000001,3.906583833694885L888.9493125,99.13847451210056L891.718625,104.41015963554416L894.4879375,172.63646130561855L897.25725,-119.45051099061911L900.0265625000001,413.1115913867951L902.795875,119.95724891424209L905.5651875,532.1508929610252L911.1038125,-129.4214337587351L913.8731250000001,215.1784658908846L916.6424375,53.890405642986686L919.4117500000001,347.0604777812959L922.1810625,195.189993131161L924.950375,327.4792910099031L927.7196875000001,554.4628620624542L930.489,75.46588932275806L933.2583125000001,207.94450496435186L936.0276250000001,-268.458196473121L938.7969375,220.25802438259146L941.5662500000001,-211.36849815845426L944.3355625,136.65260379314452L947.1048750000001,209.48432688713095L949.8741875000001,152.19913129806548L952.6434999999999,145.65727566480666L955.4128125,196.45005171299007L958.1821249999999,-298.87431408166816L960.9514374999999,614.2204240441321L963.72075,301.8551037192346L966.4900624999999,129.81637870073348L969.259375,159.93700330257445L972.0286874999999,122.83690129518538L974.7979999999999,113.92211322784458L977.5673125,-391.957981836795L980.3366249999999,83.08017109632526L983.1059375,374.78513722419746L985.8752499999999,231.2216014146807L988.6445625,-303.95611966848304L994.1831874999999,417.8928480029107L996.9525,151.78678934574157L999.7218124999999,277.3921028256418L1002.491125,-32.103677046298515L1005.2604375,-227.84588481187757L1008.0297499999999,206.06593345403692L1010.7990625,303.51851587295545L1013.568375,339.0962109446527L1016.3376875,103.213581490517L1019.107,662.1026501536368L1021.8763125,270.75923984050775L1024.6456249999999,346.42792050838483L1027.4149375,465.0795981764794L1030.18425,228.9492264866831L1032.9535625,-27.07692528963042L1035.722875,19.623328793049286L1038.4921875,83.57228492498432L1041.2615,178.45756118297604L1044.0308125,311.645697104931L1046.800125,-105.57301337718908L1052.3387500000001,407.63429706096656L1055.1080625,236.53766666650793L1057.877375,47.20810656547585L1060.6466875,211.18481611013434L1063.416,845.3251675248144L1066.1853125,147.37405632734328L1068.954625,226.35944937467596L1071.7239375,427.4452493071557L1074.49325,210.4151860356333L1077.2625625,382.00055961608894L1080.0318750000001,233.57430999279043L1082.8011875,-34.86648048162414L1085.5705,89.04564683437381L1088.3398125,512.333761203289L1091.109125,345.46728734970105L1093.8784375,-69.4700598239894L1096.64775,141.67429958581954L1099.4170625000002,-155.38268531560843L1102.186375,531.1936304450035L1104.9556875,214.91387044191382L1107.7250000000001,180.88610922098187L1110.4943125,256.8648890137675L1113.263625,-69.29253931045486L1116.0329375000001,709.2259198904036L1118.80225,223.33373581171057L1121.5715625,278.45441703796405L1124.340875,606.2331244826315L1127.1101875,-176.04303951263373L1129.8795,287.22707633972186L1132.6488124999998,823.8788918137549L1135.418125,650.8997574925421L1138.1874375,121.12742369174987L1140.9567499999998,629.9130127310751L1143.7260625,-20.692928087710865L1146.495375,300.8866057276727L1149.2646875,137.44863723516494L1152.0339999999999,-53.26176280975295L1154.8033125,-183.7399020314211L1157.572625,298.89905010461825L1160.3419374999999,403.21145211458213L1165.8805625,-173.1819256663317L1168.649875,235.47872309684774L1171.4191875,480.50085012912746L1174.1885,-45.02110327482177L1176.9578125,243.19075350761435L1179.727125,104.31184922456775L1182.4964375,-100.52772308587973L1185.26575,810.2446422457693L1188.0350624999999,190.18683587312725L1190.804375,374.28178791999824L1193.5736875,-3.2256960391993603L1196.343,283.16039596796054L1199.1123125,106.51568775177036L1201.881625,224.98422716856024L1204.6509375,-320.1784610271447L1212.958875,-142.24504376649801L1215.7281875,147.40158324241668L1218.4975,408.5578531503678L1221.2668125,296.857564198971L1224.036125,299.19173424243945L1226.8054375,248.75624631643316L1229.57475,1.8982425808910826L1232.3440625,326.60011504888547L1235.1133750000001,221.4253902912142L1237.8826875,123.46833502054244L1240.652,330.7072431325914L1243.4213125,98.07559852600131L1246.190625,299.0473583817484" style="fill: none;" fill="none"></path></g></g></g></g></g></g><g transform="translate(72, 377)" clip-path="url(#clip_1)"><clipPath id="clip_1"><rect width="1384" height="23"></rect></clipPath><g><g><line x1="0" y1="0" x2="0" y2="5" style="visibility: inherit;" fill="rgb(0, 0, 0)" stroke="rgb(204, 204, 204)" stroke-width="1px"></line><line x1="138.46562500000002" y1="0" x2="138.46562500000002" y2="5" style="visibility: inherit;" fill="rgb(0, 0, 0)" stroke="rgb(204, 204, 204)" stroke-width="1px"></line><line x1="276.93125000000003" y1="0" x2="276.93125000000003" y2="5" style="visibility: inherit;" fill="rgb(0, 0, 0)" stroke="rgb(204, 204, 204)" stroke-width="1px"></line><line x1="415.39687499999997" y1="0" x2="415.39687499999997" y2="5" style="visibility: inherit;" fill="rgb(0, 0, 0)" stroke="rgb(204, 204, 204)" stroke-width="1px"></line><line x1="553.8625000000001" y1="0" x2="553.8625000000001" y2="5" style="visibility: inherit;" fill="rgb(0, 0, 0)" stroke="rgb(204, 204, 204)" stroke-width="1px"></line><line x1="692.328125" y1="0" x2="692.328125" y2="5" style="visibility: inherit;" fill="rgb(0, 0, 0)" stroke="rgb(204, 204, 204)" stroke-width="1px"></line><line x1="830.7937499999999" y1="0" x2="830.7937499999999" y2="5" style="visibility: inherit;" fill="rgb(0, 0, 0)" stroke="rgb(204, 204, 204)" stroke-width="1px"></line><line x1="969.259375" y1="0" x2="969.259375" y2="5" style="visibility: inherit;" fill="rgb(0, 0, 0)" stroke="rgb(204, 204, 204)" stroke-width="1px"></line><line x1="1107.7250000000001" y1="0" x2="1107.7250000000001" y2="5" style="visibility: inherit;" fill="rgb(0, 0, 0)" stroke="rgb(204, 204, 204)" stroke-width="1px"></line><line x1="1246.190625" y1="0" x2="1246.190625" y2="5" style="visibility: inherit;" fill="rgb(0, 0, 0)" stroke="rgb(204, 204, 204)" stroke-width="1px"></line><line x1="1384.65625" y1="0" x2="1384.65625" y2="5" style="visibility: inherit;" fill="rgb(0, 0, 0)" stroke="rgb(204, 204, 204)" stroke-width="1px"></line></g><g transform="translate(0, 8)"><text x="0" y="0" dx="0em" dy="0.95em" style="text-anchor: middle; visibility: hidden; font-family: Roboto, sans-serif; font-size: 12px; font-weight: 200;" fill="rgb(33, 33, 33)" stroke="none" stroke-width="1px">-50</text><text x="138.46562500000002" y="0" dx="0em" dy="0.95em" style="text-anchor: middle; visibility: inherit; font-family: Roboto, sans-serif; font-size: 12px; font-weight: 200;" fill="rgb(33, 33, 33)" stroke="none" stroke-width="1px">0</text><text x="276.93125000000003" y="0" dx="0em" dy="0.95em" style="text-anchor: middle; visibility: inherit; font-family: Roboto, sans-serif; font-size: 12px; font-weight: 200;" fill="rgb(33, 33, 33)" stroke="none" stroke-width="1px">50</text><text x="415.39687499999997" y="0" dx="0em" dy="0.95em" style="text-anchor: middle; visibility: inherit; font-family: Roboto, sans-serif; font-size: 12px; font-weight: 200;" fill="rgb(33, 33, 33)" stroke="none" stroke-width="1px">100</text><text x="553.8625000000001" y="0" dx="0em" dy="0.95em" style="text-anchor: middle; visibility: inherit; font-family: Roboto, sans-serif; font-size: 12px; font-weight: 200;" fill="rgb(33, 33, 33)" stroke="none" stroke-width="1px">150</text><text x="692.328125" y="0" dx="0em" dy="0.95em" style="text-anchor: middle; visibility: inherit; font-family: Roboto, sans-serif; font-size: 12px; font-weight: 200;" fill="rgb(33, 33, 33)" stroke="none" stroke-width="1px">200</text><text x="830.7937499999999" y="0" dx="0em" dy="0.95em" style="text-anchor: middle; visibility: inherit; font-family: Roboto, sans-serif; font-size: 12px; font-weight: 200;" fill="rgb(33, 33, 33)" stroke="none" stroke-width="1px">250</text><text x="969.259375" y="0" dx="0em" dy="0.95em" style="text-anchor: middle; visibility: inherit; font-family: Roboto, sans-serif; font-size: 12px; font-weight: 200;" fill="rgb(33, 33, 33)" stroke="none" stroke-width="1px">300</text><text x="1107.7250000000001" y="0" dx="0em" dy="0.95em" style="text-anchor: middle; visibility: inherit; font-family: Roboto, sans-serif; font-size: 12px; font-weight: 200;" fill="rgb(33, 33, 33)" stroke="none" stroke-width="1px">350</text><text x="1246.190625" y="0" dx="0em" dy="0.95em" style="text-anchor: middle; visibility: inherit; font-family: Roboto, sans-serif; font-size: 12px; font-weight: 200;" fill="rgb(33, 33, 33)" stroke="none" stroke-width="1px">400</text><text x="1384.65625" y="0" dx="0em" dy="0.95em" style="text-anchor: middle; visibility: hidden; font-family: Roboto, sans-serif; font-size: 12px; font-weight: 200;" fill="rgb(33, 33, 33)" stroke="none" stroke-width="1px">450</text></g><line x1="0" y1="0" x2="1384.65625" y2="0" fill="rgb(0, 0, 0)" stroke="rgb(204, 204, 204)" stroke-width="1px"></line></g></g></g></g></svg>