<svg viewBox="0 0 1457 400" xmlns="http://www.w3.org/2000/svg"><g><g><g><g><g><line x1="72.34375" y1="350.0714285714287" x2="67.34375" y2="350.0714285714287" style="visibility: inherit;" fill="rgb(0, 0, 0)" stroke="rgb(204, 204, 204)" stroke-width="1px"></line><line x1="72.34375" y1="323.1428571428574" x2="67.34375" y2="323.1428571428574" style="visibility: inherit;" fill="rgb(0, 0, 0)" stroke="rgb(204, 204, 204)" stroke-width="1px"></line><line x1="72.34375" y1="296.2142857142861" x2="67.34375" y2="296.2142857142861" style="visibility: inherit;" fill="rgb(0, 0, 0)" stroke="rgb(204, 204, 204)" stroke-width="1px"></line><line x1="72.34375" y1="269.28571428571485" x2="67.34375" y2="269.28571428571485" style="visibility: inherit;" fill="rgb(0, 0, 0)" stroke="rgb(204, 204, 204)" stroke-width="1px"></line><line x1="72.34375" y1="242.35714285714351" x2="67.34375" y2="242.35714285714351" style="visibility: inherit;" fill="rgb(0, 0, 0)" stroke="rgb(204, 204, 204)" stroke-width="1px"></line><line x1="72.34375" y1="215.4285714285713" x2="67.34375" y2="215.4285714285713" style="visibility: inherit;" fill="rgb(0, 0, 0)" stroke="rgb(204, 204, 204)" stroke-width="1px"></line><line x1="72.34375" y1="188.5" x2="67.34375" y2="188.5" style="visibility: inherit;" fill="rgb(0, 0, 0)" stroke="rgb(204, 204, 204)" stroke-width="1px"></line><line x1="72.34375" y1="161.5714285714287" x2="67.34375" y2="161.5714285714287" style="visibility: inherit;" fill="rgb(0, 0, 0)" stroke="rgb(204, 204, 204)" stroke-width="1px"></line><line x1="72.34375" y1="134.64285714285742" x2="67.34375" y2="134.64285714285742" style="visibility: inherit;" fill="rgb(0, 0, 0)" stroke="rgb(204, 204, 204)" stroke-width="1px"></line><line x1="72.34375" y1="107.71428571428612" x2="67.34375" y2="107.71428571428612" style="visibility: inherit;" fill="rgb(0, 0, 0)" stroke="rgb(204, 204, 204)" stroke-width="1px"></line><line x1="72.34375" y1="80.78571428571483" x2="67.34375" y2="80.78571428571483" style="visibility: inherit;" fill="rgb(0, 0, 0)" stroke="rgb(204, 204, 204)" stroke-width="1px"></line><line x1="72.34375" y1="53.857142857142584" x2="67.34375" y2="53.857142857142584" style="visibility: inherit;" fill="rgb(0, 0, 0)" stroke="rgb(204, 204, 204)" stroke-width="1px"></line><line x1="72.34375" y1="26.928571428571292" x2="67.34375" y2="26.928571428571292" style="visibility: inherit;" fill="rgb(0, 0, 0)" stroke="rgb(204, 204, 204)" stroke-width="1px"></line><line x1="72.34375" y1="0" x2="67.34375" y2="0" style="visibility: inherit;" fill="rgb(0, 0, 0)" stroke="rgb(204, 204, 204)" stroke-width="1px"></line></g><g transform="translate(62.34375, 0)"><text x="0" y="350.0714285714287" dx="0em" dy="0.3em" style="text-anchor: end; visibility: inherit; font-family: Roboto, sans-serif; font-size: 12px; font-weight: 200;" fill="rgb(33, 33, 33)" stroke="none" stroke-width="1px">0.0239</text><text x="0" y="323.1428571428574" dx="0em" dy="0.3em" style="text-anchor: end; visibility: inherit; font-family: Roboto, sans-serif; font-size: 12px; font-weight: 200;" fill="rgb(33, 33, 33)" stroke="none" stroke-width="1px">0.024</text><text x="0" y="296.2142857142861" dx="0em" dy="0.3em" style="text-anchor: end; visibility: inherit; font-family: Roboto, sans-serif; font-size: 12px; font-weight: 200;" fill="rgb(33, 33, 33)" stroke="none" stroke-width="1px">0.0241</text><text x="0" y="269.28571428571485" dx="0em" dy="0.3em" style="text-anchor: end; visibility: inherit; font-family: Roboto, sans-serif; font-size: 12px; font-weight: 200;" fill="rgb(33, 33, 33)" stroke="none" stroke-width="1px">0.0242</text><text x="0" y="242.35714285714351" dx="0em" dy="0.3em" style="text-anchor: end; visibility: inherit; font-family: Roboto, sans-serif; font-size: 12px; font-weight: 200;" fill="rgb(33, 33, 33)" stroke="none" stroke-width="1px">0.0243</text><text x="0" y="215.4285714285713" dx="0em" dy="0.3em" style="text-anchor: end; visibility: inherit; font-family: Roboto, sans-serif; font-size: 12px; font-weight: 200;" fill="rgb(33, 33, 33)" stroke="none" stroke-width="1px">0.0244</text><text x="0" y="188.5" dx="0em" dy="0.3em" style="text-anchor: end; visibility: inherit; font-family: Roboto, sans-serif; font-size: 12px; font-weight: 200;" fill="rgb(33, 33, 33)" stroke="none" stroke-width="1px">0.0245</text><text x="0" y="161.5714285714287" dx="0em" dy="0.3em" style="text-anchor: end; visibility: inherit; font-family: Roboto, sans-serif; font-size: 12px; font-weight: 200;" fill="rgb(33, 33, 33)" stroke="none" stroke-width="1px">0.0246</text><text x="0" y="134.64285714285742" dx="0em" dy="0.3em" style="text-anchor: end; visibility: inherit; font-family: Roboto, sans-serif; font-size: 12px; font-weight: 200;" fill="rgb(33, 33, 33)" stroke="none" stroke-width="1px">0.0247</text><text x="0" y="107.71428571428612" dx="0em" dy="0.3em" style="text-anchor: end; visibility: inherit; font-family: Roboto, sans-serif; font-size: 12px; font-weight: 200;" fill="rgb(33, 33, 33)" stroke="none" stroke-width="1px">0.0248</text><text x="0" y="80.78571428571483" dx="0em" dy="0.3em" style="text-anchor: end; visibility: inherit; font-family: Roboto, sans-serif; font-size: 12px; font-weight: 200;" fill="rgb(33, 33, 33)" stroke="none" stroke-width="1px">0.0249</text><text x="0" y="53.857142857142584" dx="0em" dy="0.3em" style="text-anchor: end; visibility: inherit; font-family: Roboto, sans-serif; font-size: 12px; font-weight: 200;" fill="rgb(33, 33, 33)" stroke="none" stroke-width="1px">0.025</text><text x="0" y="26.928571428571292" dx="0em" dy="0.3em" style="text-anchor: end; visibility: inherit; font-family: Roboto, sans-serif; font-size: 12px; font-weight: 200;" fill="rgb(33, 33, 33)" stroke="none" stroke-width="1px">0.0251</text><text x="0" y="0" dx="0em" dy="0.3em" style="text-anchor: end; visibility: hidden; font-family: Roboto, sans-serif; font-size: 12px; font-weight: 200;" fill="rgb(33, 33, 33)" stroke="none" stroke-width="1px">0.0252</text></g><line x1="72.34375" y1="0" x2="72.34375" y2="377" fill="rgb(0, 0, 0)" stroke="rgb(204, 204, 204)" stroke-width="1px"></line></g></g><g transform="translate(72, 0)" clip-path="url(#clip_0)"><clipPath id="clip_0"><rect width="1384" height="377"></rect></clipPath><g><g><g><line x1="0" y1="0" x2="0" y2="377" fill="rgb(0, 0, 0)" stroke="rgb(66, 66, 66)" stroke-width="1px" opacity="0.25"></line><line x1="138.46562500000002" y1="0" x2="138.46562500000002" y2="377" fill="rgb(0, 0, 0)" stroke="rgb(66, 66, 66)" stroke-width="1px" opacity="0.25"></line><line x1="276.93125000000003" y1="0" x2="276.93125000000003" y2="377" fill="rgb(0, 0, 0)" stroke="rgb(66, 66, 66)" stroke-width="1px" opacity="0.25"></line><line x1="415.39687499999997" y1="0" x2="415.39687499999997" y2="377" fill="rgb(0, 0, 0)" stroke="rgb(66, 66, 66)" stroke-width="1px" opacity="0.25"></line><line x1="553.8625000000001" y1="0" x2="553.8625000000001" y2="377" fill="rgb(0, 0, 0)" stroke="rgb(66, 66, 66)" stroke-width="1px" opacity="0.25"></line><line x1="692.328125" y1="0" x2="692.328125" y2="377" fill="rgb(0, 0, 0)" stroke="rgb(66, 66, 66)" stroke-width="1px" opacity="0.25"></line><line x1="830.7937499999999" y1="0" x2="830.7937499999999" y2="377" fill="rgb(0, 0, 0)" stroke="rgb(66, 66, 66)" stroke-width="1px" opacity="0.25"></line><line x1="969.259375" y1="0" x2="969.259375" y2="377" fill="rgb(0, 0, 0)" stroke="rgb(66, 66, 66)" stroke-width="1px" opacity="0.25"></line><line x1="1107.7250000000001" y1="0" x2="1107.7250000000001" y2="377" fill="rgb(0, 0, 0)" stroke="rgb(66, 66, 66)" stroke-width="1px" opacity="0.25"></line><line x1="1246.190625" y1="0" x2="1246.190625" y2="377" fill="rgb(0, 0, 0)" stroke="rgb(66, 66, 66)" stroke-width="1px" opacity="0.25"></line><line x1="1384.65625" y1="0" x2="1384.65625" y2="377" fill="rgb(0, 0, 0)" stroke="rgb(66, 66, 66)" stroke-width="1px" opacity="0.25"></line></g><g><line x1="0" y1="350.0714285714287" x2="1384.65625" y2="350.0714285714287" fill="rgb(0, 0, 0)" stroke="rgb(66, 66, 66)" stroke-width="1px" opacity="0.25"></line><line x1="0" y1="323.1428571428574" x2="1384.65625" y2="323.1428571428574" fill="rgb(0, 0, 0)" stroke="rgb(66, 66, 66)" stroke-width="1px" opacity="0.25"></line><line x1="0" y1="296.2142857142861" x2="1384.65625" y2="296.2142857142861" fill="rgb(0, 0, 0)" stroke="rgb(66, 66, 66)" stroke-width="1px" opacity="0.25"></line><line x1="0" y1="269.28571428571485" x2="1384.65625" y2="269.28571428571485" fill="rgb(0, 0, 0)" stroke="rgb(66, 66, 66)" stroke-width="1px" opacity="0.25"></line><line x1="0" y1="242.35714285714351" x2="1384.65625" y2="242.35714285714351" fill="rgb(0, 0, 0)" stroke="rgb(66, 66, 66)" stroke-width="1px" opacity="0.25"></line><line x1="0" y1="215.4285714285713" x2="1384.65625" y2="215.4285714285713" fill="rgb(0, 0, 0)" stroke="rgb(66, 66, 66)" stroke-width="1px" opacity="0.25"></line><line x1="0" y1="188.5" x2="1384.65625" y2="188.5" fill="rgb(0, 0, 0)" stroke="rgb(66, 66, 66)" stroke-width="1px" opacity="0.25"></line><line x1="0" y1="161.5714285714287" x2="1384.65625" y2="161.5714285714287" fill="rgb(0, 0, 0)" stroke="rgb(66, 66, 66)" stroke-width="1px" opacity="0.25"></line><line x1="0" y1="134.64285714285742" x2="1384.65625" y2="134.64285714285742" fill="rgb(0, 0, 0)" stroke="rgb(66, 66, 66)" stroke-width="1px" opacity="0.25"></line><line x1="0" y1="107.71428571428612" x2="1384.65625" y2="107.71428571428612" fill="rgb(0, 0, 0)" stroke="rgb(66, 66, 66)" stroke-width="1px" opacity="0.25"></line><line x1="0" y1="80.78571428571483" x2="1384.65625" y2="80.78571428571483" fill="rgb(0, 0, 0)" stroke="rgb(66, 66, 66)" stroke-width="1px" opacity="0.25"></line><line x1="0" y1="53.857142857142584" x2="1384.65625" y2="53.857142857142584" fill="rgb(0, 0, 0)" stroke="rgb(66, 66, 66)" stroke-width="1px" opacity="0.25"></line><line x1="0" y1="26.928571428571292" x2="1384.65625" y2="26.928571428571292" fill="rgb(0, 0, 0)" stroke="rgb(66, 66, 66)" stroke-width="1px" opacity="0.25"></line><line x1="0" y1="0" x2="1384.65625" y2="0" fill="rgb(0, 0, 0)" stroke="rgb(66, 66, 66)" stroke-width="1px" opacity="0.25"></line></g></g></g><g><g><line x1="0" y1="6786.000000000008" x2="1384.65625" y2="6786.000000000008" fill="rgb(0, 0, 0)" stroke="rgb(153, 153, 153)" stroke-width="1.5px"></line></g></g><g><g><line x1="138.46562500000002" y1="0" x2="138.46562500000002" y2="377" fill="rgb(0, 0, 0)" stroke="rgb(153, 153, 153)" stroke-width="1.5px"></line></g></g><g><g><g><g><g><path stroke="rgb(255, 112, 67)" stroke-width="2px" d="M188.31325,-19.47205093463569L191.08256250000002,17.918784380059794L193.851875,8.848932568410628L196.6211875,34.6652432571192L199.39049999999997,60.26624763373905L202.1598125,70.87950040128814L204.929125,40.02325165680767L207.69843749999998,44.55912281743886L210.46775,47.62323446048388L213.2370625,47.969862356035804L216.006375,80.89130191554739L218.7756875,67.93914747536466L221.54500000000002,112.6939866128125L224.3143125,132.55354721891763L227.083625,140.7319486095633L229.85293750000002,155.78870124267905L232.62225,162.50827658242287L235.39156250000002,130.97595539845668L238.16087499999998,148.28164131038483L240.9301875,142.74940858272785L243.69949999999997,158.30423692463253L246.46881249999998,134.58074599156254L249.238125,128.40013947236358L252.00743749999998,145.37254735035674L254.77675,135.87735266145125L257.5460625,135.2227723308947L260.315375,137.11194191984106L263.08468750000003,113.4844809679804L265.854,69.04338502458813L268.6233125,63.51512795813388L271.392625,75.54528937816248L274.1619375,61.951463072416765L276.93125000000003,82.55507820681784L279.7005625,71.68557545309892L282.469875,63.591183983180954L285.23918749999996,78.81077623620492L288.00849999999997,97.81564778333801L290.7778125,97.73251766367856L293.547125,76.7520733664355L296.3164375,91.84948264148579L299.08575,89.18889535730587L301.8550625,101.32274828919445L304.624375,103.45326051275873L307.3936875,113.51042098722215L310.163,124.4273859709524L312.9323125,106.74646729533896L315.70162500000004,102.30993970045019L318.4709375,115.71260367844347L321.24025,122.49645563859413L324.0095625,127.81270516861301L326.77887499999997,123.4507426090721L329.5481875,117.24447968509236L332.3175,127.41672257289929L335.0868125,123.2143783444703L337.856125,105.2761145317299L340.6254375,99.86795678642291L343.39475,97.56324480269639L346.1640625,93.25209482455541L348.933375,108.35077696126233L351.7026875,104.01491192797684L354.472,101.58418585415039L357.2413125,114.75385675680968L360.010625,122.92671837260498L362.7799375,116.9906862079615L365.54925000000003,116.91524023532247L368.31856250000004,108.19056533819494L371.087875,101.45236216908302L373.8571875,112.51690676654573L376.6265,107.47652246469313L379.39581250000003,106.86630672163363L382.16512500000005,120.18006963946436L384.93443750000006,124.89451063274535L387.70375,115.47649156116105L390.47306249999997,128.77111161277006L393.242375,134.37874430014543L396.0116875,138.5064716134119L398.78099999999995,138.08200155971605L401.55031249999996,134.49734588009662L404.319625,139.74544976540125L407.0889375,153.7307920826177L409.85825,124.40359978664672L412.6275625,125.01873791374445L415.39687499999997,108.75510474812964L418.1661875,117.60589894585283L420.9355,123.92248587359872L423.7048125,134.25393533374407L426.474125,136.0002017594802L429.24343749999997,138.67391474281422L432.01275,150.01549880675876L434.7820625,152.63199832367113L437.551375,160.3692817245595L440.3206875,167.97984444898995L443.09000000000003,168.75747520628104L445.8593125,179.2831018993087L448.628625,179.8108947513016L451.3979375,189.99922877722312L454.16725,186.48204184532935L456.93656250000004,185.43267254115034L459.70587500000005,193.60929926733326L462.4751875,196.19075082368042L465.2445,188.36646113670992L468.01381250000003,168.16972224601847L470.78312500000004,161.5949778857996L473.55243750000005,158.5222409533363L476.32174999999995,164.61584502064863L479.09106249999996,167.77445832352456L481.860375,171.3186070630603L484.6296875,174.46473240728534L487.39899999999994,180.49071408063477L490.16831249999996,179.31338252518108L492.93762499999997,183.57006068072698L495.7069375,185.03726353242195L498.47625,190.53450161515573L501.2455625,196.53509321669637L504.01487499999996,199.45085487630863L506.7841875,206.06511771529557L509.5535,204.88293463785308L512.3228124999999,210.76775182241633L515.092125,215.82766461558828L517.8614375,218.34182862149743L520.63075,223.8601098366113L523.4000625,217.77777882363367L526.1693750000001,218.8691240477658L528.9386875,214.29635823337415L531.708,207.2724207829455L534.4773125,212.69691202255842L537.246625,212.7868527490206L540.0159375000001,218.5624820665704L542.78525,220.5815924343057L545.5545625,230.34650090648609L548.323875,238.06252770590345L551.0931875,243.82022137479922L553.8625000000001,246.11720468098733L556.6318125,244.43257295477403L559.401125,234.5050651267117L562.1704375,234.67030102935067L564.93975,237.9671727411406L567.7090625,239.8321172025967L570.4783749999999,240.76319957273446L573.2476875,241.04990982686684L576.0169999999999,246.2450200636617L578.7863125,242.02457701418976L581.555625,241.8232821897824L584.3249375,246.70693231764997L587.09425,245.24823455830023L589.8635625,244.95242119623114L592.632875,237.36585533662475L595.4021875,237.81909206580622L598.1715,239.61803725059977L600.9408125,246.1140174315071L603.710125,243.51520206739286L606.4794375,247.0062388208619L609.24875,248.27747693431826L612.0180625,255.65663973811394L614.787375,254.81043790975244L617.5566875000001,257.7141926045124L620.326,261.63493155364347L623.0953125,262.68268843817015L625.864625,267.91970793950816L628.6339375,267.0643822579152L631.4032500000001,266.66475531028294L634.1725625,273.74148732493353L636.941875,282.1340113657306L639.7111875,286.68994674833334L642.4805,283.88712512353675L645.2498125000001,287.74066220801484L648.019125,289.11983419929686L650.7884375,279.31791592540077L653.5577499999999,280.8785195727716L656.3270625,284.6246289588044L659.096375,281.21108954513977L661.8656874999999,279.1247876415871L664.635,275.1463551230992L667.4043125,275.2440349363398L670.173625,279.9808091937735L672.9429375,282.4883885853322L675.71225,273.763437643413L678.4815625,274.01932920887384L681.250875,276.9248055975066L684.0201875,278.74101038552607L686.7895,281.2409023033526L689.5588125,278.723016816127L692.328125,280.2566750536864L695.0974375,282.6425893548372L697.86675,281.3609637426995L700.6360625,283.6955334360204L703.405375,281.49085314348366L706.1746875,282.6118843364634L708.944,287.89035616035727L711.7133125,288.1083900862912L714.482625,288.719526790319L717.2519375,286.963175081712L720.02125,285.06339099008113L722.7905625000001,289.20214771453533L725.559875,288.2787948687698L728.3291875,287.64369633217046L731.0985000000001,287.0513823614318L733.8678125,284.6148935156803L736.6371250000001,287.6126658543383L739.4064375,292.8966460917184L742.17575,290.88683103440314L744.9450625000001,293.389492726777L747.714375,297.6323997662932L750.4836875000001,301.97989118380605L753.253,303.65595996321025L756.0223125000001,306.11241338414806L758.7916250000001,302.08571285233063L761.5609375,306.33098731499354L764.3302500000001,306.5619792929394L767.0995625,304.8050536395021L769.8688750000001,302.2079699184107L772.6381875000001,306.21488999396774L775.4075,305.87762754620934L778.1768125000001,310.01973102061095L780.9461249999999,310.40918285862824L783.7154374999999,307.92928317928846L786.48475,304.8946979722803L789.2540624999999,309.7289930327245L792.023375,309.2840743472743L794.7926874999999,308.0578707614769L797.5619999999999,308.3959949059318L800.3313125,307.75358084534304L803.1006249999999,308.7430614441577L805.8699375,307.1542957285906L808.63925,312.2031413565577L811.4085624999999,310.19067228729983L814.177875,311.1322960019056L816.9471874999999,316.2949784408582L819.7165,312.6501601366311L822.4858125,313.45265901866725L825.255125,315.58586070263374L828.0244375,316.3755495068847L830.7937499999999,317.0703493681557L833.5630625,315.63944272313034L836.332375,314.20663650916345L839.1016875,310.4052650926294L841.871,310.12008766170214L844.6403124999999,311.6678289642883L847.409625,312.5438433132743L850.1789375,308.6364822092489L852.94825,310.64280623668935L855.7175625,313.78817641229944L858.4868749999999,315.68186585331006L861.2561875,315.3348811365639L864.0255,317.6563797391845L866.7948125,320.4113294548289L869.564125,316.148945546103L872.3334375000001,318.7711315579746L875.10275,320.6015091571521L877.8720625,313.44906217537135L880.641375,314.92842423604634L883.4106875,316.08487029439704L886.1800000000001,320.4291526310552L888.9493125,321.0915440196901L891.718625,311.8972306837656L894.4879375,314.5347770810707L897.25725,313.57806902083047L900.0265625000001,313.09235956977506L902.795875,316.9599718756324L905.5651875,314.44776453696323L908.3345,318.45157251521186L911.1038125,324.1637926935994L913.8731250000001,324.1981519961792L916.6424375,328.15708240572616L919.4117500000001,328.41942820915347L922.1810625,329.96618035872973L924.950375,331.02247033570916L927.7196875000001,329.08828041916297L930.489,332.5929878780891L933.2583125000001,334.2424635491591L936.0276250000001,338.0868009463066L938.7969375,341.4477686187409L941.5662500000001,342.8321386613125L944.3355625,346.70619300760336L947.1048750000001,346.9183074116031L949.8741875000001,347.5853844166228L952.6434999999999,349.5336700792828L955.4128125,349.9997074640355L958.1821249999999,348.461378660556L960.9514374999999,346.295273630441L963.72075,346.54478453060835L966.4900624999999,349.6210467144092L969.259375,352.1153157960541L972.0286874999999,356.07862756287096L974.7979999999999,358.5988507329868L977.5673125,359.43733049610677L980.3366249999999,355.4197069615668L983.1059375,354.88862224440635L985.8752499999999,354.98894585007315L988.6445625,353.5216186611345L991.413875,347.7076393982914L994.1831874999999,345.02262649917276L996.9525,343.3319914233663L999.7218124999999,344.6653296006573L1002.491125,341.5534354921553L1005.2604375,343.38993819418033L1008.0297499999999,345.8820163874046L1010.7990625,346.32782826727237L1013.568375,343.6649325470796L1016.3376875,345.661468352997L1019.107,343.78110271063036L1021.8763125,344.34344447750084L1024.6456249999999,343.6489582349923L1027.4149375,340.3705690855721L1030.18425,340.9013802118253L1032.9535625,335.9059888337401L1035.722875,338.3886301159516L1038.4921875,342.15057977494337L1041.2615,338.70082402537747L1044.0308125,340.2934504111843L1046.800125,333.8304232409232L1049.5694375,338.0212250417789L1052.3387500000001,336.9790700300172L1055.1080625,337.0279126068757L1057.877375,338.3259602467033L1060.6466875,340.0949573220008L1063.416,335.82710711283823L1066.1853125,338.5900245985461L1068.954625,339.71750540749866L1071.7239375,338.22407502768147L1074.49325,339.4957069454931L1077.2625625,338.90310880386426L1080.0318750000001,339.4803241718551L1082.8011875,337.48911978385684L1085.5705,339.233773909663L1088.3398125,338.60470167045327L1091.109125,338.8149374940122L1093.8784375,340.27415816225647L1096.64775,336.97337752203623L1099.4170625000002,337.94818646782056L1102.186375,339.46302234057913L1104.9556875,342.37925092467015L1107.7250000000001,344.12941374983126L1110.4943125,346.9185608169513L1113.263625,348.8115621381128L1116.0329375000001,346.742787958339L1118.80225,348.59984098830046L1121.5715625,349.5434721345918L1124.340875,347.50642293468576L1127.1101875,349.3311799903079L1129.8795,350.12408589926713L1132.6488124999998,346.4235827883821L1135.418125,345.8892949321644L1138.1874375,349.31268199303804L1140.9567499999998,347.2989753280955L1143.7260625,349.8448607096649L1146.495375,350.4437804330981L1149.2646875,351.57615032146134L1152.0339999999999,354.58028679468015L1154.8033125,350.5900506909391L1157.572625,350.78936794567363L1160.3419374999999,350.52351985052184L1163.11125,347.37431139073885L1165.8805625,350.67778208681983L1168.649875,347.9140782358303L1171.4191875,345.7010599848563L1174.1885,343.91895280553445L1176.9578125,344.13952530022937L1179.727125,344.93754336570765L1182.4964375,346.70750053582884L1185.26575,343.6202435379637L1188.0350624999999,344.7066740356614L1190.804375,343.60231335227L1193.5736875,345.2476085261634L1196.343,341.0115471856369L1199.1123125,341.64077253325223L1201.881625,340.0857231676283L1204.6509375,342.32014351791287L1207.42025,339.4600557657628L1210.1895625,341.3149048853835L1212.958875,342.2573649672839L1215.7281875,343.2501106873235L1218.4975,341.8106511724681L1221.2668125,343.22190735798944L1224.036125,340.9452668767194L1226.8054375,342.4881425547845L1229.57475,346.1712676622223L1232.3440625,344.72576833028165L1235.1133750000001,345.38850621546163L1237.8826875,347.8959023565605L1240.652,349.1984344963125L1243.4213125,349.83166556892553L1246.190625,349.2543393975343" style="fill: none;" fill="none"></path></g></g></g></g><g opacity="0.2"><g><g><g><path stroke="rgb(255, 112, 67)" stroke-width="2px" d="M160.620125,520.8635960370309L163.38943749999999,160.82228076883746L166.15875,-223.5052170966355L171.697375,-533.3465279681348L174.4666875,304.9413305904188L177.236,995.3101409929152L199.39049999999997,592.0127464788308L202.1598125,301.70461078413933L204.929125,-661.216271289758L207.69843749999998,152.06964468956014L210.46775,123.23811033581002L213.2370625,56.861529079931245L216.006375,957.4330456618763L254.77675,-245.3582170222489L257.5460625,108.31348646538613L260.315375,216.58384555791136L263.08468750000003,-903.064396545292L288.00849999999997,1078.343314737083L290.7778125,93.36478657594765L293.547125,-1045.4364302371241L301.8550625,784.7141931695606L304.624375,225.45435381361446L307.3936875,698.8922138895316L362.7799375,-339.15587918460403L365.54925000000003,111.04812095846465L368.31856250000004,-578.328556827137L376.6265,-303.03884116028064L379.39581250000003,56.6072261290892L382.16512500000005,1228.9428263434356L396.0116875,501.12276519622185L398.78099999999995,100.40601897026828L401.55031249999996,-186.93976321816461L409.85825,-2585.298479714567L412.6275625,182.41245082020785L415.39687499999997,-1423.4068559152754L423.7048125,1135.5730151023197L426.474125,306.8227711596663L429.24343749999997,402.6302793260137L440.3206875,946.6810968369256L443.09000000000003,249.0207637591025L445.8593125,1275.1161165599326L448.628625,235.23222703593146L451.3979375,1268.9421224338682L454.16725,-189.1286746135781L456.93656250000004,72.43118962645543L459.70587500000005,1081.3984612332936L487.39899999999994,888.1864023059617L490.16831249999996,40.008817353419005L492.93762499999997,690.97872738966L495.7069375,361.2230377069546L498.47625,855.4896637329043L506.7841875,1023.5427843736763L509.5535,57.73829743904737L512.3228124999999,948.388989435776L523.4000625,-565.824074451413L526.1693750000001,360.4195005723413L528.9386875,-382.77861613673855L534.4773125,930.4001905620108L537.246625,224.76467618559118L540.0159375000001,992.7304958722432L553.8625000000001,563.9200449585921L556.6318125,9.902758743081845L559.401125,-1156.110880145006L562.1704375,257.9579826508253L564.93975,705.4439005638881L567.7090625,505.868750444481L570.4783749999999,374.3805820984505L573.2476875,282.4402844863282L576.0169999999999,1000.6670552236704L578.7863125,-374.461856318372L581.555625,212.24815580035988L584.3249375,968.3956596532049L587.09425,28.445306054183476L589.8635625,200.7348028740715L592.632875,-903.1045232436495L595.4021875,306.3377396932674L598.1715,513.1010862397302L612.0180625,1408.6547591920425L614.787375,121.87781526148336L617.5566875000001,716.3192389862886L625.864625,1108.2301812576409L628.6339375,129.1051352194379L631.4032500000001,201.87239477251288L634.1725625,1427.0292759537713L664.635,-409.61936466821646L667.4043125,292.13740272820036L670.173625,1103.101487623795L675.71225,-1256.7852552384152L678.4815625,319.11909628765966L681.250875,791.3927805274735L695.0974375,714.8982522806959L697.86675,48.12093101016124L700.6360625,710.4657568633564L708.944,1265.7314849815211L711.7133125,328.6767742527387L714.482625,402.92721689386076L722.7905625000001,1072.7160468761422L725.559875,112.72993120338252L728.3291875,166.38434274494668L731.0985000000001,173.48225410069762L733.8678125,-184.51962172346475L761.5609375,1157.8212630067567L764.3302500000001,353.07731794033776L767.0995625,-50.3921197929553L772.6381875000001,1122.6752910826901L775.4075,236.88795492691685L778.1768125000001,1160.610068542618L789.2540624999999,1317.7863460098008L792.023375,216.1569978041311L794.7926874999999,50.429720916918455L797.5619999999999,379.70338863560175L800.3313125,171.7678409133641L803.1006249999999,518.9746317118412L839.1016875,-535.8955764813088L841.871,246.40951886347395L844.6403124999999,658.644132269281L858.4868749999999,747.5353023899462L861.2561875,235.93795534329783L864.0255,850.6488791597752L894.4879375,942.3002645437218L897.25725,85.14282608245114L900.0265625000001,196.74921855969114L902.795875,1246.3156803974098L911.1038125,1709.7524624913951L913.8731250000001,332.5585307351185L916.6424375,1294.4441439913867L980.3366249999999,-694.1898840814836L983.1059375,215.75021339952974L985.8752499999999,381.3465769333503L1021.8763125,497.43562320087693L1024.6456249999999,154.07698277490502L1027.4149375,-556.9024046553038L1049.5694375,1509.2473761375477L1052.3387500000001,44.972489940268744L1055.1080625,350.7484646844017L1057.877375,703.8975179259274L1074.49325,703.0874602028309L1077.2625625,169.0417333436866L1080.0318750000001,505.3435922797243L1085.5705,843.0433650697989L1088.3398125,156.49862902079332L1091.109125,399.8239183596207L1132.6488124999998,-766.5067214454932L1135.418125,184.82857964507195L1138.1874375,1383.6783973830102L1157.572625,411.9818063782799L1160.3419374999999,268.72146790155375L1163.11125,-623.8211979227412L1243.4213125,557.6221596513482L1246.190625,159.42135741242362" style="fill: none;" fill="none"></path></g></g></g></g></g></g><g transform="translate(72, 377)" clip-path="url(#clip_1)"><clipPath id="clip_1"><rect width="1384" height="23"></rect></clipPath><g><g><line x1="0" y1="0" x2="0" y2="5" style="visibility: inherit;" fill="rgb(0, 0, 0)" stroke="rgb(204, 204, 204)" stroke-width="1px"></line><line x1="138.46562500000002" y1="0" x2="138.46562500000002" y2="5" style="visibility: inherit;" fill="rgb(0, 0, 0)" stroke="rgb(204, 204, 204)" stroke-width="1px"></line><line x1="276.93125000000003" y1="0" x2="276.93125000000003" y2="5" style="visibility: inherit;" fill="rgb(0, 0, 0)" stroke="rgb(204, 204, 204)" stroke-width="1px"></line><line x1="415.39687499999997" y1="0" x2="415.39687499999997" y2="5" style="visibility: inherit;" fill="rgb(0, 0, 0)" stroke="rgb(204, 204, 204)" stroke-width="1px"></line><line x1="553.8625000000001" y1="0" x2="553.8625000000001" y2="5" style="visibility: inherit;" fill="rgb(0, 0, 0)" stroke="rgb(204, 204, 204)" stroke-width="1px"></line><line x1="692.328125" y1="0" x2="692.328125" y2="5" style="visibility: inherit;" fill="rgb(0, 0, 0)" stroke="rgb(204, 204, 204)" stroke-width="1px"></line><line x1="830.7937499999999" y1="0" x2="830.7937499999999" y2="5" style="visibility: inherit;" fill="rgb(0, 0, 0)" stroke="rgb(204, 204, 204)" stroke-width="1px"></line><line x1="969.259375" y1="0" x2="969.259375" y2="5" style="visibility: inherit;" fill="rgb(0, 0, 0)" stroke="rgb(204, 204, 204)" stroke-width="1px"></line><line x1="1107.7250000000001" y1="0" x2="1107.7250000000001" y2="5" style="visibility: inherit;" fill="rgb(0, 0, 0)" stroke="rgb(204, 204, 204)" stroke-width="1px"></line><line x1="1246.190625" y1="0" x2="1246.190625" y2="5" style="visibility: inherit;" fill="rgb(0, 0, 0)" stroke="rgb(204, 204, 204)" stroke-width="1px"></line><line x1="1384.65625" y1="0" x2="1384.65625" y2="5" style="visibility: inherit;" fill="rgb(0, 0, 0)" stroke="rgb(204, 204, 204)" stroke-width="1px"></line></g><g transform="translate(0, 8)"><text x="0" y="0" dx="0em" dy="0.95em" style="text-anchor: middle; visibility: hidden; font-family: Roboto, sans-serif; font-size: 12px; font-weight: 200;" fill="rgb(33, 33, 33)" stroke="none" stroke-width="1px">-50</text><text x="138.46562500000002" y="0" dx="0em" dy="0.95em" style="text-anchor: middle; visibility: inherit; font-family: Roboto, sans-serif; font-size: 12px; font-weight: 200;" fill="rgb(33, 33, 33)" stroke="none" stroke-width="1px">0</text><text x="276.93125000000003" y="0" dx="0em" dy="0.95em" style="text-anchor: middle; visibility: inherit; font-family: Roboto, sans-serif; font-size: 12px; font-weight: 200;" fill="rgb(33, 33, 33)" stroke="none" stroke-width="1px">50</text><text x="415.39687499999997" y="0" dx="0em" dy="0.95em" style="text-anchor: middle; visibility: inherit; font-family: Roboto, sans-serif; font-size: 12px; font-weight: 200;" fill="rgb(33, 33, 33)" stroke="none" stroke-width="1px">100</text><text x="553.8625000000001" y="0" dx="0em" dy="0.95em" style="text-anchor: middle; visibility: inherit; font-family: Roboto, sans-serif; font-size: 12px; font-weight: 200;" fill="rgb(33, 33, 33)" stroke="none" stroke-width="1px">150</text><text x="692.328125" y="0" dx="0em" dy="0.95em" style="text-anchor: middle; visibility: inherit; font-family: Roboto, sans-serif; font-size: 12px; font-weight: 200;" fill="rgb(33, 33, 33)" stroke="none" stroke-width="1px">200</text><text x="830.7937499999999" y="0" dx="0em" dy="0.95em" style="text-anchor: middle; visibility: inherit; font-family: Roboto, sans-serif; font-size: 12px; font-weight: 200;" fill="rgb(33, 33, 33)" stroke="none" stroke-width="1px">250</text><text x="969.259375" y="0" dx="0em" dy="0.95em" style="text-anchor: middle; visibility: inherit; font-family: Roboto, sans-serif; font-size: 12px; font-weight: 200;" fill="rgb(33, 33, 33)" stroke="none" stroke-width="1px">300</text><text x="1107.7250000000001" y="0" dx="0em" dy="0.95em" style="text-anchor: middle; visibility: inherit; font-family: Roboto, sans-serif; font-size: 12px; font-weight: 200;" fill="rgb(33, 33, 33)" stroke="none" stroke-width="1px">350</text><text x="1246.190625" y="0" dx="0em" dy="0.95em" style="text-anchor: middle; visibility: inherit; font-family: Roboto, sans-serif; font-size: 12px; font-weight: 200;" fill="rgb(33, 33, 33)" stroke="none" stroke-width="1px">400</text><text x="1384.65625" y="0" dx="0em" dy="0.95em" style="text-anchor: middle; visibility: hidden; font-family: Roboto, sans-serif; font-size: 12px; font-weight: 200;" fill="rgb(33, 33, 33)" stroke="none" stroke-width="1px">450</text></g><line x1="0" y1="0" x2="1384.65625" y2="0" fill="rgb(0, 0, 0)" stroke="rgb(204, 204, 204)" stroke-width="1px"></line></g></g></g></g></svg>