<svg viewBox="0 0 1457 400" xmlns="http://www.w3.org/2000/svg"><g><g><g><g><g><line x1="61.953125" y1="377" x2="56.953125" y2="377" style="visibility: inherit;" fill="rgb(0, 0, 0)" stroke="rgb(204, 204, 204)" stroke-width="1px"></line><line x1="61.953125" y1="345.5833333333333" x2="56.953125" y2="345.5833333333333" style="visibility: inherit;" fill="rgb(0, 0, 0)" stroke="rgb(204, 204, 204)" stroke-width="1px"></line><line x1="61.953125" y1="314.1666666666667" x2="56.953125" y2="314.1666666666667" style="visibility: inherit;" fill="rgb(0, 0, 0)" stroke="rgb(204, 204, 204)" stroke-width="1px"></line><line x1="61.953125" y1="282.75" x2="56.953125" y2="282.75" style="visibility: inherit;" fill="rgb(0, 0, 0)" stroke="rgb(204, 204, 204)" stroke-width="1px"></line><line x1="61.953125" y1="251.33333333333337" x2="56.953125" y2="251.33333333333337" style="visibility: inherit;" fill="rgb(0, 0, 0)" stroke="rgb(204, 204, 204)" stroke-width="1px"></line><line x1="61.953125" y1="219.91666666666663" x2="56.953125" y2="219.91666666666663" style="visibility: inherit;" fill="rgb(0, 0, 0)" stroke="rgb(204, 204, 204)" stroke-width="1px"></line><line x1="61.953125" y1="188.5" x2="56.953125" y2="188.5" style="visibility: inherit;" fill="rgb(0, 0, 0)" stroke="rgb(204, 204, 204)" stroke-width="1px"></line><line x1="61.953125" y1="157.08333333333331" x2="56.953125" y2="157.08333333333331" style="visibility: inherit;" fill="rgb(0, 0, 0)" stroke="rgb(204, 204, 204)" stroke-width="1px"></line><line x1="61.953125" y1="125.66666666666669" x2="56.953125" y2="125.66666666666669" style="visibility: inherit;" fill="rgb(0, 0, 0)" stroke="rgb(204, 204, 204)" stroke-width="1px"></line><line x1="61.953125" y1="94.25" x2="56.953125" y2="94.25" style="visibility: inherit;" fill="rgb(0, 0, 0)" stroke="rgb(204, 204, 204)" stroke-width="1px"></line><line x1="61.953125" y1="62.83333333333332" x2="56.953125" y2="62.83333333333332" style="visibility: inherit;" fill="rgb(0, 0, 0)" stroke="rgb(204, 204, 204)" stroke-width="1px"></line><line x1="61.953125" y1="31.416666666666682" x2="56.953125" y2="31.416666666666682" style="visibility: inherit;" fill="rgb(0, 0, 0)" stroke="rgb(204, 204, 204)" stroke-width="1px"></line><line x1="61.953125" y1="0" x2="56.953125" y2="0" style="visibility: inherit;" fill="rgb(0, 0, 0)" stroke="rgb(204, 204, 204)" stroke-width="1px"></line></g><g transform="translate(51.953125, 0)"><text x="0" y="377" dx="0em" dy="0.3em" style="text-anchor: end; visibility: hidden; font-family: Roboto, sans-serif; font-size: 12px; font-weight: 200;" fill="rgb(33, 33, 33)" stroke="none" stroke-width="1px">0.982</text><text x="0" y="345.5833333333333" dx="0em" dy="0.3em" style="text-anchor: end; visibility: inherit; font-family: Roboto, sans-serif; font-size: 12px; font-weight: 200;" fill="rgb(33, 33, 33)" stroke="none" stroke-width="1px">0.983</text><text x="0" y="314.1666666666667" dx="0em" dy="0.3em" style="text-anchor: end; visibility: inherit; font-family: Roboto, sans-serif; font-size: 12px; font-weight: 200;" fill="rgb(33, 33, 33)" stroke="none" stroke-width="1px">0.984</text><text x="0" y="282.75" dx="0em" dy="0.3em" style="text-anchor: end; visibility: inherit; font-family: Roboto, sans-serif; font-size: 12px; font-weight: 200;" fill="rgb(33, 33, 33)" stroke="none" stroke-width="1px">0.985</text><text x="0" y="251.33333333333337" dx="0em" dy="0.3em" style="text-anchor: end; visibility: inherit; font-family: Roboto, sans-serif; font-size: 12px; font-weight: 200;" fill="rgb(33, 33, 33)" stroke="none" stroke-width="1px">0.986</text><text x="0" y="219.91666666666663" dx="0em" dy="0.3em" style="text-anchor: end; visibility: inherit; font-family: Roboto, sans-serif; font-size: 12px; font-weight: 200;" fill="rgb(33, 33, 33)" stroke="none" stroke-width="1px">0.987</text><text x="0" y="188.5" dx="0em" dy="0.3em" style="text-anchor: end; visibility: inherit; font-family: Roboto, sans-serif; font-size: 12px; font-weight: 200;" fill="rgb(33, 33, 33)" stroke="none" stroke-width="1px">0.988</text><text x="0" y="157.08333333333331" dx="0em" dy="0.3em" style="text-anchor: end; visibility: inherit; font-family: Roboto, sans-serif; font-size: 12px; font-weight: 200;" fill="rgb(33, 33, 33)" stroke="none" stroke-width="1px">0.989</text><text x="0" y="125.66666666666669" dx="0em" dy="0.3em" style="text-anchor: end; visibility: inherit; font-family: Roboto, sans-serif; font-size: 12px; font-weight: 200;" fill="rgb(33, 33, 33)" stroke="none" stroke-width="1px">0.99</text><text x="0" y="94.25" dx="0em" dy="0.3em" style="text-anchor: end; visibility: inherit; font-family: Roboto, sans-serif; font-size: 12px; font-weight: 200;" fill="rgb(33, 33, 33)" stroke="none" stroke-width="1px">0.991</text><text x="0" y="62.83333333333332" dx="0em" dy="0.3em" style="text-anchor: end; visibility: inherit; font-family: Roboto, sans-serif; font-size: 12px; font-weight: 200;" fill="rgb(33, 33, 33)" stroke="none" stroke-width="1px">0.992</text><text x="0" y="31.416666666666682" dx="0em" dy="0.3em" style="text-anchor: end; visibility: inherit; font-family: Roboto, sans-serif; font-size: 12px; font-weight: 200;" fill="rgb(33, 33, 33)" stroke="none" stroke-width="1px">0.993</text><text x="0" y="0" dx="0em" dy="0.3em" style="text-anchor: end; visibility: hidden; font-family: Roboto, sans-serif; font-size: 12px; font-weight: 200;" fill="rgb(33, 33, 33)" stroke="none" stroke-width="1px">0.994</text></g><line x1="61.953125" y1="0" x2="61.953125" y2="377" fill="rgb(0, 0, 0)" stroke="rgb(204, 204, 204)" stroke-width="1px"></line></g></g><g transform="translate(61, 0)" clip-path="url(#clip_0)"><clipPath id="clip_0"><rect width="1395" height="377"></rect></clipPath><g><g><g><line x1="0" y1="0" x2="0" y2="377" fill="rgb(0, 0, 0)" stroke="rgb(66, 66, 66)" stroke-width="1px" opacity="0.25"></line><line x1="139.50468750000002" y1="0" x2="139.50468750000002" y2="377" fill="rgb(0, 0, 0)" stroke="rgb(66, 66, 66)" stroke-width="1px" opacity="0.25"></line><line x1="279.00937500000003" y1="0" x2="279.00937500000003" y2="377" fill="rgb(0, 0, 0)" stroke="rgb(66, 66, 66)" stroke-width="1px" opacity="0.25"></line><line x1="418.51406249999997" y1="0" x2="418.51406249999997" y2="377" fill="rgb(0, 0, 0)" stroke="rgb(66, 66, 66)" stroke-width="1px" opacity="0.25"></line><line x1="558.0187500000001" y1="0" x2="558.0187500000001" y2="377" fill="rgb(0, 0, 0)" stroke="rgb(66, 66, 66)" stroke-width="1px" opacity="0.25"></line><line x1="697.5234375" y1="0" x2="697.5234375" y2="377" fill="rgb(0, 0, 0)" stroke="rgb(66, 66, 66)" stroke-width="1px" opacity="0.25"></line><line x1="837.0281249999999" y1="0" x2="837.0281249999999" y2="377" fill="rgb(0, 0, 0)" stroke="rgb(66, 66, 66)" stroke-width="1px" opacity="0.25"></line><line x1="976.5328125" y1="0" x2="976.5328125" y2="377" fill="rgb(0, 0, 0)" stroke="rgb(66, 66, 66)" stroke-width="1px" opacity="0.25"></line><line x1="1116.0375000000001" y1="0" x2="1116.0375000000001" y2="377" fill="rgb(0, 0, 0)" stroke="rgb(66, 66, 66)" stroke-width="1px" opacity="0.25"></line><line x1="1255.5421875" y1="0" x2="1255.5421875" y2="377" fill="rgb(0, 0, 0)" stroke="rgb(66, 66, 66)" stroke-width="1px" opacity="0.25"></line><line x1="1395.046875" y1="0" x2="1395.046875" y2="377" fill="rgb(0, 0, 0)" stroke="rgb(66, 66, 66)" stroke-width="1px" opacity="0.25"></line></g><g><line x1="0" y1="377" x2="1395.046875" y2="377" fill="rgb(0, 0, 0)" stroke="rgb(66, 66, 66)" stroke-width="1px" opacity="0.25"></line><line x1="0" y1="345.5833333333333" x2="1395.046875" y2="345.5833333333333" fill="rgb(0, 0, 0)" stroke="rgb(66, 66, 66)" stroke-width="1px" opacity="0.25"></line><line x1="0" y1="314.1666666666667" x2="1395.046875" y2="314.1666666666667" fill="rgb(0, 0, 0)" stroke="rgb(66, 66, 66)" stroke-width="1px" opacity="0.25"></line><line x1="0" y1="282.75" x2="1395.046875" y2="282.75" fill="rgb(0, 0, 0)" stroke="rgb(66, 66, 66)" stroke-width="1px" opacity="0.25"></line><line x1="0" y1="251.33333333333337" x2="1395.046875" y2="251.33333333333337" fill="rgb(0, 0, 0)" stroke="rgb(66, 66, 66)" stroke-width="1px" opacity="0.25"></line><line x1="0" y1="219.91666666666663" x2="1395.046875" y2="219.91666666666663" fill="rgb(0, 0, 0)" stroke="rgb(66, 66, 66)" stroke-width="1px" opacity="0.25"></line><line x1="0" y1="188.5" x2="1395.046875" y2="188.5" fill="rgb(0, 0, 0)" stroke="rgb(66, 66, 66)" stroke-width="1px" opacity="0.25"></line><line x1="0" y1="157.08333333333331" x2="1395.046875" y2="157.08333333333331" fill="rgb(0, 0, 0)" stroke="rgb(66, 66, 66)" stroke-width="1px" opacity="0.25"></line><line x1="0" y1="125.66666666666669" x2="1395.046875" y2="125.66666666666669" fill="rgb(0, 0, 0)" stroke="rgb(66, 66, 66)" stroke-width="1px" opacity="0.25"></line><line x1="0" y1="94.25" x2="1395.046875" y2="94.25" fill="rgb(0, 0, 0)" stroke="rgb(66, 66, 66)" stroke-width="1px" opacity="0.25"></line><line x1="0" y1="62.83333333333332" x2="1395.046875" y2="62.83333333333332" fill="rgb(0, 0, 0)" stroke="rgb(66, 66, 66)" stroke-width="1px" opacity="0.25"></line><line x1="0" y1="31.416666666666682" x2="1395.046875" y2="31.416666666666682" fill="rgb(0, 0, 0)" stroke="rgb(66, 66, 66)" stroke-width="1px" opacity="0.25"></line><line x1="0" y1="0" x2="1395.046875" y2="0" fill="rgb(0, 0, 0)" stroke="rgb(66, 66, 66)" stroke-width="1px" opacity="0.25"></line></g></g></g><g><g><line x1="0" y1="31228.16666666664" x2="1395.046875" y2="31228.16666666664" fill="rgb(0, 0, 0)" stroke="rgb(153, 153, 153)" stroke-width="1.5px"></line></g></g><g><g><line x1="139.50468750000002" y1="0" x2="139.50468750000002" y2="377" fill="rgb(0, 0, 0)" stroke="rgb(153, 153, 153)" stroke-width="1.5px"></line></g></g><g><g><g><g><g><path stroke="rgb(255, 112, 67)" stroke-width="2px" d="M142.29478125,179.18468221028263L145.08487499999998,34.078056597228276L147.87496875,185.65273438143413L150.6650625,233.44326874779122L153.45515625,193.01690720503987L156.24525,145.47522801390298L159.03534375,58.872726117745955L161.82543750000002,29.02519817455994L164.61553125,-7.119883640501423L186.93628125,-2.2226281407359547L189.72637500000002,34.55321184112488L192.51646875000003,79.11754823389296L195.3065625,97.05009498592044L198.09665625,105.30015390802126L200.88674999999998,121.45039112138538L203.67684375,116.7017184741144L206.4669375,82.50402761259309L209.25703124999998,94.11428364647972L212.047125,103.5541617013017L214.83721875,67.2679592340779L217.6273125,82.33732633556406L220.41740625,94.13278306082503L223.2075,103.36126269219923L225.99759375,69.22670940050672L228.7876875,44.03178778631146L231.57778125000002,59.290817388074366L234.36787500000003,57.87265196049364L237.15796875,43.51636526322288L239.9480625,45.959175096735045L242.73815624999997,20.924853820513068L245.52824999999999,27.091799221260153L248.31834375,20.147444565362136L251.10843749999998,20.234344043112806L253.89853125,16.11417272150285L256.688625,24.654120982149433L259.47871875,38.117590522016776L262.2688125,54.583177735634074L265.05890625,63.26099208341409L267.849,69.19828541410396L270.63909375000003,77.66983926690024L273.4291875,61.935129786665776L276.21928125,71.8148740713777L279.00937500000003,66.80905833196402L281.79946875,61.57105981351628L284.5895625,63.75566977796037L287.37965625,77.31208986839047L290.16974999999996,85.53139048123033L292.95984375,89.55117759959732L295.7499375,96.85669890302815L298.54003124999997,102.59376517725612L301.330125,105.95081989352428L304.12021875,108.79209449217922L306.9103125,115.48593486852862L309.70040625,125.85165051972726L312.4905,127.22791990259641L315.28059375000004,129.86055197632234L318.0706875,137.1517029169556L320.86078125,142.05424644160823L323.65087500000004,148.463107458064L326.44096875,135.99729705846136L329.2310625,141.2575268657717L332.02115625,146.92639397201577L334.81125,140.21590727624005L337.60134375,140.0276753520275L340.3914375,146.74954273304994L343.18153125,151.94959756259325L345.971625,160.46775808588498L348.76171875,163.74996389391305L351.5518125,167.12777339213127L354.34190625,168.67281204662788L357.132,160.29230406868777L359.92209375,162.54048438446145L362.7121875,170.82070067872434L365.50228125,166.18793538641063L368.292375,169.77116639050837L371.08246875000003,173.49345758705044L373.8725625,176.90977098410445L376.66265625,175.73350802210732L379.45275000000004,175.78720169076425L382.24284375,179.3341403642905L385.03293750000006,181.38506338198658L387.82303125000004,185.27862166940446L390.613125,188.5275880569393L393.40321874999995,187.50308764067807L396.1933125,192.49374812291805L398.98340625,196.1630722528596L401.77349999999996,200.1653359175816L404.56359375,203.78026468605484L407.3536875,205.35109488246118L410.14378124999996,204.41422940918963L412.933875,210.8754337991918L415.72396875,214.50697137352276L418.51406249999997,214.84802199787063L421.30415625,217.04309293819608L424.09425,218.24679689890638L426.88434374999997,220.20096579828348L429.6744375,221.3823158814241L432.46453125,223.52330059588053L435.254625,219.06587397710945L438.04471875,220.16478046315186L440.8348125,224.3391525868838L443.62490625,226.10807871529744L446.415,225.90122362410338L449.20509375,229.19911924013078L451.9951875,233.0388460770656L454.78528125,234.0739627006899L457.575375,234.8400137404223L460.36546875000005,237.3735236567202L463.15556250000003,239.76714341037874L465.94565625,239.14181251654324L468.73575000000005,240.40279253696312L471.52584375000004,241.97062552742588L474.3159375,247.25483031615815L477.10603125000006,248.47467065629203L479.896125,250.8428626306295L482.68621874999997,253.63316218301293L485.47631249999995,258.1281212130452L488.26640625,261.71296809535454L491.05649999999997,266.4140713813312L493.84659374999995,265.4410694668322L496.6366875,267.8636960502692L499.42678125,270.26386759140263L502.21687499999996,274.00230536773006L505.00696875,277.37759340000594L507.7970625,277.86334937223927L510.58715624999996,278.9411686898541L513.37725,278.9100770235935L516.16734375,280.039738478661L518.9574375,281.79296158266504L521.74753125,284.4014953169351L524.537625,284.2461529073168L527.32771875,282.64268264525276L530.1178125,282.9462158374028L532.90790625,283.9276789510785L535.698,284.99637584947925L538.48809375,277.4918701629433L541.2781875000001,274.12124235788707L544.06828125,277.09704010931307L546.858375,278.94404843944955L549.64846875,281.66085506000644L552.4385625,283.3439303416256L555.22865625,285.0877564456505L558.0187500000001,286.181357247451L560.80884375,287.4199965643641L563.5989375,289.2535230970976L566.38903125,290.33831123048463L569.179125,291.1958313964394L571.96921875,291.8606661815434L574.7593125,290.0401152246272L577.54940625,290.39270650222187L580.3394999999999,292.2608887538169L583.12959375,288.0849372715436L585.9196875,287.8813773606107L588.70978125,289.4656243181303L591.499875,291.28152023048204L594.28996875,292.67009032733745L597.0800624999999,289.8962239121505L599.87015625,287.5299893843437L602.66025,286.5547635148562L605.45034375,287.3360633418117L608.2404375,289.5192174616597L611.03053125,292.7439700519619L613.820625,292.1398595931162L616.61071875,295.360284420419L619.4008125,297.06392519592606L622.19090625,297.3875280646666L624.981,296.58305471417214L627.77109375,295.1206876298364L630.5611875000001,296.84294024096386L633.35128125,298.44475808924466L636.141375,295.46832655256765L638.93146875,291.83992764131926L641.7215625,292.2871120115191L644.51165625,293.9854290156149L647.3017500000001,295.85994548308173L650.0918437500001,294.719649667769L652.8819375,295.68731552627014L655.6720312499999,295.4086432361072L658.462125,295.6378445882331L661.25221875,295.2112683081455L664.0423125,295.2995131029407L666.83240625,295.7112832203167L669.6225,294.44667335139326L672.4125937499999,291.93278364015265L675.2026875,292.8755633932827L677.99278125,293.0243957595476L680.782875,293.4283404480151L683.57296875,295.0286908182367L686.3630625,293.5565217297869L689.1531562499999,293.1024079640719L691.94325,292.9740484455026L694.73334375,291.3143828277691L697.5234375,292.21108987748954L700.31353125,293.2650304015643L703.103625,294.01928556443096L705.8937187500001,295.4326161452016L708.6838125,296.4660794800344L711.47390625,299.3567108338583L714.264,301.1014786630641L717.05409375,302.47624486958495L719.8441875,299.69330741650253L722.6342812500001,302.2336715240183L725.424375,303.9256057398052L728.21446875,305.0490514925572L731.0045625,307.2214009417303L733.79465625,308.1908676278225L736.58475,308.35517667018456L739.3748437500001,308.7987532213098L742.1649375000001,310.2515486559226L744.95503125,312.25312502825034L747.745125,308.9944047611333L750.53521875,309.67199532190915L753.3253125,311.78156695518925L756.1154062500001,313.01482373686684L758.9055000000001,313.7944319601962L761.6955937500001,314.85451600542837L764.4856875,312.9288735246186L767.27578125,314.9208628098607L770.0658750000001,316.4932392735881L772.8559687500001,318.2763174499313L775.6460625000001,317.3293062237655L778.4361562500001,319.57269314697754L781.22625,320.664200890823L784.01634375,321.3758885548818L786.8064374999999,321.08894983352025L789.5965312499999,319.61004010668864L792.386625,321.0826430188982L795.17671875,321.9590897672367L797.9668125,322.42154566661776L800.7569062499999,323.15369102603427L803.5469999999999,319.74942501582655L806.3370937499999,321.0844058883778L809.1271875,321.32784695240537L811.91728125,319.59126640641466L814.707375,320.50239179690436L817.4974687499999,316.60968884368566L820.2875624999999,315.23959171657305L823.0776562499999,317.55631176677775L825.86775,318.4239067257713L828.65784375,318.8337257944076L831.4479375,320.0123598673484L834.23803125,317.9321566181371L837.0281249999999,318.8051124469921L839.81821875,317.4715336607845L842.6083125,317.80228817065756L845.39840625,318.5796800574849L848.1885,320.25342580183536L850.97859375,321.76314954635643L853.7686874999999,321.0615190005056L856.55878125,319.77496526509697L859.348875,320.485844743117L862.13896875,320.89741040379727L864.9290625,321.4560739082564L867.71915625,323.14271634675606L870.50925,324.3580066484721L873.29934375,325.837646373337L876.0894375,325.67215941983886L878.87953125,326.6942279695344L881.669625,325.7400829075684L884.45971875,326.11787564001185L887.2498125,325.0496722550928L890.0399062500001,326.1647760539164L892.83,327.06952269965046L895.62009375,326.3358184884427L898.4101875,327.01121362516074L901.20028125,326.8451593544109L903.990375,328.4121071438657L906.7804687500001,328.3150509515231L909.5705625,328.61479780363436L912.36065625,328.07471726828214L915.15075,327.76254678343724L917.94084375,328.96346532424906L920.7309375000001,329.59296987421175L923.5210312500001,331.00992896071574L926.3111250000001,333.1368200321395L929.10121875,334.7332068992032L931.8913125,332.6783353378521L934.68140625,332.5430838169218L937.4715000000001,331.8169590035848L940.2615937500001,332.14430460579916L943.0516875000001,332.61551220738306L945.84178125,332.54319148919507L948.631875,332.85310123140897L951.42196875,330.47107699276063L954.2120625000001,331.3782242458442L957.0021562500001,329.2398771487452L959.79225,328.73884439140755L962.58234375,330.21037757307084L965.3724374999999,330.86421608805296L968.1625312499999,332.6764241001384L970.9526249999999,332.74294192376584L973.7427187499999,332.29378909798174L976.5328125,331.3276206673444L979.32290625,331.0239579161805L982.1129999999999,330.42402833757285L984.9030937499999,330.80241926228985L987.6931874999999,331.8274640164583L990.48328125,333.4897729063055L993.273375,333.6420677892253L996.06346875,334.3577301327777L998.8535625,333.74118675234274L1001.6436562499999,330.7719422557516L1004.4337499999999,331.28795894775214L1007.22384375,332.471873741344L1010.0139375,332.48448048064023L1012.80403125,333.86209337832986L1015.594125,332.8931136849013L1018.38421875,335.00688844554196L1021.1743124999999,334.89878750180503L1023.96440625,332.2010549803596L1026.7545,332.2699816492343L1029.5445937499999,332.2693303267347L1032.3346875,333.12953698807405L1035.12478125,334.22924548648945L1037.914875,335.2611321570448L1040.70496875,335.96027711029564L1043.4950625,336.55379290451964L1046.28515625,336.5751253386239L1049.07525,335.68499331020024L1051.86534375,336.4448267781037L1054.6554375,335.23043730087886L1057.44553125,333.7325164873108L1060.235625,333.08717051541606L1063.0257187500001,334.4005195588089L1065.8158125,334.75487290287674L1068.60590625,334.99893322282827L1071.396,335.235381443373L1074.18609375,335.744497592277L1076.9761875,336.1950854665117L1079.76628125,337.46223713436865L1082.5563750000001,337.9481065788106L1085.34646875,338.2942968454027L1088.1365625,339.57842660223554L1090.92665625,341.16675065452813L1093.71675,341.8118669373199L1096.5068437500001,343.2490472980549L1099.2969375,344.4430693163414L1102.08703125,343.67923162589403L1104.877125,343.9777919887149L1107.66721875,343.3073533500505L1110.4573125,344.47168870852187L1113.24740625,345.09771560063587L1116.0375000000001,346.6795432546857L1118.82759375,345.4800330101928L1121.6176875,346.6423782269141L1124.40778125,347.2786450563286L1127.197875,347.94336346811065L1129.9879687500002,349.02092426261333L1132.7780625,349.28612419003565L1135.56815625,350.3468298069085L1138.35825,350.6731278522602L1141.1483437499999,352.18528068814163L1143.9384375,350.47969578786063L1146.7285312499998,351.8613946650405L1149.518625,352.7457479386056L1152.30871875,352.7551461044079L1155.0988125,353.66006656068816L1157.88890625,354.5891158043328L1160.6789999999999,354.63511456479966L1163.46909375,355.35877038113614L1166.2591875,356.593677233165L1169.04928125,354.96593751777306L1171.839375,355.0184834300156L1174.62946875,356.2126881540608L1177.4195625,356.547063111099L1180.2096562499999,356.83987191935626L1182.99975,358.24952675510707L1185.78984375,358.1046255251747L1188.5799375,358.84476962050803L1191.37003125,358.17058271467675L1194.1601249999999,358.95861708718513L1196.95021875,359.99855365480954L1199.7403125,359.90031650403745L1202.53040625,357.48820007142405L1205.3205,357.5949998235316L1208.11059375,357.09366614189315L1210.9006875,357.43653982571226L1213.69078125,357.2298783315598L1216.480875,357.2050467090699L1219.27096875,357.56924420472336L1222.0610625,358.14336203227697L1224.85115625,358.75665941204585L1227.64125,357.81383226556994L1230.43134375,359.366619399077L1233.2214375,358.5282098716247L1236.01153125,360.1687125073474L1238.801625,358.8545077139498L1241.59171875,360.79873205433546L1244.3818125,359.9617553238407L1247.1719062500001,360.5230039462936L1249.962,357.7010844074269L1252.75209375,358.09024169619835L1255.5421875,358.8638618250726" style="fill: none;" fill="none"></path></g></g></g></g><g opacity="0.2"><g><g><g><path stroke="rgb(255, 112, 67)" stroke-width="2px" d="M142.29478125,179.18468221028616L145.08487499999998,-110.88346238931022L147.87496875,488.3475174903864L150.6650625,376.5283197561895L153.45515625,31.715320587157994L156.24525,-91.52099287509927L170.19571875,-35.99152759710962L172.9858125,37.16265364487948L175.77590625,-40.17674223581964L184.1461875,508.4253122806542L186.93628125,181.19208717346157L189.72637500000002,654.1456848780306L195.3065625,434.3816558917358L198.09665625,268.5797433455781L200.88674999999998,456.8994214534754L203.67684375,13.423966407775712L206.4669375,-694.6731537183122L209.25703124999998,369.3039089838659L212.047125,336.5075558821356L214.83721875,-863.5423510869339L220.41740625,419.65943777561137L223.2075,367.0099993944163L225.99759375,-939.0896886189771L231.57778125000002,539.6056294838581L234.36787500000003,11.860362728436607L237.15796875,-436.14860669771804L239.9480625,129.93584775924654L242.73815624999997,-863.8307282924645L245.52824999999999,250.9849886496858L248.31834375,-238.6551628112792L251.10843749999998,23.556492765744345L253.89853125,-145.357646505038L256.688625,367.5361941655472L259.47871875,591.5903022289269L265.05890625,436.61564294497117L267.849,330.3205540180202L270.63909375000003,458.33943490187266L281.79946875,-193.7582025527954L284.5895625,172.32167923450436L287.37965625,763.8788293202709L290.16974999999996,509.593801736831L292.95984375,300.7544001340862L295.7499375,487.6097212632492L298.54003124999997,414.8787429332728L301.330125,291.8559035062786L304.12021875,268.8156883319215L306.9103125,498.80025490124956L309.70040625,729.1930437485369L312.4905,208.62911844253506L315.28059375000004,288.04520471890726L318.0706875,582.094452818234L334.81125,-306.9631089369455L337.60134375,127.30861906210554L340.3914375,607.2151035467776L351.5518125,411.0699167251582L354.34190625,281.68592556317606L357.132,-460.4659209251402L359.92209375,331.146361470222L362.7121875,799.4597077767046L373.8725625,448.87354675928697L376.66265625,81.01284209887163L379.45275000000004,180.16029600302346L382.24284375,471.4699606498077L385.03293750000006,352.1847894191737L387.82303125000004,513.0973975261046L390.613125,465.04701379934886L393.40321874999995,99.37160913149492L396.1933125,626.3659716049822L404.56359375,527.9319703976307L407.3536875,347.63629440466514L410.14378124999996,118.70224479834211L412.933875,807.8619709014882L415.72396875,553.3372531731917L418.51406249999997,246.9776690403617L421.30415625,425.82209610938975L424.09425,333.8222772280371L426.88434374999997,409.59806942939707L429.6744375,336.94386684894516L432.46453125,434.88725229104307L435.254625,-224.9965697129567L438.04471875,330.6295295953746L440.8348125,647.7077573935182L443.62490625,407.1019212802246L446.415,204.55064082145657L449.20509375,572.5461711883538L451.9951875,636.2325917085004L454.78528125,343.6926424900686L457.575375,316.6488528649008L460.36546875000005,510.1948996782296L463.15556250000003,499.65789620081523L465.94565625,170.68879012266763L468.73575000000005,379.5600255727763L491.05649999999997,818.5150742928179L493.84659374999995,150.3132552305854L496.6366875,556.6479732990258L505.00696875,688.621741573015L507.7970625,337.47380677858945L510.58715624999996,412.152267535527L513.37725,275.04014178117075L516.16734375,421.635008891423L521.74753125,615.9188519318891L524.537625,264.3683125972744L527.32771875,76.06361512343065L530.1178125,322.31527769565537L532.90790625,412.07923694451597L571.96921875,386.7001702785487L574.7593125,28.777243733405857L577.54940625,341.2938684622442L580.3394999999999,563.5540455977115L583.12959375,-321.9025462468464L585.9196875,257.973454435666L588.70978125,523.5800962050749L599.87015625,-70.18856998284669L602.66025,138.29691414038314L605.45034375,406.7742199103032L611.03053125,791.1697994073223L613.820625,198.25690193970962L616.61071875,798.553379416465L619.4008125,564.6944463650378L622.19090625,348.49580828348746L624.981,168.85178987185128L627.77109375,61.70280480384806L630.5611875000001,573.1884658733998L638.93146875,-299.47653706868476L641.7215625,365.5381520986552L644.51165625,573.5966881513589L647.3017500000001,606.0447415113442L650.0918437500001,105.07923070589673L652.8819375,457.42374364534953L655.6720312499999,248.5993226766582L658.462125,334.32787362734433L661.25221875,222.84948531786566L664.0423125,310.342005928357L666.83240625,366.2441144784287L669.6225,76.78268555800096L672.4125937499999,-142.83528224627182L675.2026875,456.7046732107792L677.99278125,319.0101753075913L680.782875,364.28914173444065L683.57296875,577.0834307273221L686.3630625,32.881937464078085L689.1531562499999,212.319972157478L691.94325,270.03473742802896L694.73334375,-6.648210644722152L733.79465625,493.2911267280573L736.58475,339.859472751617L739.3748437500001,394.207340518633L772.8559687500001,678.760739207267L775.6460625000001,125.11770133177411L778.4361562500001,776.691016594568L784.01634375,467.52256357669773L786.8064374999999,261.9377047220862L789.5965312499999,13.56628243128439L792.386625,626.9876679182046L806.3370937499999,603.6721835931135L809.1271875,373.0509400765096L811.91728125,-50.739961822827766L817.4974687499999,-519.6356802781421L820.2875624999999,19.835677782694304L823.0776562499999,818.874609510103L837.0281249999999,511.11433609326616L839.81821875,22.65016440550467L842.6083125,391.1812524398163L850.97859375,660.216586828231L853.7686874999999,163.22468920548727L856.55878125,29.35961588223757L859.348875,481.5032403071716L873.29934375,666.6863481601072L876.0894375,287.423508405685L878.87953125,563.7075970967604L881.669625,103.74595427513097L884.45971875,414.3057336807246L887.2498125,74.88201761245702L890.0399062500001,588.1690999269479L892.83,540.3396805524819L895.62009375,152.82438401381143L898.4101875,487.24831346670726L901.20028125,287.3223891258236L903.990375,702.5556038220716L906.7804687500001,305.0669501622514L909.5705625,400.64152284463194L912.36065625,197.88800382614102L915.15075,252.27706833680432L917.94084375,620.2651083866748L931.8913125,-173.51936594645179L934.68140625,299.12338360150613L937.4715000000001,151.85064280033083L940.2615937500001,413.52112297216996L943.0516875000001,450.10944906870463L945.84178125,314.45606255531266L948.631875,410.59240901470133L957.0021562500001,-211.94843745231628L959.79225,201.560131748517L962.58234375,704.8307876189542L968.1625312499999,796.7219969034187L970.9526249999999,349.8253395557399L973.7427187499999,216.61379639307623L976.5328125,81.77310927708922L979.32290625,252.36507956186895L982.1129999999999,174.5781372388201L984.9030937499999,429.37812411785075L990.48328125,768.9965884288143L993.273375,373.6539105971649L996.06346875,522.9078402519219L998.8535625,170.85170451799996L1001.6436562499999,-455.878101746241L1007.22384375,647.8669266303373L1010.0139375,335.8521531422928L1012.80403125,702.8758148749662L1015.594125,72.62930476665471L1018.38421875,904.3016752004613L1021.1743124999999,305.70549968878385L1023.96440625,-398.303779919942L1026.7545,350.98446611563315L1029.5445937499999,332.09201399485227L1032.3346875,567.937753637631L1043.4950625,500.2852102518076L1046.28515625,342.4754659732178L1049.07525,88.84022339185053L1051.86534375,547.7045347690575L1057.44553125,-84.89955262343095L1060.235625,152.26448281606008L1063.0257187500001,703.3383419513694L1099.2969375,690.9399946928016L1102.08703125,121.47740725676191L1104.877125,431.04097449779454L1107.66721875,147.32649131615926L1110.4573125,685.6499582926424L1149.518625,620.5665936470025L1152.30871875,355.60786430040946L1155.0988125,628.9688567717862L1157.88890625,637.8842066129041L1160.6789999999999,368.6934481461838L1163.46909375,577.0272533496213L1169.04928125,-145.89320417245233L1171.839375,371.2233027219767L1174.62946875,725.3224224249514L1182.99975,796.866185506184L1185.78984375,312.9186749855673L1188.5799375,590.159651676813L1191.37003125,147.00628026326467L1194.1601249999999,606.3218832413348L1196.95021875,687.1461491187406L1199.7403125,328.9292276302969L1202.53040625,-404.6256074905394L1205.3205,391.41157968838957L1208.11059375,198.0115940570828L1210.9006875,466.470174034436L1213.69078125,291.37090547879495L1216.480875,349.274801254272L1219.27096875,474.1271506150558L1224.85115625,555.8689803282414L1227.64125,54.15256524085978L1230.43134375,860.5320076545071L1233.2214375,87.36275835831934L1236.01153125,891.8621311982464L1241.59171875,993.5525477329879L1244.3818125,87.00135056177751L1247.1719062500001,543.9387778838469" style="fill: none;" fill="none"></path></g></g></g></g></g></g><g transform="translate(61, 377)" clip-path="url(#clip_1)"><clipPath id="clip_1"><rect width="1395" height="23"></rect></clipPath><g><g><line x1="0" y1="0" x2="0" y2="5" style="visibility: inherit;" fill="rgb(0, 0, 0)" stroke="rgb(204, 204, 204)" stroke-width="1px"></line><line x1="139.50468750000002" y1="0" x2="139.50468750000002" y2="5" style="visibility: inherit;" fill="rgb(0, 0, 0)" stroke="rgb(204, 204, 204)" stroke-width="1px"></line><line x1="279.00937500000003" y1="0" x2="279.00937500000003" y2="5" style="visibility: inherit;" fill="rgb(0, 0, 0)" stroke="rgb(204, 204, 204)" stroke-width="1px"></line><line x1="418.51406249999997" y1="0" x2="418.51406249999997" y2="5" style="visibility: inherit;" fill="rgb(0, 0, 0)" stroke="rgb(204, 204, 204)" stroke-width="1px"></line><line x1="558.0187500000001" y1="0" x2="558.0187500000001" y2="5" style="visibility: inherit;" fill="rgb(0, 0, 0)" stroke="rgb(204, 204, 204)" stroke-width="1px"></line><line x1="697.5234375" y1="0" x2="697.5234375" y2="5" style="visibility: inherit;" fill="rgb(0, 0, 0)" stroke="rgb(204, 204, 204)" stroke-width="1px"></line><line x1="837.0281249999999" y1="0" x2="837.0281249999999" y2="5" style="visibility: inherit;" fill="rgb(0, 0, 0)" stroke="rgb(204, 204, 204)" stroke-width="1px"></line><line x1="976.5328125" y1="0" x2="976.5328125" y2="5" style="visibility: inherit;" fill="rgb(0, 0, 0)" stroke="rgb(204, 204, 204)" stroke-width="1px"></line><line x1="1116.0375000000001" y1="0" x2="1116.0375000000001" y2="5" style="visibility: inherit;" fill="rgb(0, 0, 0)" stroke="rgb(204, 204, 204)" stroke-width="1px"></line><line x1="1255.5421875" y1="0" x2="1255.5421875" y2="5" style="visibility: inherit;" fill="rgb(0, 0, 0)" stroke="rgb(204, 204, 204)" stroke-width="1px"></line><line x1="1395.046875" y1="0" x2="1395.046875" y2="5" style="visibility: inherit;" fill="rgb(0, 0, 0)" stroke="rgb(204, 204, 204)" stroke-width="1px"></line></g><g transform="translate(0, 8)"><text x="0" y="0" dx="0em" dy="0.95em" style="text-anchor: middle; visibility: hidden; font-family: Roboto, sans-serif; font-size: 12px; font-weight: 200;" fill="rgb(33, 33, 33)" stroke="none" stroke-width="1px">-50</text><text x="139.50468750000002" y="0" dx="0em" dy="0.95em" style="text-anchor: middle; visibility: inherit; font-family: Roboto, sans-serif; font-size: 12px; font-weight: 200;" fill="rgb(33, 33, 33)" stroke="none" stroke-width="1px">0</text><text x="279.00937500000003" y="0" dx="0em" dy="0.95em" style="text-anchor: middle; visibility: inherit; font-family: Roboto, sans-serif; font-size: 12px; font-weight: 200;" fill="rgb(33, 33, 33)" stroke="none" stroke-width="1px">50</text><text x="418.51406249999997" y="0" dx="0em" dy="0.95em" style="text-anchor: middle; visibility: inherit; font-family: Roboto, sans-serif; font-size: 12px; font-weight: 200;" fill="rgb(33, 33, 33)" stroke="none" stroke-width="1px">100</text><text x="558.0187500000001" y="0" dx="0em" dy="0.95em" style="text-anchor: middle; visibility: inherit; font-family: Roboto, sans-serif; font-size: 12px; font-weight: 200;" fill="rgb(33, 33, 33)" stroke="none" stroke-width="1px">150</text><text x="697.5234375" y="0" dx="0em" dy="0.95em" style="text-anchor: middle; visibility: inherit; font-family: Roboto, sans-serif; font-size: 12px; font-weight: 200;" fill="rgb(33, 33, 33)" stroke="none" stroke-width="1px">200</text><text x="837.0281249999999" y="0" dx="0em" dy="0.95em" style="text-anchor: middle; visibility: inherit; font-family: Roboto, sans-serif; font-size: 12px; font-weight: 200;" fill="rgb(33, 33, 33)" stroke="none" stroke-width="1px">250</text><text x="976.5328125" y="0" dx="0em" dy="0.95em" style="text-anchor: middle; visibility: inherit; font-family: Roboto, sans-serif; font-size: 12px; font-weight: 200;" fill="rgb(33, 33, 33)" stroke="none" stroke-width="1px">300</text><text x="1116.0375000000001" y="0" dx="0em" dy="0.95em" style="text-anchor: middle; visibility: inherit; font-family: Roboto, sans-serif; font-size: 12px; font-weight: 200;" fill="rgb(33, 33, 33)" stroke="none" stroke-width="1px">350</text><text x="1255.5421875" y="0" dx="0em" dy="0.95em" style="text-anchor: middle; visibility: inherit; font-family: Roboto, sans-serif; font-size: 12px; font-weight: 200;" fill="rgb(33, 33, 33)" stroke="none" stroke-width="1px">400</text><text x="1395.046875" y="0" dx="0em" dy="0.95em" style="text-anchor: middle; visibility: hidden; font-family: Roboto, sans-serif; font-size: 12px; font-weight: 200;" fill="rgb(33, 33, 33)" stroke="none" stroke-width="1px">450</text></g><line x1="0" y1="0" x2="1395.046875" y2="0" fill="rgb(0, 0, 0)" stroke="rgb(204, 204, 204)" stroke-width="1px"></line></g></g></g></g></svg>