<svg viewBox="0 0 1457 400" xmlns="http://www.w3.org/2000/svg"><g><g><g><g><g><line x1="61.953125" y1="377" x2="56.953125" y2="377" style="visibility: inherit;" fill="rgb(0, 0, 0)" stroke="rgb(204, 204, 204)" stroke-width="1px"></line><line x1="61.953125" y1="350.0714285714307" x2="56.953125" y2="350.0714285714307" style="visibility: inherit;" fill="rgb(0, 0, 0)" stroke="rgb(204, 204, 204)" stroke-width="1px"></line><line x1="61.953125" y1="323.14285714286143" x2="56.953125" y2="323.14285714286143" style="visibility: inherit;" fill="rgb(0, 0, 0)" stroke="rgb(204, 204, 204)" stroke-width="1px"></line><line x1="61.953125" y1="296.2142857142921" x2="56.953125" y2="296.2142857142921" style="visibility: inherit;" fill="rgb(0, 0, 0)" stroke="rgb(204, 204, 204)" stroke-width="1px"></line><line x1="61.953125" y1="269.2857142857228" x2="56.953125" y2="269.2857142857228" style="visibility: inherit;" fill="rgb(0, 0, 0)" stroke="rgb(204, 204, 204)" stroke-width="1px"></line><line x1="61.953125" y1="242.35714285713857" x2="56.953125" y2="242.35714285713857" style="visibility: inherit;" fill="rgb(0, 0, 0)" stroke="rgb(204, 204, 204)" stroke-width="1px"></line><line x1="61.953125" y1="215.4285714285693" x2="56.953125" y2="215.4285714285693" style="visibility: inherit;" fill="rgb(0, 0, 0)" stroke="rgb(204, 204, 204)" stroke-width="1px"></line><line x1="61.953125" y1="188.5" x2="56.953125" y2="188.5" style="visibility: inherit;" fill="rgb(0, 0, 0)" stroke="rgb(204, 204, 204)" stroke-width="1px"></line><line x1="61.953125" y1="161.57142857143072" x2="56.953125" y2="161.57142857143072" style="visibility: inherit;" fill="rgb(0, 0, 0)" stroke="rgb(204, 204, 204)" stroke-width="1px"></line><line x1="61.953125" y1="134.6428571428614" x2="56.953125" y2="134.6428571428614" style="visibility: inherit;" fill="rgb(0, 0, 0)" stroke="rgb(204, 204, 204)" stroke-width="1px"></line><line x1="61.953125" y1="107.71428571427717" x2="56.953125" y2="107.71428571427717" style="visibility: inherit;" fill="rgb(0, 0, 0)" stroke="rgb(204, 204, 204)" stroke-width="1px"></line><line x1="61.953125" y1="80.78571428570788" x2="56.953125" y2="80.78571428570788" style="visibility: inherit;" fill="rgb(0, 0, 0)" stroke="rgb(204, 204, 204)" stroke-width="1px"></line><line x1="61.953125" y1="53.857142857138605" x2="56.953125" y2="53.857142857138605" style="visibility: inherit;" fill="rgb(0, 0, 0)" stroke="rgb(204, 204, 204)" stroke-width="1px"></line><line x1="61.953125" y1="26.92857142856928" x2="56.953125" y2="26.92857142856928" style="visibility: inherit;" fill="rgb(0, 0, 0)" stroke="rgb(204, 204, 204)" stroke-width="1px"></line><line x1="61.953125" y1="0" x2="56.953125" y2="0" style="visibility: inherit;" fill="rgb(0, 0, 0)" stroke="rgb(204, 204, 204)" stroke-width="1px"></line></g><g transform="translate(51.953125, 0)"><text x="0" y="377" dx="0em" dy="0.3em" style="text-anchor: end; visibility: hidden; font-family: Roboto, sans-serif; font-size: 12px; font-weight: 200;" fill="rgb(33, 33, 33)" stroke="none" stroke-width="1px">0.995</text><text x="0" y="350.0714285714307" dx="0em" dy="0.3em" style="text-anchor: end; visibility: inherit; font-family: Roboto, sans-serif; font-size: 12px; font-weight: 200;" fill="rgb(33, 33, 33)" stroke="none" stroke-width="1px">0.995</text><text x="0" y="323.14285714286143" dx="0em" dy="0.3em" style="text-anchor: end; visibility: inherit; font-family: Roboto, sans-serif; font-size: 12px; font-weight: 200;" fill="rgb(33, 33, 33)" stroke="none" stroke-width="1px">0.995</text><text x="0" y="296.2142857142921" dx="0em" dy="0.3em" style="text-anchor: end; visibility: inherit; font-family: Roboto, sans-serif; font-size: 12px; font-weight: 200;" fill="rgb(33, 33, 33)" stroke="none" stroke-width="1px">0.995</text><text x="0" y="269.2857142857228" dx="0em" dy="0.3em" style="text-anchor: end; visibility: inherit; font-family: Roboto, sans-serif; font-size: 12px; font-weight: 200;" fill="rgb(33, 33, 33)" stroke="none" stroke-width="1px">0.995</text><text x="0" y="242.35714285713857" dx="0em" dy="0.3em" style="text-anchor: end; visibility: inherit; font-family: Roboto, sans-serif; font-size: 12px; font-weight: 200;" fill="rgb(33, 33, 33)" stroke="none" stroke-width="1px">0.996</text><text x="0" y="215.4285714285693" dx="0em" dy="0.3em" style="text-anchor: end; visibility: inherit; font-family: Roboto, sans-serif; font-size: 12px; font-weight: 200;" fill="rgb(33, 33, 33)" stroke="none" stroke-width="1px">0.996</text><text x="0" y="188.5" dx="0em" dy="0.3em" style="text-anchor: end; visibility: inherit; font-family: Roboto, sans-serif; font-size: 12px; font-weight: 200;" fill="rgb(33, 33, 33)" stroke="none" stroke-width="1px">0.996</text><text x="0" y="161.57142857143072" dx="0em" dy="0.3em" style="text-anchor: end; visibility: inherit; font-family: Roboto, sans-serif; font-size: 12px; font-weight: 200;" fill="rgb(33, 33, 33)" stroke="none" stroke-width="1px">0.996</text><text x="0" y="134.6428571428614" dx="0em" dy="0.3em" style="text-anchor: end; visibility: inherit; font-family: Roboto, sans-serif; font-size: 12px; font-weight: 200;" fill="rgb(33, 33, 33)" stroke="none" stroke-width="1px">0.996</text><text x="0" y="107.71428571427717" dx="0em" dy="0.3em" style="text-anchor: end; visibility: inherit; font-family: Roboto, sans-serif; font-size: 12px; font-weight: 200;" fill="rgb(33, 33, 33)" stroke="none" stroke-width="1px">0.997</text><text x="0" y="80.78571428570788" dx="0em" dy="0.3em" style="text-anchor: end; visibility: inherit; font-family: Roboto, sans-serif; font-size: 12px; font-weight: 200;" fill="rgb(33, 33, 33)" stroke="none" stroke-width="1px">0.997</text><text x="0" y="53.857142857138605" dx="0em" dy="0.3em" style="text-anchor: end; visibility: inherit; font-family: Roboto, sans-serif; font-size: 12px; font-weight: 200;" fill="rgb(33, 33, 33)" stroke="none" stroke-width="1px">0.997</text><text x="0" y="26.92857142856928" dx="0em" dy="0.3em" style="text-anchor: end; visibility: inherit; font-family: Roboto, sans-serif; font-size: 12px; font-weight: 200;" fill="rgb(33, 33, 33)" stroke="none" stroke-width="1px">0.997</text><text x="0" y="0" dx="0em" dy="0.3em" style="text-anchor: end; visibility: hidden; font-family: Roboto, sans-serif; font-size: 12px; font-weight: 200;" fill="rgb(33, 33, 33)" stroke="none" stroke-width="1px">0.997</text></g><line x1="61.953125" y1="0" x2="61.953125" y2="377" fill="rgb(0, 0, 0)" stroke="rgb(204, 204, 204)" stroke-width="1px"></line></g></g><g transform="translate(61, 0)" clip-path="url(#clip_0)"><clipPath id="clip_0"><rect width="1395" height="377"></rect></clipPath><g><g><g><line x1="0" y1="0" x2="0" y2="377" fill="rgb(0, 0, 0)" stroke="rgb(66, 66, 66)" stroke-width="1px" opacity="0.25"></line><line x1="139.50468750000002" y1="0" x2="139.50468750000002" y2="377" fill="rgb(0, 0, 0)" stroke="rgb(66, 66, 66)" stroke-width="1px" opacity="0.25"></line><line x1="279.00937500000003" y1="0" x2="279.00937500000003" y2="377" fill="rgb(0, 0, 0)" stroke="rgb(66, 66, 66)" stroke-width="1px" opacity="0.25"></line><line x1="418.51406249999997" y1="0" x2="418.51406249999997" y2="377" fill="rgb(0, 0, 0)" stroke="rgb(66, 66, 66)" stroke-width="1px" opacity="0.25"></line><line x1="558.0187500000001" y1="0" x2="558.0187500000001" y2="377" fill="rgb(0, 0, 0)" stroke="rgb(66, 66, 66)" stroke-width="1px" opacity="0.25"></line><line x1="697.5234375" y1="0" x2="697.5234375" y2="377" fill="rgb(0, 0, 0)" stroke="rgb(66, 66, 66)" stroke-width="1px" opacity="0.25"></line><line x1="837.0281249999999" y1="0" x2="837.0281249999999" y2="377" fill="rgb(0, 0, 0)" stroke="rgb(66, 66, 66)" stroke-width="1px" opacity="0.25"></line><line x1="976.5328125" y1="0" x2="976.5328125" y2="377" fill="rgb(0, 0, 0)" stroke="rgb(66, 66, 66)" stroke-width="1px" opacity="0.25"></line><line x1="1116.0375000000001" y1="0" x2="1116.0375000000001" y2="377" fill="rgb(0, 0, 0)" stroke="rgb(66, 66, 66)" stroke-width="1px" opacity="0.25"></line><line x1="1255.5421875" y1="0" x2="1255.5421875" y2="377" fill="rgb(0, 0, 0)" stroke="rgb(66, 66, 66)" stroke-width="1px" opacity="0.25"></line><line x1="1395.046875" y1="0" x2="1395.046875" y2="377" fill="rgb(0, 0, 0)" stroke="rgb(66, 66, 66)" stroke-width="1px" opacity="0.25"></line></g><g><line x1="0" y1="377" x2="1395.046875" y2="377" fill="rgb(0, 0, 0)" stroke="rgb(66, 66, 66)" stroke-width="1px" opacity="0.25"></line><line x1="0" y1="350.0714285714307" x2="1395.046875" y2="350.0714285714307" fill="rgb(0, 0, 0)" stroke="rgb(66, 66, 66)" stroke-width="1px" opacity="0.25"></line><line x1="0" y1="323.14285714286143" x2="1395.046875" y2="323.14285714286143" fill="rgb(0, 0, 0)" stroke="rgb(66, 66, 66)" stroke-width="1px" opacity="0.25"></line><line x1="0" y1="296.2142857142921" x2="1395.046875" y2="296.2142857142921" fill="rgb(0, 0, 0)" stroke="rgb(66, 66, 66)" stroke-width="1px" opacity="0.25"></line><line x1="0" y1="269.2857142857228" x2="1395.046875" y2="269.2857142857228" fill="rgb(0, 0, 0)" stroke="rgb(66, 66, 66)" stroke-width="1px" opacity="0.25"></line><line x1="0" y1="242.35714285713857" x2="1395.046875" y2="242.35714285713857" fill="rgb(0, 0, 0)" stroke="rgb(66, 66, 66)" stroke-width="1px" opacity="0.25"></line><line x1="0" y1="215.4285714285693" x2="1395.046875" y2="215.4285714285693" fill="rgb(0, 0, 0)" stroke="rgb(66, 66, 66)" stroke-width="1px" opacity="0.25"></line><line x1="0" y1="188.5" x2="1395.046875" y2="188.5" fill="rgb(0, 0, 0)" stroke="rgb(66, 66, 66)" stroke-width="1px" opacity="0.25"></line><line x1="0" y1="161.57142857143072" x2="1395.046875" y2="161.57142857143072" fill="rgb(0, 0, 0)" stroke="rgb(66, 66, 66)" stroke-width="1px" opacity="0.25"></line><line x1="0" y1="134.6428571428614" x2="1395.046875" y2="134.6428571428614" fill="rgb(0, 0, 0)" stroke="rgb(66, 66, 66)" stroke-width="1px" opacity="0.25"></line><line x1="0" y1="107.71428571427717" x2="1395.046875" y2="107.71428571427717" fill="rgb(0, 0, 0)" stroke="rgb(66, 66, 66)" stroke-width="1px" opacity="0.25"></line><line x1="0" y1="80.78571428570788" x2="1395.046875" y2="80.78571428570788" fill="rgb(0, 0, 0)" stroke="rgb(66, 66, 66)" stroke-width="1px" opacity="0.25"></line><line x1="0" y1="53.857142857138605" x2="1395.046875" y2="53.857142857138605" fill="rgb(0, 0, 0)" stroke="rgb(66, 66, 66)" stroke-width="1px" opacity="0.25"></line><line x1="0" y1="26.92857142856928" x2="1395.046875" y2="26.92857142856928" fill="rgb(0, 0, 0)" stroke="rgb(66, 66, 66)" stroke-width="1px" opacity="0.25"></line><line x1="0" y1="0" x2="1395.046875" y2="0" fill="rgb(0, 0, 0)" stroke="rgb(66, 66, 66)" stroke-width="1px" opacity="0.25"></line></g></g></g><g><g><line x1="0" y1="134292.78571428984" x2="1395.046875" y2="134292.78571428984" fill="rgb(0, 0, 0)" stroke="rgb(153, 153, 153)" stroke-width="1.5px"></line></g></g><g><g><line x1="139.50468750000002" y1="0" x2="139.50468750000002" y2="377" fill="rgb(0, 0, 0)" stroke="rgb(153, 153, 153)" stroke-width="1.5px"></line></g></g><g><g><g><g><g><path stroke="rgb(255, 112, 67)" stroke-width="2px" d="M172.9858125,478.9452234443816L175.77590625,322.01803154973163L178.566,299.8236215606752L181.35609375,238.83053813676923L184.1461875,110.55781715030412L186.93628125,-36.440689519232514L189.72637500000002,6.402313230439324L192.51646875000003,-82.85877572741823L195.3065625,20.204777093401237L198.09665625,-0.03693024379321819L200.88674999999998,33.31435621903276L203.67684375,-35.47092426743307L220.41740625,-9.265445047401183L223.2075,2.358178766473225L225.99759375,-25.127279919160056L245.52824999999999,-37.84868436629559L248.31834375,26.690608379673822L251.10843749999998,37.166862188128185L253.89853125,43.219639217735214L256.688625,89.50560806714135L259.47871875,129.79340146733585L262.2688125,160.8098322907927L265.05890625,123.49916233609704L267.849,63.81310206534631L270.63909375000003,104.4355585772004L273.4291875,127.115922775591L276.21928125,74.7194418762502L279.00937500000003,92.50712592898749L281.79946875,135.17384367406797L284.5895625,102.8763761125149L287.37965625,116.06330461527355L290.16974999999996,130.65416058293144L292.95984375,139.6828963933401L295.7499375,91.58832218499356L298.54003124999997,103.84791728290894L301.330125,130.7565526354767L304.12021875,147.31295889639787L306.9103125,145.128826420899L309.70040625,146.90784920574853L312.4905,164.877017558201L315.28059375000004,203.0998034352891L318.0706875,198.6806513127519L320.86078125,210.13706259525196L323.65087500000004,211.98138761754697L326.44096875,214.5634415830825L329.2310625,177.67537384547853L332.02115625,206.5390451757169L334.81125,179.73596311201243L337.60134375,184.21251728238533L340.3914375,221.24897080777788L343.18153125,238.8455329182686L345.971625,217.76067141004592L348.76171875,224.24111704262128L351.5518125,228.3549637313371L354.34190625,250.86971952066344L357.132,265.21746506828254L359.92209375,245.36608186026518L362.7121875,216.86814013261423L365.50228125,240.03086324115168L368.292375,227.60495097890882L371.08246875000003,192.53733421190728L373.8725625,213.11975385870582L376.66265625,196.3714378107742L379.45275000000004,180.3295984921115L382.24284375,194.07659384896397L385.03293750000006,177.09588577945993L387.82303125000004,160.6377443353878L390.613125,126.62588566515416L393.40321874999995,132.9759681321513L396.1933125,112.40226156846907L398.98340625,126.164586393217L401.77349999999996,142.52295391422643L404.56359375,154.83576317364245L407.3536875,138.05905969859438L410.14378124999996,136.08173732015254L412.933875,102.98953130012633L415.72396875,112.45676433751406L418.51406249999997,140.02098675683143L421.30415625,143.11053465987175L424.09425,149.73386077354192L426.88434374999997,154.86894000092406L429.6744375,134.332924935686L432.46453125,138.31994322812486L435.254625,141.5780619569614L438.04471875,139.9030621003311L440.8348125,149.77178971239422L443.62490625,147.7763681072269L446.415,154.85123232034428L449.20509375,156.5467580927798L451.9951875,151.21933753419702L454.78528125,144.61816677198567L457.575375,142.61572414570415L460.36546875000005,157.64026571452084L463.15556250000003,163.82758101319033L465.94565625,155.29691700386655L468.73575000000005,128.6222112182352L471.52584375000004,97.43263252173637L474.3159375,116.17665966872164L477.10603125000006,131.17117893266837L479.896125,139.4618482717721L482.68621874999997,151.0872211277476L485.47631249999995,159.5530520866865L488.26640625,169.27835978662114L491.05649999999997,174.30820936928723L493.84659374999995,184.85982927396935L496.6366875,191.96105943276993L499.42678125,196.1323028244307L502.21687499999996,192.53615732746385L505.00696875,196.94907258171978L507.7970625,203.4763666310509L510.58715624999996,207.85054564941967L513.37725,218.69955430680426L516.16734375,217.31526553215315L518.9574375,216.14654649458177L521.74753125,223.61687625233884L524.537625,227.13759260733815L527.32771875,213.52133711143264L530.1178125,222.69308497940233L532.90790625,214.49222685546738L535.698,191.76298227493018L538.48809375,193.98324719319285L541.2781875000001,199.79397940658995L544.06828125,206.3174485331371L546.858375,207.16990681169804L549.64846875,206.97531738366033L552.4385625,198.46319330219907L555.22865625,200.00142817454076L558.0187500000001,206.9946884645856L560.80884375,214.89292851523896L563.5989375,205.8175534327769L566.38903125,213.93156846718827L569.179125,219.40887974139284L571.96921875,226.45752687579244L574.7593125,222.7433184111146L577.54940625,220.76734872503235L580.3394999999999,225.43758832764965L583.12959375,236.166808557426L585.9196875,236.7948191584602L588.70978125,236.16856819393806L591.499875,220.63015110874647L594.28996875,228.83625795893752L597.0800624999999,207.81322947359138L599.87015625,210.3767601543199L602.66025,218.36953470583356L605.45034375,218.40204021150512L608.2404375,221.3246184587133L611.03053125,215.25850715523552L613.820625,223.41668719240928L616.61071875,221.81148848760483L619.4008125,227.40608071383969L622.19090625,226.74592839580447L624.981,229.17812292001923L627.77109375,233.36888039834855L630.5611875000001,236.63075486387655L633.35128125,244.5357044963544L636.141375,252.58670831772153L638.93146875,251.9846739672502L641.7215625,251.47037674920858L644.51165625,246.57352500281567L647.3017500000001,247.8843314675582L650.0918437500001,240.4667210657567L652.8819375,242.46549608368727L655.6720312499999,257.6211560670352L658.462125,260.0049930722718L661.25221875,263.5201671414587L664.0423125,272.7301883236209L666.83240625,272.7646857331982L669.6225,280.1544599782423L672.4125937499999,268.52753167159284L675.2026875,271.8574842037011L677.99278125,270.22380059960864L680.782875,249.16518869722688L683.57296875,255.0782299707415L686.3630625,258.3650633859382L689.1531562499999,261.2987813469092L691.94325,256.5732872343749L694.73334375,263.3617920570984L697.5234375,267.08378022874047L700.31353125,265.1421888097103L703.103625,268.3291264558933L705.8937187500001,264.58150151028644L708.6838125,256.1676259879575L711.47390625,259.6259143172774L714.264,258.51734363577333L717.05409375,264.64957348484205L719.8441875,267.39669130119535L722.6342812500001,271.8015222267408L725.424375,279.3916494402578L728.21446875,282.9184356061679L731.0045625,289.80834205219276L733.79465625,289.21318727258875L736.58475,295.5065568426578L739.3748437500001,303.92918153779414L742.1649375000001,302.5220880855397L744.95503125,302.8030106605625L747.745125,309.83416782642337L750.53521875,313.8242055805241L753.3253125,317.336161075251L756.1154062500001,320.0453171212503L758.9055000000001,316.58598102354296L761.6955937500001,306.1547123498915L764.4856875,314.4369231426816L767.27578125,316.2593322799071L770.0658750000001,314.8715043532002L772.8559687500001,322.3316230938969L775.6460625000001,321.08115686423923L778.4361562500001,322.69387932175687L781.22625,327.17770329685624L784.01634375,330.1657786872416L786.8064374999999,321.9077031043527L789.5965312499999,325.7046840974572L792.386625,329.9213330821383L795.17671875,326.78267554712335L797.9668125,331.91211321186586L800.7569062499999,334.198729749921L803.5469999999999,338.87268328427245L806.3370937499999,326.7839136048301L809.1271875,321.6011097641547L811.91728125,327.65046188971945L814.707375,327.38157758192864L817.4974687499999,318.18178165102887L820.2875624999999,323.4346315366673L823.0776562499999,324.31511195720867L825.86775,333.0111674864182L828.65784375,336.8417961015311L831.4479375,332.66314609793244L834.23803125,336.8796571748888L837.0281249999999,340.4501805797963L839.81821875,346.11520860737295L842.6083125,350.4862249157247L845.39840625,340.89835271027664L848.1885,344.90569771842416L850.97859375,338.74110386000143L853.7686874999999,342.470869660113L856.55878125,330.76339995499205L859.348875,324.50863934395556L862.13896875,322.1668790284268L864.9290625,312.608508424838L867.71915625,310.11718385256603L870.50925,305.60619398035783L873.29934375,307.7546887390229L876.0894375,315.8606342745733L878.87953125,310.39025530233835L881.669625,302.3679322960666L884.45971875,286.4695579562219L887.2498125,282.2472759636981L890.0399062500001,286.0359438498251L892.83,283.21395184391355L895.62009375,286.1811350784415L898.4101875,279.9401691606001L901.20028125,282.8025030257784L903.990375,274.48880314884366L906.7804687500001,279.529988964904L909.5705625,276.6941284213324L912.36065625,283.2162620129635L915.15075,275.67551595495706L917.94084375,274.518880653717L920.7309375000001,279.1845122180589L923.5210312500001,281.4082782570888L926.3111250000001,285.9389642431768L929.10121875,288.78732107947434L931.8913125,292.1225279401702L934.68140625,297.4279814801572L937.4715000000001,295.2847872719185L940.2615937500001,293.9679863509031L943.0516875000001,288.5302088585961L945.84178125,289.89146445009465L948.631875,281.18923010478426L951.42196875,282.20680357443996L954.2120625000001,282.8430819833301L957.0021562500001,287.0320869116566L959.79225,289.6391491137413L962.58234375,288.3171685994808L965.3724374999999,276.3812739034564L968.1625312499999,282.972611239652L970.9526249999999,286.9535507499367L973.7427187499999,283.66767535734454L976.5328125,286.38945468355405L979.32290625,285.60731962610987L982.1129999999999,287.4232684991235L984.9030937499999,277.52680134482745L987.6931874999999,275.55295815276634L990.48328125,280.78685219496714L993.273375,284.87525299217356L996.06346875,274.75260915341704L998.8535625,264.47318232261847L1001.6436562499999,269.4988129660935L1004.4337499999999,270.3717263293598L1007.22384375,273.3832225975088L1010.0139375,264.14243520327784L1012.80403125,259.98666877856834L1015.594125,258.58776434155857L1018.38421875,263.33350347075066L1021.1743124999999,264.9299354816254L1023.96440625,263.62775430914786L1026.7545,268.44861349151296L1029.5445937499999,272.67001952338427L1032.3346875,278.0716053272701L1035.12478125,284.7978653249867L1037.914875,287.87100523063515L1040.70496875,274.2772264092141L1043.4950625,276.218866573187L1046.28515625,274.56768378774683L1049.07525,266.05009491286125L1051.86534375,267.5689696838779L1054.6554375,253.85086260671727L1057.44553125,254.07258942990055L1060.235625,257.8660415124144L1063.0257187500001,262.2024670855727L1065.8158125,260.36804643921784L1068.60590625,261.8093825951361L1071.396,269.6859073181126L1074.18609375,268.6513089963311L1076.9761875,270.5853336252432L1079.76628125,275.89297264923204L1082.5563750000001,279.0134469486201L1085.34646875,282.5052503931411L1088.1365625,285.93579467742336L1090.92665625,276.98767119458734L1093.71675,277.1357881079734L1096.5068437500001,281.2076323393713L1099.2969375,285.1834468206904L1102.08703125,287.25574891756713L1104.877125,283.08347287309135L1107.66721875,275.7770851444562L1110.4573125,278.4374844928035L1113.24740625,279.43003772139025L1116.0375000000001,280.83598228707604L1118.82759375,281.7138427999377L1121.6176875,277.799475895506L1124.40778125,282.75347101956106L1127.197875,284.7749368832139L1129.9879687500002,285.73466595018976L1132.7780625,290.94710042469575L1135.56815625,285.7731887562927L1138.35825,288.8178746915723L1141.1483437499999,294.81809439135L1143.9384375,298.63052623723377L1146.7285312499998,299.66156829053415L1149.518625,304.8768343322595L1152.30871875,306.864458863174L1155.0988125,309.9028312217809L1157.88890625,312.42708063677L1160.6789999999999,312.5162046821971L1163.46909375,302.8610180767227L1166.2591875,305.6698234025322L1169.04928125,308.6093890071788L1171.839375,298.8223387924421L1174.62946875,294.323891164951L1177.4195625,298.14634071960495L1180.2096562499999,302.28874471996113L1182.99975,295.54910422137766L1185.78984375,298.48132311866743L1188.5799375,299.4132548364728L1191.37003125,297.6240464480157L1194.1601249999999,303.047237135474L1196.95021875,305.31524519803344L1199.7403125,310.15938105293264L1202.53040625,311.17406138764835L1205.3205,308.38842897948035L1208.11059375,309.8929740240908L1210.9006875,311.255923840395L1213.69078125,304.7057987089464L1216.480875,303.2540531973601L1219.27096875,298.54850027161194L1222.0610625,293.9004817550444L1224.85115625,294.9504218661613L1227.64125,299.5431721107837L1230.43134375,301.82886206184315L1233.2214375,307.5033184211576L1236.01153125,309.18695758104604L1238.801625,309.42718895343444L1241.59171875,313.22505904902704L1244.3818125,312.39147619192124L1247.1719062500001,313.0829246116254L1249.962,314.87324114015735L1252.75209375,317.55396101877625L1255.5421875,319.81807408037093" style="fill: none;" fill="none"></path></g></g></g></g><g opacity="0.2"><g><g><g><path stroke="rgb(255, 112, 67)" stroke-width="2px" d="M159.03534375,-2283.6325663158636L161.82543750000002,374.3759835788235L164.61553125,-897.110681942565L175.77590625,-1548.9127193860186L178.566,13.307926416391235L181.35609375,-608.6960248266198L203.67684375,-1531.465630940082L206.4669375,246.371815817698L209.25703124999998,-1625.2818517004305L212.047125,152.9247606822407L214.83721875,505.39767905644936L217.6273125,939.3277950968287L220.41740625,315.52616776739194L223.2075,334.43386803354935L225.99759375,-837.0329891613871L251.10843749999998,437.6718375682903L253.89853125,280.43135738373036L256.688625,1947.9043329784388L304.12021875,1079.7872900281902L306.9103125,20.057237080159645L309.70040625,250.45671371051387L312.4905,1227.6862748350732L320.86078125,920.0108025074226L323.65087500000004,327.9895202772996L326.44096875,379.3918208735384L446.415,885.0845242568636L449.20509375,333.0695602893869L451.9951875,-408.19093847276673L513.37725,1569.0601484435367L516.16734375,43.80421716825807L518.9574375,68.63461811201496L521.74753125,1173.017660992516L544.06828125,1080.726254769761L546.858375,322.1711490154303L549.64846875,180.55600517136637L552.4385625,-964.5716872215631L583.12959375,1803.4000668526191L585.9196875,329.0649157932865L588.70978125,143.62339200292126L591.499875,-2088.8094204494637L602.66025,1433.4640093531307L605.45034375,223.3711923190532L608.2404375,670.5752201761662L619.4008125,1106.278936283957L622.19090625,122.48464730807463L624.981,615.3528578962726L636.141375,1557.912951639762L638.93146875,153.87175076348288L641.7215625,167.22591597693193L644.51165625,-559.6451487541435L664.0423125,1842.7001552241693L666.83240625,278.6738079956623L669.6225,1552.07852969855L711.47390625,897.4595980303842L714.264,53.153737885606745L717.05409375,1405.6401567118878L731.0045625,1599.7249713285057L733.79465625,175.58029457500913L736.58475,1502.1849929605612L739.3748437500001,1925.6661167485904L742.1649375000001,30.458077294480546L744.95503125,357.3462127958073L747.745125,1680.6444712366833L767.27578125,681.7866196973131L770.0658750000001,35.401686532151615L772.8559687500001,1830.5417656217803L775.6460625000001,67.27833570752404L778.4361562500001,651.3063796247892L811.91728125,1617.6937068530929L814.707375,269.8298836776209L817.4974687499999,-1658.1536429950745L976.5328125,989.4059146472629L979.32290625,83.00800146375012L982.1129999999999,759.1589194706679L1054.6554375,-3570.1426677023824L1057.44553125,316.0397895063707L1060.235625,1320.772189685311L1090.92665625,-2300.6302357401937L1093.71675,319.9080032280549L1096.5068437500001,1459.939604929554L1157.88890625,1082.1467398916243L1160.6789999999999,339.754668235783L1163.46909375,-2654.6921713693678L1241.59171875,1549.2536101341664L1244.3818125,40.537903921939694L1247.1719062500001,539.0479282992329" style="fill: none;" fill="none"></path></g></g></g></g></g></g><g transform="translate(61, 377)" clip-path="url(#clip_1)"><clipPath id="clip_1"><rect width="1395" height="23"></rect></clipPath><g><g><line x1="0" y1="0" x2="0" y2="5" style="visibility: inherit;" fill="rgb(0, 0, 0)" stroke="rgb(204, 204, 204)" stroke-width="1px"></line><line x1="139.50468750000002" y1="0" x2="139.50468750000002" y2="5" style="visibility: inherit;" fill="rgb(0, 0, 0)" stroke="rgb(204, 204, 204)" stroke-width="1px"></line><line x1="279.00937500000003" y1="0" x2="279.00937500000003" y2="5" style="visibility: inherit;" fill="rgb(0, 0, 0)" stroke="rgb(204, 204, 204)" stroke-width="1px"></line><line x1="418.51406249999997" y1="0" x2="418.51406249999997" y2="5" style="visibility: inherit;" fill="rgb(0, 0, 0)" stroke="rgb(204, 204, 204)" stroke-width="1px"></line><line x1="558.0187500000001" y1="0" x2="558.0187500000001" y2="5" style="visibility: inherit;" fill="rgb(0, 0, 0)" stroke="rgb(204, 204, 204)" stroke-width="1px"></line><line x1="697.5234375" y1="0" x2="697.5234375" y2="5" style="visibility: inherit;" fill="rgb(0, 0, 0)" stroke="rgb(204, 204, 204)" stroke-width="1px"></line><line x1="837.0281249999999" y1="0" x2="837.0281249999999" y2="5" style="visibility: inherit;" fill="rgb(0, 0, 0)" stroke="rgb(204, 204, 204)" stroke-width="1px"></line><line x1="976.5328125" y1="0" x2="976.5328125" y2="5" style="visibility: inherit;" fill="rgb(0, 0, 0)" stroke="rgb(204, 204, 204)" stroke-width="1px"></line><line x1="1116.0375000000001" y1="0" x2="1116.0375000000001" y2="5" style="visibility: inherit;" fill="rgb(0, 0, 0)" stroke="rgb(204, 204, 204)" stroke-width="1px"></line><line x1="1255.5421875" y1="0" x2="1255.5421875" y2="5" style="visibility: inherit;" fill="rgb(0, 0, 0)" stroke="rgb(204, 204, 204)" stroke-width="1px"></line><line x1="1395.046875" y1="0" x2="1395.046875" y2="5" style="visibility: inherit;" fill="rgb(0, 0, 0)" stroke="rgb(204, 204, 204)" stroke-width="1px"></line></g><g transform="translate(0, 8)"><text x="0" y="0" dx="0em" dy="0.95em" style="text-anchor: middle; visibility: hidden; font-family: Roboto, sans-serif; font-size: 12px; font-weight: 200;" fill="rgb(33, 33, 33)" stroke="none" stroke-width="1px">-50</text><text x="139.50468750000002" y="0" dx="0em" dy="0.95em" style="text-anchor: middle; visibility: inherit; font-family: Roboto, sans-serif; font-size: 12px; font-weight: 200;" fill="rgb(33, 33, 33)" stroke="none" stroke-width="1px">0</text><text x="279.00937500000003" y="0" dx="0em" dy="0.95em" style="text-anchor: middle; visibility: inherit; font-family: Roboto, sans-serif; font-size: 12px; font-weight: 200;" fill="rgb(33, 33, 33)" stroke="none" stroke-width="1px">50</text><text x="418.51406249999997" y="0" dx="0em" dy="0.95em" style="text-anchor: middle; visibility: inherit; font-family: Roboto, sans-serif; font-size: 12px; font-weight: 200;" fill="rgb(33, 33, 33)" stroke="none" stroke-width="1px">100</text><text x="558.0187500000001" y="0" dx="0em" dy="0.95em" style="text-anchor: middle; visibility: inherit; font-family: Roboto, sans-serif; font-size: 12px; font-weight: 200;" fill="rgb(33, 33, 33)" stroke="none" stroke-width="1px">150</text><text x="697.5234375" y="0" dx="0em" dy="0.95em" style="text-anchor: middle; visibility: inherit; font-family: Roboto, sans-serif; font-size: 12px; font-weight: 200;" fill="rgb(33, 33, 33)" stroke="none" stroke-width="1px">200</text><text x="837.0281249999999" y="0" dx="0em" dy="0.95em" style="text-anchor: middle; visibility: inherit; font-family: Roboto, sans-serif; font-size: 12px; font-weight: 200;" fill="rgb(33, 33, 33)" stroke="none" stroke-width="1px">250</text><text x="976.5328125" y="0" dx="0em" dy="0.95em" style="text-anchor: middle; visibility: inherit; font-family: Roboto, sans-serif; font-size: 12px; font-weight: 200;" fill="rgb(33, 33, 33)" stroke="none" stroke-width="1px">300</text><text x="1116.0375000000001" y="0" dx="0em" dy="0.95em" style="text-anchor: middle; visibility: inherit; font-family: Roboto, sans-serif; font-size: 12px; font-weight: 200;" fill="rgb(33, 33, 33)" stroke="none" stroke-width="1px">350</text><text x="1255.5421875" y="0" dx="0em" dy="0.95em" style="text-anchor: middle; visibility: inherit; font-family: Roboto, sans-serif; font-size: 12px; font-weight: 200;" fill="rgb(33, 33, 33)" stroke="none" stroke-width="1px">400</text><text x="1395.046875" y="0" dx="0em" dy="0.95em" style="text-anchor: middle; visibility: hidden; font-family: Roboto, sans-serif; font-size: 12px; font-weight: 200;" fill="rgb(33, 33, 33)" stroke="none" stroke-width="1px">450</text></g><line x1="0" y1="0" x2="1395.046875" y2="0" fill="rgb(0, 0, 0)" stroke="rgb(204, 204, 204)" stroke-width="1px"></line></g></g></g></g></svg>